<?xml version="1.0" encoding="utf-8"?>
<!-- Generator: Adobe Illustrator 15.0.0, SVG Export Plug-In . SVG Version: 6.00 Build 0)  -->
<!DOCTYPE svg PUBLIC "-//W3C//DTD SVG 1.1//EN" "http://www.w3.org/Graphics/SVG/1.1/DTD/svg11.dtd">
<svg version="1.1" id="Layer_1" xmlns="http://www.w3.org/2000/svg" xmlns:xlink="http://www.w3.org/1999/xlink" x="0px" y="0px"
	 width="128px" height="128px" viewBox="0 0 128 128" enable-background="new 0 0 128 128" xml:space="preserve">
<g>
	<path fill="#FFFFFF" d="M127.961,49.124c-0.557-11.091-7.156-19.727-14.941-19.337c-0.055,0.003-0.108,0.01-0.163,0.014
		c-0.019,0.001-0.037-0.003-0.056-0.003l-38.363,1.927c-3.38,0.17-6.359,1.975-8.607,4.874l-17.246,0.865
		c-3.107,0.156-5.981,2.117-7.883,5.377c-0.044,0.076-0.081,0.159-0.124,0.236l-4.284,0.215c-4.267,0.215-7.381,4.927-7.089,10.726
		c0.062,1.24,0.283,2.45,0.643,3.575L19.401,58.12c-3.337,0.167-6.183,2.307-8.032,5.613l-4.261,0.214
		c-4.267,0.215-7.381,4.927-7.089,10.728c0.286,5.663,3.698,9.969,7.842,9.969c0.098,0,0.197-0.002,0.296-0.007l4.167-0.211
		c2.086,3.052,5.007,4.922,8.226,4.922c0.139,0,0.279-0.003,0.419-0.01l17.147-0.862c0.041-0.002,0.078-0.014,0.118-0.018
		c2.465,2.608,5.417,4.01,8.513,4.01c0.173,0,0.346-0.005,0.52-0.013l14.506-0.779l-2.69,2.145c-1.067,0.852-1.242,2.407-0.39,3.475
		c0.488,0.612,1.208,0.931,1.934,0.931c0.541,0,1.085-0.177,1.541-0.54l8.107-6.465c0.583-0.465,0.926-1.169,0.933-1.914
		c0.005-0.746-0.326-1.454-0.902-1.929l-8.007-6.588c-1.055-0.868-2.613-0.716-3.48,0.339c-0.867,1.055-0.715,2.612,0.339,3.479
		l2.576,2.119l-13.379,0.721l-1.335,0.068c-2.189,0.111-4.417-1.211-6.242-3.723c-2.053-2.825-3.301-6.705-3.512-10.925
		c-0.213-4.219,0.639-8.204,2.399-11.221c1.564-2.682,3.638-4.219,5.839-4.33l29.331-1.475c-2.705,3.791-4.234,9.249-3.928,15.333
		c0.545,10.852,6.886,19.351,14.435,19.351c0.169,0,0.339-0.004,0.509-0.013c7.603-0.383,13.183-9.021,12.958-19.838l16.009-0.805
		c0.016-0.001,0.03-0.006,0.046-0.008c0.057-0.002,0.114-0.001,0.172-0.004C122.847,69.469,128.525,60.359,127.961,49.124
		 M74.685,36.663l29.333-1.474c-2.705,3.791-4.233,9.25-3.928,15.334c0.303,6.035,2.399,11.34,5.499,14.862l-7.296,0.367
		c-1.701-8.855-7.367-15.325-13.954-15.325c-0.167,0-0.335,0.004-0.504,0.013c-0.055,0.002-0.108,0.01-0.163,0.014
		c-0.019,0-0.035-0.003-0.055-0.002l-17.196,0.864C66.318,43.517,69.989,36.9,74.685,36.663 M48.832,42.403l14.222-0.714
		c-1.078,2.899-1.651,6.265-1.575,9.876l-14.891,0.749c-0.001,0-0.002,0-0.004,0l-1.331,0.067c-0.683,0.034-1.352,0.14-2.005,0.305
		c-0.029-2.747,0.583-5.396,1.724-7.353C45.586,44.28,46.904,42.5,48.832,42.403 M7.902,79.698C7.888,79.699,7.874,79.7,7.859,79.7
		c-1.09-0.001-2.738-2.019-2.902-5.274c-0.166-3.301,1.311-5.486,2.401-5.541l2.179-0.109c-0.351,1.718-0.497,3.572-0.399,5.508
		c0.095,1.885,0.411,3.669,0.909,5.308L7.902,79.698z M20.722,84.399c-3.245,0.169-6.359-4.68-6.646-10.365
		c-0.253-5.046,1.974-10.795,5.577-10.976l13.907-0.701c0.119-0.006,0.233-0.03,0.347-0.052c-1.219,3.238-1.774,6.967-1.58,10.812
		c0.192,3.832,1.113,7.474,2.64,10.566L20.722,84.399z M35.724,58.618c-0.069-0.279-0.18-0.552-0.351-0.803
		c-0.706-1.034-1.155-2.508-1.232-4.044c-0.166-3.3,1.311-5.485,2.396-5.54l2.2-0.11c-0.361,1.752-0.51,3.611-0.415,5.508
		c0.028,0.559,0.083,1.116,0.152,1.669C37.463,56.208,36.541,57.32,35.724,58.618 M85.6,85.577c-4.848,0.237-9.35-6.56-9.756-14.646
		c-0.411-8.184,3.361-15.307,8.238-15.552c0.085-0.004,0.172-0.006,0.257-0.006c4.751,0,9.101,6.71,9.5,14.653
		C94.249,78.209,90.476,85.331,85.6,85.577 M114.785,64.924c-0.087,0.003-0.174,0.006-0.26,0.006c-4.75,0-9.099-6.71-9.497-14.654
		c-0.411-8.185,3.361-15.306,8.238-15.551c0.087-0.004,0.173-0.007,0.259-0.007c4.749,0,9.099,6.711,9.498,14.654
		C123.434,57.557,119.661,64.678,114.785,64.924"/>
</g>
</svg>
