<?xml version="1.0" encoding="utf-8"?>
<!-- Generator: Adobe Illustrator 15.0.0, SVG Export Plug-In . SVG Version: 6.00 Build 0)  -->
<!DOCTYPE svg PUBLIC "-//W3C//DTD SVG 1.1//EN" "http://www.w3.org/Graphics/SVG/1.1/DTD/svg11.dtd">
<svg version="1.1" id="Layer_1" xmlns="http://www.w3.org/2000/svg" xmlns:xlink="http://www.w3.org/1999/xlink" x="0px" y="0px"
	 width="128px" height="128px" viewBox="0 0 128 128" enable-background="new 0 0 128 128" xml:space="preserve">
<g>
	<path fill="#FFFFFF" d="M112.099,65c-2.312-3.219-4.932-6.868-5.797-11.019c-0.009-0.045-0.02-0.09-0.03-0.135
		c-0.81-3.237-0.437-5.744,0.035-8.917c0.546-3.67,1.225-8.237,0.011-14.781c-2.21-11.904-11.453-21.608-25.362-26.627
		C63.044-2.941,41.981-0.329,29.737,9.874C18.689,19.08,12.405,30.148,11.563,41.883c-0.774,10.794,3.228,21.926,10.981,30.539
		c8.537,9.484,9.972,11.674,15.373,23.454c2.979,6.331,2.923,13.285,2.792,20.644l-6.465-7.833
		c-0.928-1.125-2.592-1.283-3.715-0.354c-1.125,0.928-1.283,2.591-0.355,3.715l12.323,14.932c0.501,0.607,1.249,0.959,2.036,0.959
		h0.024c0.796-0.007,1.547-0.373,2.042-0.997l12.046-15.154c0.907-1.142,0.718-2.802-0.423-3.709
		c-1.14-0.906-2.801-0.718-3.708,0.424l-6.773,8.521c0.142-7.979,0.27-16.225-3.44-24.11c-5.732-12.505-7.431-15.096-16.525-25.197
		c-6.479-7.2-9.83-16.431-9.192-25.327c0.702-9.781,6.117-19.154,15.66-27.106c10.254-8.544,28.896-10.705,44.324-5.138
		c15.741,5.679,19.808,15.777,20.831,21.291c1,5.387,0.465,8.983-0.053,12.461c-0.514,3.457-1.045,7.03,0.082,11.591
		c1.181,5.577,4.381,10.035,6.955,13.619c1.202,1.674,2.997,4.173,3.103,5.13c-0.141,0.149-0.604,0.556-1.866,1.075
		C97.612,79.42,96.65,85.571,95.632,92.084c-0.385,2.463-0.82,5.252-1.763,8.362c-0.525,1.529-1.641,1.998-4.653,2.934
		c-5.32,1.652-13.36,4.149-11.826,21.412c0.163,1.83,1.698,3.208,3.501,3.208c0.104,0,0.21-0.005,0.315-0.014
		c1.936-0.173,3.366-1.881,3.194-3.817c-1.031-11.604,2.297-12.638,6.903-14.067c3.186-0.99,7.548-2.345,9.255-7.468
		c0.01-0.029,0.02-0.059,0.028-0.088c1.097-3.604,1.576-6.67,1.999-9.375c0.967-6.188,1.367-8.747,7.707-11.352
		c3.328-1.368,5.282-3.208,5.976-5.628C117.372,72.342,114.811,68.775,112.099,65z"/>
	<circle fill="#FFFFFF" cx="41.506" cy="40.055" r="10.271"/>
	<path fill="#FFFFFF" d="M73.71,55.803c-0.009-0.011-0.016-0.021-0.025-0.03l-0.107-0.089c-0.008-0.005-0.017-0.008-0.024-0.012
		l-6.939-5.779l-7.023-5.846l-0.107-0.089c-0.329-0.23-0.76-0.301-1.165-0.153c-0.399,0.148-0.678,0.474-0.783,0.856l-0.047,0.268
		l-1.532,8.891l-1.535,8.901c0,0.001-0.001,0.001-0.001,0.005l-0.047,0.268c0.001,0.002,0.001,0.004,0.001,0.006
		c-0.009,0.166,0.013,0.337,0.075,0.501c0.243,0.661,0.973,0.997,1.632,0.755l8.602-3.168l8.604-3.17
		c0.658-0.242,0.996-0.973,0.753-1.632C73.971,56.091,73.852,55.934,73.71,55.803z"/>
	<path fill="#FFFFFF" d="M77.164,26.704l-9.687-11.251c-0.598-0.693-1.644-0.771-2.337-0.176l-11.252,9.689
		c-0.693,0.595-0.772,1.643-0.174,2.335l9.687,11.253c0.598,0.692,1.643,0.771,2.336,0.174l11.253-9.687
		C77.684,28.444,77.762,27.4,77.164,26.704z"/>
</g>
</svg>
