<?xml version="1.0" encoding="utf-8"?>
<!-- Generator: Adobe Illustrator 15.0.0, SVG Export Plug-In . SVG Version: 6.00 Build 0)  -->
<!DOCTYPE svg PUBLIC "-//W3C//DTD SVG 1.1//EN" "http://www.w3.org/Graphics/SVG/1.1/DTD/svg11.dtd">
<svg version="1.1" id="Layer_1" xmlns="http://www.w3.org/2000/svg" xmlns:xlink="http://www.w3.org/1999/xlink" x="0px" y="0px"
	 width="128px" height="128px" viewBox="0 0 128 128" enable-background="new 0 0 128 128" xml:space="preserve">
<g>
	<path fill="#FFFFFF" d="M67.287,62.088V44.403c2.124,0.576,4.083,1.539,5.495,2.841c1.322,1.22,3.382,1.136,4.601-0.186
		c1.219-1.321,1.136-3.382-0.186-4.601c-2.61-2.407-6.164-4.026-9.91-4.753v-8.668c0-1.798-1.458-3.255-3.256-3.255
		s-3.256,1.458-3.256,3.255v8.323c-1.986,0.188-3.904,0.65-5.643,1.411c-5.526,2.421-8.57,7.37-8.57,13.936
		c0,9.595,7.438,12.451,14.212,14.346v20.145c-3.13-0.619-6.227-2.311-8.393-5.461c-1.018-1.482-3.045-1.858-4.527-0.84
		c-1.482,1.018-1.858,3.045-0.84,4.526c3.57,5.197,8.688,7.742,13.76,8.401v5.141c0,1.799,1.458,3.256,3.256,3.256
		s3.256-1.457,3.256-3.256v-5.297c0.812-0.147,1.604-0.339,2.363-0.575c7.345-2.28,11.907-8.235,11.907-15.54
		C81.558,67.368,74.011,64.055,67.287,62.088 M53.075,52.706c0-3.931,1.571-6.613,4.671-7.971c0.917-0.401,1.946-0.663,3.029-0.808
		v16.327C55.361,58.565,53.075,56.901,53.075,52.706 M67.72,86.872c-0.141,0.044-0.288,0.078-0.433,0.117v-18.08
		c4.998,1.649,7.759,3.642,7.759,8.643C75.046,81.964,72.307,85.449,67.72,86.872"/>
	<path fill="#FFFFFF" d="M14.277,65.291c0-28.331,23.049-51.379,51.381-51.379c4.52,0,8.971,0.591,13.283,1.741l-5.184,2.054
		c-1.444,0.572-2.15,2.207-1.578,3.651c0.438,1.104,1.495,1.777,2.615,1.777c0.345,0,0.695-0.064,1.035-0.199l13.551-5.369
		c0.788-0.312,1.395-0.964,1.647-1.774c0.254-0.81,0.128-1.691-0.341-2.397L82.625,1.257c-0.86-1.294-2.605-1.646-3.899-0.787
		s-1.646,2.605-0.787,3.898l2.851,4.293c-4.915-1.31-9.985-1.982-15.131-1.982c-32.32,0-58.613,26.293-58.613,58.611
		c0,16.522,7.027,32.361,19.278,43.455c0.692,0.627,1.561,0.936,2.426,0.936c0.986,0,1.968-0.4,2.681-1.188
		c1.341-1.48,1.228-3.768-0.253-5.108C20.438,93.659,14.277,79.774,14.277,65.291"/>
	<path fill="#FFFFFF" d="M101.909,19.547c-1.473-1.349-3.76-1.248-5.108,0.225c-1.349,1.474-1.248,3.761,0.226,5.109
		c10.688,9.784,16.773,23.702,16.696,38.186c-0.074,13.724-5.488,26.598-15.245,36.25c-9.689,9.585-22.509,14.853-36.127,14.853
		c-0.095,0-0.19,0-0.285,0c-4.52-0.025-8.968-0.641-13.272-1.814l5.195-2.025c1.447-0.564,2.162-2.195,1.598-3.643
		c-0.565-1.447-2.196-2.161-3.643-1.598l-13.58,5.292c-0.792,0.309-1.401,0.957-1.659,1.766c-0.258,0.809-0.138,1.69,0.329,2.4
		l7.998,12.182c0.541,0.824,1.438,1.271,2.354,1.271c0.53,0,1.064-0.149,1.54-0.461c1.299-0.853,1.661-2.596,0.809-3.895
		l-2.828-4.309c4.907,1.337,9.974,2.037,15.121,2.065c0.109,0.001,0.216,0.001,0.325,0.001c15.535,0,30.16-6.01,41.212-16.943
		c11.131-11.011,17.307-25.697,17.391-41.354C121.042,46.583,114.101,30.707,101.909,19.547"/>
</g>
</svg>
