<?xml version="1.0" encoding="utf-8"?>
<!-- Generator: Adobe Illustrator 15.0.0, SVG Export Plug-In . SVG Version: 6.00 Build 0)  -->
<!DOCTYPE svg PUBLIC "-//W3C//DTD SVG 1.1//EN" "http://www.w3.org/Graphics/SVG/1.1/DTD/svg11.dtd">
<svg version="1.1" id="Layer_1" xmlns="http://www.w3.org/2000/svg" xmlns:xlink="http://www.w3.org/1999/xlink" x="0px" y="0px"
	 width="128px" height="128px" viewBox="0 0 128 128" enable-background="new 0 0 128 128" xml:space="preserve">
<g>
	<path fill="#FFFFFF" d="M125.499,55.968c-0.812-6.208-2.479-12.232-4.962-17.918c-0.209-0.472-0.421-0.945-0.639-1.413
		c-0.745-1.607-2.654-2.305-4.259-1.559c-1.607,0.747-2.305,2.653-1.559,4.26c0.2,0.432,0.396,0.868,0.583,1.291
		c2.235,5.12,3.74,10.561,4.475,16.169c4.109,31.501-17.281,60.36-47.684,64.329c-2.348,0.307-4.679,0.456-6.987,0.456
		c-27.605-0.001-51.811-21.322-55.605-50.393C4.751,39.688,26.143,10.83,56.545,6.862c12.612-1.646,25.533,1.272,36.377,8.215
		c1.492,0.955,3.476,0.52,4.432-0.973c0.955-1.492,0.519-3.476-0.974-4.431C84.266,1.92,69.824-1.339,55.715,0.501
		C21.805,4.927-2.066,37.01,2.501,72.022C6.718,104.32,33.687,128,64.463,128c2.584-0.001,5.196-0.167,7.823-0.511
		C106.194,123.062,130.066,90.978,125.499,55.968"/>
	<path fill="#FFFFFF" d="M86.915,27.542c0.88-1.538,0.347-3.497-1.19-4.376c-8.518-4.873-18.121-6.783-27.772-5.522
		c-12.019,1.568-22.684,7.877-30.026,17.764c-7.319,9.855-10.461,22.09-8.848,34.451c1.612,12.36,7.788,23.379,17.391,31.024
		c8.086,6.44,17.786,9.843,27.803,9.843c1.916,0,3.846-0.125,5.775-0.377c12.021-1.568,22.687-7.877,30.03-17.766
		c7.319-9.854,10.461-22.089,8.848-34.449c-0.508-3.88-1.477-7.677-2.883-11.286c-0.643-1.65-2.498-2.467-4.152-1.824
		c-1.65,0.643-2.467,2.502-1.824,4.152c1.218,3.127,2.059,6.42,2.498,9.788c1.397,10.702-1.314,21.283-7.637,29.795
		c-6.298,8.479-15.428,13.888-25.71,15.229c-10.279,1.341-20.49-1.543-28.752-8.122c-8.293-6.604-13.631-16.135-15.026-26.836
		c-1.397-10.703,1.315-21.284,7.638-29.796c6.297-8.479,15.427-13.887,25.708-15.229c8.249-1.077,16.464,0.558,23.755,4.729
		C84.076,29.613,86.036,29.08,86.915,27.542"/>
	<path fill="#FFFFFF" d="M61.063,41.493c4.157-0.542,8.354,0.158,12.136,2.024c1.589,0.785,3.513,0.133,4.297-1.456
		c0.784-1.589,0.132-3.512-1.456-4.296c-4.922-2.43-10.388-3.34-15.806-2.634c-15.445,2.016-26.323,16.604-24.247,32.52
		c1.917,14.68,14.194,25.439,28.209,25.439c1.179,0,2.372-0.077,3.571-0.233c7.502-0.979,14.156-4.915,18.736-11.082
		c4.558-6.134,6.514-13.747,5.51-21.433c-0.192-1.484-0.494-2.95-0.896-4.356c-0.486-1.704-2.261-2.691-3.964-2.206
		c-1.703,0.486-2.69,2.26-2.206,3.963c0.315,1.103,0.553,2.255,0.704,3.428c0.787,6.029-0.738,11.987-4.298,16.778
		c-3.534,4.759-8.655,7.794-14.418,8.546c-0.919,0.121-1.831,0.179-2.736,0.179c-10.843-0.001-20.357-8.402-21.852-19.854
		C40.729,54.415,49.126,43.052,61.063,41.493"/>
	<path fill="#FFFFFF" d="M96.697,29.651l0.16-2.914c0.092-1.676-1.191-3.109-2.868-3.201c-1.675-0.099-3.109,1.192-3.201,2.867
		l-0.507,9.213L65.097,59.033l0.831-6.416c0.188-1.438-0.827-2.753-2.264-2.94c-1.439-0.185-2.753,0.827-2.939,2.265l-1.846,14.245
		c-0.101,0.785,0.156,1.573,0.703,2.146c0.497,0.521,1.185,0.813,1.899,0.813c0.069,0,0.139-0.002,0.209-0.007l14.319-1.151
		c1.442-0.116,2.52-1.382,2.404-2.826c-0.117-1.444-1.392-2.523-2.826-2.405l-6.098,0.49l24.839-23.094l9.394,0.181
		c0.019,0,0.039,0,0.059,0c1.652,0,3.007-1.322,3.037-2.98c0.033-1.678-1.3-3.065-2.979-3.097l-3.104-0.06l3.164-2.942l9.367,0.183
		c0.02,0,0.039,0,0.06,0c1.652,0,3.005-1.322,3.038-2.979c0.033-1.678-1.301-3.065-2.98-3.098l-7.385-0.145l0.406-7.376
		c0.092-1.676-1.192-3.109-2.868-3.202c-1.674-0.098-3.109,1.192-3.201,2.868l-0.508,9.235L96.697,29.651z"/>
</g>
</svg>
