<?xml version="1.0" encoding="utf-8"?>
<!-- Generator: Adobe Illustrator 15.0.0, SVG Export Plug-In . SVG Version: 6.00 Build 0)  -->
<!DOCTYPE svg PUBLIC "-//W3C//DTD SVG 1.1//EN" "http://www.w3.org/Graphics/SVG/1.1/DTD/svg11.dtd">
<svg version="1.1" id="Layer_1" xmlns="http://www.w3.org/2000/svg" xmlns:xlink="http://www.w3.org/1999/xlink" x="0px" y="0px"
	 width="128px" height="128px" viewBox="0 0 128 128" enable-background="new 0 0 128 128" xml:space="preserve">
<g>
	<path fill="#FFFFFF" d="M119.494,45.833c-0.536-0.314-1.407-0.621-1.411-0.622c-3.005-1.05-8.558-3.114-11.986-5.137
		c-5.098-3.009-9.338-7.05-10.739-9.325c-1.093-1.773,1.127-3.379,1.147-3.393c0.381-0.256,1.164-0.575,1.922-0.883
		c2.42-0.986,5.733-2.335,7.796-5.833c1.772-2.999,2.231-6.134,1.327-9.067c-0.985-3.196-3.55-6.035-7.621-8.439
		c-4.141-2.444-7.922-3.467-11.234-3.041c-2.454,0.315-5.916,1.601-8.47,5.928c-2.628,4.451-1.767,8.402-1.304,10.524
		c0.073,0.332,0.142,0.645,0.166,0.83c0.172,1.255-0.063,1.998-1.825,2.577c-2.476,0.814-11.894-4.379-18.129-7.999l6.634-1.293
		c1.787-0.348,2.954-2.08,2.606-3.867c-0.349-1.788-2.082-2.953-3.867-2.606L47.925,7.42c-0.977,0.19-1.814,0.811-2.281,1.689
		c-0.467,0.879-0.512,1.921-0.122,2.836l6.604,15.545c0.534,1.255,1.753,2.009,3.037,2.009c0.43,0,0.867-0.084,1.287-0.263
		c1.677-0.712,2.458-2.648,1.747-4.324l-2.705-6.364c14.174,8.197,19.609,10.05,24.126,8.563c5.036-1.657,7.63-5.679,6.936-10.755
		c-0.065-0.479-0.169-0.956-0.27-1.417c-0.357-1.637-0.694-3.183,0.43-5.088c1.078-1.826,2.139-2.179,2.94-2.282
		c1.109-0.142,3.126,0.099,6.442,2.056c2.337,1.379,3.846,2.86,4.249,4.168c0.1,0.322,0.4,1.298-0.614,3.016
		c-0.771,1.309-2.412,1.977-4.148,2.684c-1.111,0.452-2.259,0.919-3.285,1.608c-4.021,2.707-6.566,8.394-3.358,13.602
		c2.315,3.757,7.67,8.524,13.325,11.862c3.665,2.162,8.983,4.228,12.913,5.614c-1.166,2.949-4.345,10.666-6.457,14.244
		c-3.406,5.771-7.838,9.022-10.304,7.567c-1.169-0.688-1.485-1.435-2.153-3.201c-0.879-2.327-2.081-5.514-6.321-8.016
		c-3.898-2.3-7.885-2.119-11.223,0.511c-2.38,1.874-4.019,4.653-5.334,6.888l-0.151,0.258c-1.885,3.193-2.832,5.845-2.978,8.347
		c-0.23,3.958,1.667,7.333,5.342,9.502c3.921,2.313,7.601,2.286,10.287,2.263c1.665-0.012,2.78-0.003,3.565,0.339
		c0.702,1.918-0.774,9.199-3.992,14.647c-2.164,3.67-4.847,7.188-6.608,9.235c-1.755-1.723-4.519-4.197-8.793-6.72
		c-10.982-6.482-17.845-8.529-22.252-6.64c-2.474,1.061-6.544,3.806-6.014,10.266c0.259,3.15-0.181,5.715-1.306,7.624
		c-0.914,1.546-4.685,1.651-8.369-0.523c-1.865-1.101-3.217-2.44-3.808-3.774c-0.571-1.288-0.225-2.134,0.086-2.66
		c1.16-1.968,3.43-3.009,5.433-3.927c0.751-0.346,1.462-0.671,2.102-1.046c2.108-1.238,3.905-3.873,4.579-6.713
		c0.619-2.613,0.236-5.171-1.077-7.202c-2.883-4.459-8.919-10.468-17.215-13.958c-3.509-1.479-6.603-2.632-9.452-3.522
		c0.498-1.886,2.206-7.36,6.479-13.303c7.673-10.672,9.586-9.541,10.401-9.059c1.049,0.62,1.533,1.656,2.369,3.588
		c1.072,2.482,2.542,5.881,6.544,8.245c3.75,2.212,7.866,1.823,11.588-1.093c2.449-1.919,4.188-4.535,5.004-5.921
		c1.524-2.582,2.458-5.08,2.778-7.427c0.642-4.727-1.241-8.651-5.304-11.049c-4.769-2.815-8.664-2.624-11.241-2.496
		c-0.982,0.049-1.996,0.099-2.325-0.096c-0.994-0.586-1.257-3.89,2.091-10.588c0.931-1.862,0.176-4.125-1.686-5.056
		c-1.862-0.931-4.126-0.176-5.056,1.685c-2.878,5.759-6.599,16.072,0.82,20.45c2.274,1.342,4.533,1.231,6.527,1.133
		c2.167-0.107,4.215-0.208,7.039,1.458c1.431,0.845,1.898,1.838,1.666,3.543c-0.126,0.926-0.54,2.478-1.801,4.613
		c-0.441,0.749-1.633,2.62-3.162,3.818c-1.723,1.352-2.557,0.859-3.108,0.535c-1.801-1.063-2.456-2.426-3.458-4.744
		c-1-2.313-2.244-5.192-5.455-7.088C24.82,42.003,17.5,52.183,13.126,58.265C8.118,65.23,6.099,71.63,5.433,74.221
		c-0.151,0.46-0.255,0.938-0.31,1.432c-0.291,2.703,1.032,5.339,3.324,6.689c0.194,0.118,0.402,0.229,0.653,0.348
		c0.468,0.217,0.961,0.381,1.47,0.488c2.603,0.816,5.458,1.883,8.723,3.259c6.724,2.829,11.642,7.75,13.81,11.104
		c0.553,0.854-0.368,2.878-0.986,3.321c-0.311,0.182-0.855,0.431-1.431,0.695c-2.558,1.173-6.422,2.945-8.782,6.948
		c-1.738,2.941-1.91,6.331-0.485,9.546c1.24,2.796,3.615,5.289,6.867,7.209c3.12,1.842,6.358,2.739,9.306,2.739
		c4.015,0,7.49-1.665,9.385-4.876c1.934-3.277,2.717-7.339,2.327-12.071c-0.13-1.585,0.187-2.17,1.473-2.721
		c0.118-0.049,3.021-1.134,15.451,6.203c3.771,2.226,6.133,4.398,7.582,5.842l0.565,0.552c0.315,0.271,0.648,0.51,0.978,0.703
		c2.659,1.574,6.078,1.182,8.308-0.948c0.251-0.237,0.474-0.48,0.675-0.739c1.971-2.257,5.111-6.339,7.616-10.585
		c2.073-3.511,3.868-8.286,4.685-12.459c1.529-7.819-0.842-11.049-3.101-12.382c-2.633-1.554-5.324-1.531-7.709-1.514
		c-2.292,0.018-4.273,0.035-6.396-1.217c-1.604-0.947-1.693-1.79-1.648-2.573c0.071-1.223,0.725-2.89,1.942-4.953l0.155-0.263
		c1.048-1.778,2.236-3.794,3.505-4.793c0.552-0.437,1.125-0.887,2.728,0.06c1.957,1.154,2.388,2.296,3.102,4.186
		c0.791,2.096,1.874,4.967,5.373,7.031c6.473,3.82,14.76-0.291,20.625-10.227c3.014-5.105,7.291-16.106,7.327-16.207l0.062-0.184
		C123.559,50.782,122.285,47.482,119.494,45.833"/>
</g>
</svg>
