<?xml version="1.0" encoding="utf-8"?>
<!-- Generator: Adobe Illustrator 15.0.0, SVG Export Plug-In . SVG Version: 6.00 Build 0)  -->
<!DOCTYPE svg PUBLIC "-//W3C//DTD SVG 1.1//EN" "http://www.w3.org/Graphics/SVG/1.1/DTD/svg11.dtd">
<svg version="1.1" id="Layer_1" xmlns="http://www.w3.org/2000/svg" xmlns:xlink="http://www.w3.org/1999/xlink" x="0px" y="0px"
	 width="128px" height="128px" viewBox="0 0 128 128" enable-background="new 0 0 128 128" xml:space="preserve">
<g>
	<path fill="#FFFFFF" d="M76.137,77.322c-0.599,0.988-0.282,2.275,0.706,2.874l8.756,5.3c0.331,0.201,0.707,0.304,1.084,0.304
		c0.239,0,0.479-0.041,0.71-0.124c0.594-0.214,1.061-0.684,1.268-1.28l3.368-9.664c0.381-1.092-0.195-2.286-1.287-2.666
		c-1.092-0.382-2.285,0.196-2.665,1.287l-1.113,3.191c-6.744-12.041-19.028-20.333-32.708-22.522
		c-3.462-0.555-4.948,4.735-1.459,5.294c12,1.921,22.463,8.631,28.72,18.815l-2.504-1.516
		C78.022,76.018,76.735,76.333,76.137,77.322"/>
	<path fill="#FFFFFF" d="M48.705,44.872c0-9.69-7.884-17.573-17.575-17.573c-9.69,0-17.574,7.883-17.574,17.573
		c0,9.691,7.884,17.575,17.574,17.575C40.821,62.447,48.705,54.562,48.705,44.872 M20.998,44.872c0-5.586,4.545-10.13,10.132-10.13
		s10.132,4.544,10.132,10.13c0,5.587-4.545,10.132-10.132,10.132S20.998,50.458,20.998,44.872"/>
	<path fill="#FFFFFF" d="M96.869,91.229c-9.69,0-17.573,7.883-17.573,17.572c0,9.691,7.883,17.576,17.573,17.576
		c9.691,0,17.575-7.885,17.575-17.576C114.444,99.112,106.561,91.229,96.869,91.229 M96.869,118.936
		c-5.586,0-10.131-4.546-10.131-10.134c0-5.585,4.545-10.131,10.131-10.131c5.588,0,10.132,4.546,10.132,10.131
		C107.001,114.39,102.457,118.936,96.869,118.936"/>
	<path fill="#FFFFFF" d="M37.692,14.861l11.039,2.448c0.168,0.038,0.337,0.056,0.503,0.056c1.061,0,2.017-0.733,2.256-1.812
		c0.276-1.247-0.51-2.482-1.757-2.758l-3.602-0.8c9.841-5.485,24.248-4.518,31.766,4.385c2.527,2.992,6.795-1.321,4.289-4.289
		C73.136,1.375,55.477-0.074,43.517,6.494l1.468-3.223C45.514,2.109,45,0.737,43.838,0.208c-1.161-0.529-2.534-0.016-3.062,1.146
		l-4.687,10.289c-0.29,0.635-0.276,1.367,0.035,1.992C36.435,14.26,37.012,14.71,37.692,14.861"/>
	<path fill="#FFFFFF" d="M73.187,120.03c-8.272,5.521-20.214,1.923-26.125-5.492l3.12,0.34c1.108,0.125,2.091-0.677,2.21-1.778
		c0.12-1.101-0.676-2.091-1.778-2.21l-9.353-1.019c-0.604-0.064-1.201,0.144-1.63,0.571c-0.43,0.426-0.644,1.023-0.583,1.625
		l1.027,10.174c0.104,1.034,0.976,1.805,1.993,1.805c0.067,0,0.135-0.004,0.203-0.01c1.102-0.111,1.906-1.096,1.795-2.197
		l-0.321-3.179c7.805,8.646,21.873,12.738,32.096,5.913C78.647,122.7,76.018,118.142,73.187,120.03"/>
	<path fill="#FFFFFF" d="M45.192,101.496c0.721,0.561,1.574,0.831,2.421,0.831c1.18,0,2.346-0.525,3.125-1.529
		c1.339-1.726,1.027-4.209-0.698-5.548l-8.406-6.525l6.525-8.404c1.339-1.727,1.026-4.209-0.699-5.549
		c-1.726-1.339-4.209-1.026-5.547,0.699l-6.526,8.406l-8.406-6.525c-1.726-1.34-4.209-1.026-5.548,0.699
		c-1.338,1.726-1.025,4.209,0.7,5.548l8.406,6.524l-6.525,8.405c-1.339,1.726-1.026,4.209,0.699,5.548
		c0.721,0.561,1.575,0.831,2.422,0.831c1.18,0,2.347-0.525,3.126-1.529l6.525-8.406L45.192,101.496z"/>
	<path fill="#FFFFFF" d="M82.543,28.295c-1.625-1.457-4.125-1.322-5.583,0.304c-1.457,1.626-1.321,4.126,0.305,5.583l7.921,7.104
		l-7.104,7.922c-1.458,1.625-1.322,4.125,0.304,5.583c0.755,0.677,1.698,1.01,2.638,1.01c1.085,0,2.164-0.443,2.945-1.314
		l7.105-7.922l7.922,7.104c0.755,0.676,1.698,1.009,2.639,1.009c1.084,0,2.163-0.443,2.944-1.314
		c1.458-1.625,1.322-4.125-0.304-5.583l-7.922-7.104l7.104-7.921c1.458-1.626,1.321-4.126-0.304-5.583
		c-1.626-1.458-4.125-1.322-5.583,0.304l-7.104,7.922L82.543,28.295z"/>
</g>
</svg>
