<?xml version="1.0" encoding="utf-8"?>
<!-- Generator: Adobe Illustrator 15.0.0, SVG Export Plug-In . SVG Version: 6.00 Build 0)  -->
<!DOCTYPE svg PUBLIC "-//W3C//DTD SVG 1.1//EN" "http://www.w3.org/Graphics/SVG/1.1/DTD/svg11.dtd">
<svg version="1.1" id="Layer_1" xmlns="http://www.w3.org/2000/svg" xmlns:xlink="http://www.w3.org/1999/xlink" x="0px" y="0px"
	 width="128px" height="128px" viewBox="0 0 128 128" enable-background="new 0 0 128 128" xml:space="preserve">
<g>
	<path fill="#FFFFFF" d="M126.694,59.565c-0.456-0.455-1.663-1.496-6.861-5.265c-1.75-1.27-3.654-1.887-5.817-1.887h-0.024
		c-1.493,0.002-47.295,0.039-50.536,0.041c-1.379,0.001-2.498,1.12-2.498,2.5c0.001,1.38,1.12,2.498,2.499,2.498h0.001
		c3.241-0.002,49.046-0.039,50.541-0.041h0.015c1.118,0,1.983,0.28,2.886,0.935c3.15,2.284,4.731,3.493,5.521,4.126
		c-2.061,1.796-8.95,8.517-9.473,9.041l-0.058,0.061c-0.093,0.095-0.172,0.177-0.485,0.177c-0.741,0.002-2.948,0.007-4.136,0.011
		l-5.818-3.979c-1.111-0.761-2.625-0.504-3.424,0.582l-4.635,6.3l-2.049,0.011l-7.67-6.816c-1.02-0.906-2.58-0.828-3.503,0.18
		l-5.638,6.153l-5.131-3.984c-0.438-0.34-0.977-0.525-1.532-0.525h-0.002l-8.7,0.007c-0.663,0-1.298,0.264-1.766,0.733
		c-0.468,0.469-0.731,1.104-0.731,1.768l0.003,4.018l-4.747-2.735c-0.614-0.354-1.347-0.431-2.018-0.213
		c-0.673,0.218-1.221,0.711-1.511,1.355c-1.641,3.662-4.136,6.879-7.214,9.3c-4.026,3.166-8.813,4.842-13.841,4.846h-0.019
		c-6.198,0-12.033-2.554-16.434-7.189c-4.439-4.679-6.887-10.912-6.893-17.552C4.987,50.368,15.443,39.254,28.303,39.24h0.014
		c7.847,0,15.175,4.268,19.459,11.109l-4.323-1.242c-1.105-0.319-2.259,0.318-2.578,1.424c-0.318,1.104,0.321,2.259,1.426,2.577
		l10.424,2.993c0.592,0.17,1.229,0.068,1.738-0.276c0.509-0.344,0.842-0.896,0.906-1.509l1.124-10.852
		c0.049-0.478-0.067-0.935-0.306-1.313c-0.328-0.525-0.888-0.901-1.554-0.97c-1.145-0.116-2.166,0.717-2.284,1.86l-0.46,4.462
		c-5.206-8.172-14.066-13.262-23.573-13.262h-0.017C12.682,34.259-0.013,47.617,0,64.022c0.007,7.924,2.942,15.377,8.266,20.987
		c5.354,5.642,12.476,8.748,20.059,8.748h0.023c6.158-0.006,12.011-2.051,16.926-5.915c3.002-2.361,5.542-5.343,7.445-8.724
		l3.203,1.846c0.025,0.017,0.051,0.031,0.077,0.047l0.345,0.198c0.11,0.064,0.226,0.119,0.345,0.165
		c0.524,0.213,1.073,0.321,1.638,0.321c2.399-0.004,4.349-1.959,4.347-4.355l-0.002-2.657l5.344-0.004l6.271,4.871
		c1.029,0.798,2.497,0.673,3.375-0.285l5.532-6.037l6.546,5.817c0.458,0.407,1.049,0.631,1.66,0.631h0.012l4.262-0.021
		c0.79-0.004,1.532-0.381,2.001-1.019l3.948-5.367l4.466,3.055c0.418,0.285,0.896,0.426,1.418,0.437c0,0,3.878-0.012,4.907-0.013
		c1.107-0.001,2.714-0.298,4.08-1.712c0.913-0.917,8.1-7.892,9.381-8.941c0.872-0.716,2.04-1.856,2.121-3.494
		C128.05,61.504,127.613,60.483,126.694,59.565"/>
	<path fill="#FFFFFF" d="M16.07,55.489c-2.218,0.001-4.295,0.906-5.848,2.55c-1.518,1.604-2.353,3.728-2.351,5.979
		c0.002,2.251,0.84,4.374,2.361,5.977c1.554,1.637,3.627,2.538,5.84,2.538h0.013c2.217-0.002,4.292-0.906,5.845-2.548
		c1.519-1.604,2.354-3.729,2.352-5.981c-0.005-4.696-3.685-8.514-8.204-8.514H16.07z M19.284,64.007
		c0,0.968-0.349,1.872-0.985,2.544c-0.6,0.635-1.388,0.984-2.218,0.984h-0.009c-0.829,0-1.614-0.349-2.214-0.981
		c-0.637-0.671-0.988-1.572-0.989-2.54c-0.001-0.967,0.349-1.869,0.984-2.542c0.601-0.635,1.389-0.984,2.22-0.984h0.003
		C17.844,60.487,19.282,62.066,19.284,64.007"/>
</g>
</svg>
