<?xml version="1.0" encoding="utf-8"?>
<!-- Generator: Adobe Illustrator 15.0.0, SVG Export Plug-In . SVG Version: 6.00 Build 0)  -->
<!DOCTYPE svg PUBLIC "-//W3C//DTD SVG 1.1//EN" "http://www.w3.org/Graphics/SVG/1.1/DTD/svg11.dtd">
<svg version="1.1" id="Layer_1" xmlns="http://www.w3.org/2000/svg" xmlns:xlink="http://www.w3.org/1999/xlink" x="0px" y="0px"
	 width="128px" height="128px" viewBox="0 0 128 128" enable-background="new 0 0 128 128" xml:space="preserve">
<path fill="#FFFFFF" d="M125.009,23.837l-6.896-20.624c-0.45-1.346-1.484-2.417-2.814-2.915c-1.329-0.497-2.812-0.367-4.035,0.352
	L92.52,11.681c-2.24,1.319-2.986,4.204-1.668,6.443c1.318,2.241,4.204,2.987,6.443,1.668l7.327-4.313l-20.223,47.31L73.783,43.596
	c-0.874-1.58-2.575-2.526-4.377-2.421c-1.803,0.099-3.39,1.221-4.085,2.887L47.009,87.954l-10.681-23.54
	c-0.763-1.682-2.44-2.761-4.286-2.761c-0.014,0-0.028,0-0.043,0c-1.862,0.017-3.54,1.13-4.277,2.84L3.134,121.427
	c-1.031,2.386,0.069,5.156,2.455,6.187C6.197,127.876,6.83,128,7.453,128c1.821,0,3.555-1.062,4.323-2.842l20.374-47.174
	l10.755,23.703c0.773,1.706,2.504,2.782,4.358,2.761c1.873-0.028,3.55-1.165,4.271-2.893L70.26,56.672l10.564,19.099
	c0.871,1.573,2.558,2.516,4.356,2.423c1.796-0.092,3.383-1.197,4.089-2.85l24.147-56.492l2.664,7.969
	c0.659,1.97,2.494,3.216,4.464,3.215c0.494,0,0.997-0.078,1.492-0.244C124.502,28.969,125.832,26.301,125.009,23.837"/>
</svg>
