<?xml version="1.0" encoding="utf-8"?>
<!-- Generator: Adobe Illustrator 15.0.0, SVG Export Plug-In . SVG Version: 6.00 Build 0)  -->
<!DOCTYPE svg PUBLIC "-//W3C//DTD SVG 1.1//EN" "http://www.w3.org/Graphics/SVG/1.1/DTD/svg11.dtd">
<svg version="1.1" id="Layer_1" xmlns="http://www.w3.org/2000/svg" xmlns:xlink="http://www.w3.org/1999/xlink" x="0px" y="0px"
	 width="128px" height="128px" viewBox="0 0 128 128" enable-background="new 0 0 128 128" xml:space="preserve">
<g>
	<path fill="#FFFFFF" d="M90.601,34.018c-6.212-3.428-13.727-4.793-20.102-3.652l-0.29,0.052c-6.376,1.14-12.952,5.023-17.59,10.391
		c-5.362,6.204-7.594,13.654-6.284,20.979c0.419,2.345,1.143,4.679,2.152,6.942c0.65,1.458,2.361,2.113,3.818,1.462
		c1.458-0.65,2.113-2.359,1.463-3.817c-0.818-1.834-1.404-3.72-1.741-5.604c-0.997-5.575,0.767-11.321,4.967-16.181
		c3.742-4.33,9.196-7.579,14.233-8.479l0.289-0.052c5.04-0.901,11.278,0.258,16.29,3.023c5.623,3.103,9.27,7.882,10.266,13.458
		c1.46,8.166-1.727,15.832-4.828,22.375c-0.684,1.442-0.068,3.167,1.375,3.851c0.399,0.189,0.82,0.279,1.235,0.279
		c1.082,0,2.121-0.61,2.614-1.653c2.518-5.312,7.204-15.198,5.296-25.869C102.455,44.196,97.779,37.979,90.601,34.018"/>
	<path fill="#FFFFFF" d="M75.385,113.071l18.731-3.38c0.893-0.161,1.486-1.016,1.325-1.909c-0.16-0.893-1.019-1.487-1.908-1.325
		l-18.731,3.38c-0.894,0.161-1.486,1.016-1.325,1.909c0.143,0.794,0.835,1.352,1.614,1.352
		C75.188,113.098,75.287,113.089,75.385,113.071"/>
	<path fill="#FFFFFF" d="M76.282,118.48l18.732-3.379c0.893-0.161,1.485-1.015,1.325-1.908c-0.161-0.893-1.019-1.487-1.909-1.325
		l-18.731,3.378c-0.894,0.161-1.487,1.016-1.326,1.909c0.144,0.794,0.835,1.352,1.615,1.352
		C76.086,118.507,76.184,118.498,76.282,118.48"/>
	<path fill="#FFFFFF" d="M95.263,117.406l-18.732,3.379c-0.893,0.161-1.486,1.016-1.325,1.908c0.144,0.795,0.835,1.352,1.615,1.352
		c0.097,0,0.194-0.009,0.293-0.026l3.596-0.647c0.386,1.419,1.247,2.647,2.468,3.498c1.067,0.743,2.309,1.131,3.582,1.131
		c0.371,0,0.746-0.033,1.119-0.1c1.654-0.295,3.095-1.217,4.056-2.596c0.854-1.228,1.235-2.686,1.101-4.157l2.812-0.507
		c0.893-0.161,1.486-1.016,1.325-1.909C97.01,117.839,96.156,117.244,95.263,117.406 M89.237,123.426
		c-0.459,0.658-1.146,1.099-1.937,1.239c-0.788,0.141-1.587-0.033-2.245-0.492c-0.501-0.349-0.875-0.831-1.088-1.39l5.808-1.048
		C89.771,122.337,89.588,122.922,89.237,123.426"/>
	<path fill="#FFFFFF" d="M46.079,95.788L27.484,91.72c-0.885-0.194-1.762,0.367-1.957,1.253c-0.193,0.887,0.367,1.763,1.254,1.957
		l18.594,4.068c0.119,0.026,0.237,0.038,0.353,0.038c0.756,0,1.436-0.523,1.604-1.292C47.526,96.857,46.965,95.981,46.079,95.788"/>
	<path fill="#FFFFFF" d="M45.014,101.162L26.42,97.093c-0.885-0.194-1.762,0.368-1.957,1.254c-0.193,0.887,0.367,1.763,1.254,1.957
		l18.594,4.068c0.119,0.025,0.237,0.038,0.353,0.038c0.755,0,1.436-0.523,1.604-1.292C46.461,102.231,45.901,101.356,45.014,101.162
		"/>
	<path fill="#FFFFFF" d="M44.009,106.667l-18.595-4.068c-0.887-0.193-1.763,0.367-1.957,1.254c-0.193,0.886,0.368,1.763,1.254,1.956
		l2.865,0.627c-0.157,1.428,0.174,2.854,0.962,4.079c0.909,1.413,2.315,2.387,3.956,2.741c0.449,0.098,0.901,0.146,1.351,0.146
		c1.191,0,2.36-0.341,3.387-1.001c1.219-0.783,2.109-1.938,2.56-3.293l3.515,0.769c0.119,0.026,0.237,0.039,0.353,0.039
		c0.755,0,1.436-0.524,1.604-1.292C45.457,107.736,44.896,106.861,44.009,106.667 M35.455,109.637
		c-0.674,0.434-1.478,0.58-2.263,0.407c-0.784-0.169-1.455-0.634-1.889-1.309c-0.311-0.481-0.47-1.029-0.475-1.589l5.709,1.249
		C36.3,108.898,35.934,109.329,35.455,109.637"/>
	<path fill="#FFFFFF" d="M60.996,71.365c5.623-5.187,13.324-12.289,15.531-22.986c0.601-2.904,0.646-5.854,0.134-8.768
		c-0.276-1.573-1.772-2.624-3.348-2.349c-1.572,0.276-2.624,1.775-2.348,3.348c0.385,2.193,0.351,4.413-0.101,6.6
		c-1.833,8.876-8.744,15.25-13.789,19.904c-2.583,2.382-4.622,4.264-5.776,6.169c-3.202,5.287-4.375,11.359-4.493,11.998
		c-0.111,0.541-0.328,1.579-0.533,2.224l-16.138-3.629c-1.558-0.351-3.104,0.629-3.455,2.187s0.628,3.105,2.187,3.455L45.2,93.189
		l0.05,0.012c0.564,0.116,1.082,0.17,1.557,0.17c4.234,0,5.12-4.286,5.67-6.955l0.016-0.078c0.009-0.055,1.015-5.537,3.753-10.059
		C56.976,75.072,58.928,73.271,60.996,71.365"/>
	<path fill="#FFFFFF" d="M19.045,29.261c0.284-0.606,0.022-1.328-0.583-1.611l-9.218-4.31c-0.607-0.283-1.327-0.021-1.61,0.585
		c-0.283,0.606-0.022,1.327,0.584,1.61l9.217,4.309c0.166,0.078,0.34,0.115,0.513,0.115C18.403,29.96,18.84,29.701,19.045,29.261"/>
	<path fill="#FFFFFF" d="M24.427,18.713c0.239,0.3,0.592,0.456,0.948,0.456c0.265,0,0.532-0.087,0.755-0.265
		c0.523-0.418,0.608-1.181,0.19-1.704l-6.349-7.949c-0.417-0.522-1.18-0.608-1.704-0.19c-0.522,0.417-0.608,1.18-0.19,1.703
		L24.427,18.713z"/>
	<path fill="#FFFFFF" d="M33.812,12.9c0.15,0.535,0.637,0.886,1.167,0.886c0.108,0,0.218-0.015,0.327-0.045
		c0.645-0.18,1.021-0.849,0.84-1.493l-2.742-9.799c-0.179-0.645-0.847-1.021-1.493-0.841c-0.645,0.18-1.021,0.849-0.84,1.494
		L33.812,12.9z"/>
	<path fill="#FFFFFF" d="M47.74,12.592c0.014,0,0.028,0,0.042,0c0.65,0,1.188-0.516,1.21-1.171l0.342-10.168
		c0.022-0.669-0.501-1.229-1.17-1.252c-0.659-0.021-1.229,0.501-1.252,1.17L46.57,11.34C46.547,12.009,47.072,12.569,47.74,12.592"
		/>
	<path fill="#FFFFFF" d="M119.245,53.102l-10.173,0.196c-0.668,0.013-1.2,0.566-1.188,1.235c0.013,0.661,0.553,1.188,1.211,1.188
		h0.024l10.173-0.196c0.668-0.013,1.2-0.566,1.188-1.235C120.467,53.621,119.922,53.09,119.245,53.102"/>
	<path fill="#FFFFFF" d="M116.795,36.389c-0.309-0.594-1.04-0.825-1.634-0.517l-9.031,4.689c-0.594,0.308-0.825,1.04-0.517,1.633
		c0.216,0.416,0.638,0.653,1.076,0.653c0.188,0,0.379-0.043,0.558-0.136l9.03-4.689C116.871,37.714,117.104,36.983,116.795,36.389"
		/>
	<path fill="#FFFFFF" d="M100.095,34.028c0.35,0,0.695-0.15,0.935-0.44l6.484-7.843c0.426-0.516,0.354-1.28-0.163-1.706
		c-0.515-0.426-1.278-0.354-1.705,0.162l-6.483,7.843c-0.427,0.516-0.354,1.279,0.162,1.707
		C99.55,33.937,99.823,34.028,100.095,34.028"/>
	<path fill="#FFFFFF" d="M88.425,27.653c0.149,0.061,0.303,0.089,0.455,0.089c0.479,0,0.932-0.286,1.123-0.758l3.814-9.432
		c0.251-0.621-0.048-1.327-0.669-1.578c-0.62-0.251-1.326,0.048-1.577,0.669l-3.814,9.432
		C87.506,26.696,87.805,27.402,88.425,27.653"/>
	<path fill="#FFFFFF" d="M93.185,83.067c-0.415-0.384-0.966-0.581-1.531-0.547c-0.564,0.035-1.09,0.299-1.452,0.731l-5.991,7.111
		c-0.736,0.872-0.626,2.175,0.246,2.91c0.388,0.327,0.86,0.486,1.331,0.486c0.588,0,1.171-0.25,1.579-0.733l2.034-2.413
		c0,2.123,0.238,4.439,0.444,6.033l0.021,0.14c0.096,0.535,0.288,1.612,0.338,2.301l-14.666,2.622
		c-0.188-0.649-0.377-1.697-0.475-2.242c-0.101-0.642-1.113-6.742-4.174-12.111c-1.103-1.935-3.09-3.869-5.605-6.316
		c-1.196-1.163-2.432-2.366-3.694-3.688c-1.103-1.154-2.932-1.197-4.088-0.095c-1.155,1.104-1.197,2.933-0.095,4.088
		c1.336,1.399,2.669,2.695,3.844,3.839c2.015,1.96,3.918,3.812,4.615,5.035c2.617,4.593,3.478,10.1,3.485,10.151l0.014,0.081
		c0.485,2.72,1.27,7.108,5.655,7.108c0.428,0,0.889-0.042,1.389-0.131l14.961-2.676c5.569-1,4.735-5.922,4.2-8.913
		c-0.235-1.86-0.372-3.842-0.385-5.288l2.642,2.446c0.838,0.775,2.145,0.725,2.919-0.113c0.774-0.837,0.724-2.144-0.112-2.918
		L93.185,83.067z"/>
	<path fill="#FFFFFF" d="M30.999,79.574c0.095,0,0.192-0.007,0.287-0.02c0.567-0.08,1.076-0.392,1.405-0.862l5.301-7.571
		c0.654-0.935,0.428-2.222-0.506-2.876c-0.933-0.655-2.222-0.428-2.876,0.506l-1.727,2.466c-0.046-0.606-0.108-1.199-0.187-1.772
		c-0.305-2.207-1.434-4.742-2.861-7.952c-2.791-6.271-6.613-14.859-4.781-23.736c1.145-5.547,4.917-10.228,10.621-13.18
		c5.083-2.631,11.352-3.623,16.372-2.586l0.28,0.057c4.332,0.895,8.848,3.47,12.393,7.067c1.122,1.137,2.952,1.15,4.089,0.029
		s1.15-2.951,0.029-4.088c-4.328-4.39-9.918-7.55-15.351-8.673l-0.281-0.057c-6.342-1.309-13.891-0.144-20.19,3.116
		c-7.282,3.77-12.122,9.859-13.626,17.147c-2.207,10.696,2.052,20.267,5.162,27.255c1.144,2.569,2.223,4.996,2.417,6.394
		c0.066,0.471,0.116,0.962,0.153,1.467l-2.56-2.076c-0.887-0.719-2.188-0.581-2.905,0.304c-0.718,0.886-0.583,2.187,0.303,2.905
		l7.738,6.275C30.068,79.413,30.528,79.574,30.999,79.574"/>
</g>
</svg>
