<?xml version="1.0" encoding="utf-8"?>
<!-- Generator: Adobe Illustrator 15.0.0, SVG Export Plug-In . SVG Version: 6.00 Build 0)  -->
<!DOCTYPE svg PUBLIC "-//W3C//DTD SVG 1.1//EN" "http://www.w3.org/Graphics/SVG/1.1/DTD/svg11.dtd">
<svg version="1.1" id="Layer_1" xmlns="http://www.w3.org/2000/svg" xmlns:xlink="http://www.w3.org/1999/xlink" x="0px" y="0px"
	 width="180px" height="56.485px" viewBox="0 0 180 56.485" enable-background="new 0 0 180 56.485" xml:space="preserve">
<g>
	<path fill="#EF4640" d="M49.923,5.593c-0.147-0.5-0.499-0.914-0.968-1.14L40.08,0.182c-0.918-0.44-2.02-0.054-2.461,0.863
		c-0.441,0.917-0.055,2.019,0.863,2.46l4.657,2.242c-11.012,2.697-20.307,7.757-27.631,15.064
		c-6.55,6.536-11.731,15.086-15.4,25.414c-0.342,0.959,0.16,2.013,1.119,2.354c0.205,0.073,0.412,0.106,0.618,0.106
		c0.758,0,1.469-0.471,1.737-1.226c7.396-20.82,20.639-33.3,40.455-38.138l-2.588,4.236c-0.531,0.869-0.257,2.003,0.611,2.534
		c0.3,0.184,0.632,0.271,0.96,0.271c0.621,0,1.227-0.313,1.574-0.882l5.134-8.404C50,6.63,50.07,6.092,49.923,5.593"/>
	<path fill="#433B46" d="M31.985,37.127h-4.451v10.169c0,0.904-0.688,1.375-1.375,1.375c-0.688,0-1.375-0.471-1.375-1.375V24.823
		c0-0.724,0.651-1.375,1.375-1.375h5.826c3.8,0,6.876,3.003,6.876,6.804C38.861,34.051,35.785,37.127,31.985,37.127 M31.985,26.198
		h-4.451v8.178h4.451c2.28,0,4.126-1.846,4.126-4.125C36.111,28.007,34.265,26.198,31.985,26.198"/>
	<path fill="#433B46" d="M49.174,34.811c-0.362,0-0.76-0.145-1.122-0.506c-0.29-0.29-0.76-0.76-1.665-0.76
		c-2.135,0-2.424,1.23-2.424,2.424v11.255c0,0.977-0.688,1.447-1.375,1.447s-1.375-0.471-1.375-1.447V32.169
		c0-0.869,0.724-1.375,1.411-1.375c0.47,0,0.941,0.217,1.194,0.724c0,0,0.724-0.724,2.605-0.724c1.375,0,2.895,0.506,3.764,1.773
		c0.253,0.361,0.326,0.651,0.326,0.94C50.513,34.269,49.898,34.811,49.174,34.811"/>
	<path fill="#433B46" d="M57.931,48.671h-0.362c-3.221,0-5.826-2.605-5.826-5.826v-6.224c0-3.222,2.605-5.827,5.826-5.827h0.362
		c3.221,0,5.827,2.605,5.827,5.827v6.224C63.758,46.065,61.152,48.671,57.931,48.671 M61.007,36.621
		c0-1.701-1.375-3.076-3.076-3.076h-0.362c-1.701,0-3.076,1.375-3.076,3.076v6.224c0,1.7,1.375,3.075,3.113,3.075h0.325
		c1.701,0,3.076-1.375,3.076-3.075V36.621z"/>
	<path fill="#433B46" d="M66.543,56.271c-0.904,0-1.375-0.688-1.375-1.374c0-0.688,0.471-1.377,1.375-1.377
		c1.049,0,1.448-0.687,1.448-1.664V32.169c0-0.904,0.688-1.375,1.375-1.375c0.687,0,1.375,0.471,1.375,1.375v19.867
		C70.741,55.33,69.221,56.271,66.543,56.271 M69.366,26.777c-0.688,0-1.375-0.47-1.375-1.375v-0.795
		c0-0.905,0.688-1.375,1.375-1.375c0.687,0,1.375,0.471,1.375,1.375v0.795C70.741,26.307,70.053,26.777,69.366,26.777"/>
	<path fill="#433B46" d="M84.24,40.999h-7.89v1.846c0,1.7,1.375,3.075,3.077,3.075h0.361c1.412,0,2.353-0.831,2.823-1.846
		c0.253-0.614,0.723-0.868,1.194-0.868c0.724,0,1.412,0.615,1.412,1.412c0,0.181-0.037,0.397-0.145,0.615
		c-0.869,2.026-2.859,3.438-5.284,3.438h-0.361c-3.221,0-5.827-2.605-5.827-5.826v-6.224c0-3.221,2.606-5.827,5.827-5.827h0.361
		c3.221,0,5.826,2.497,5.826,5.862v2.968C85.614,40.348,84.999,40.999,84.24,40.999 M82.864,36.656c0-1.772-1.448-3.111-3.04-3.111
		h-0.362c-1.701,0-3.112,1.375-3.112,3.076v1.809h6.514V36.656z"/>
	<path fill="#433B46" d="M94.335,48.671h-0.362c-3.221,0-5.826-2.605-5.826-5.826v-6.224c0-3.258,2.641-5.827,5.826-5.827h0.362
		c3.185,0,5.827,2.606,5.827,5.827c0,0.904-0.688,1.374-1.376,1.374c-0.651,0-1.338-0.435-1.375-1.339
		c-0.072-1.846-1.375-3.111-3.076-3.111h-0.362c-1.701,0-3.075,1.375-3.075,3.076v6.224c0,1.7,1.374,3.075,3.112,3.075h0.325
		c1.701,0,3.004-1.375,3.076-3.075c0.037-0.94,0.724-1.411,1.375-1.411c0.688,0,1.376,0.471,1.376,1.411
		C100.162,46.065,97.557,48.671,94.335,48.671"/>
	<path fill="#433B46" d="M108.991,48.671c-2.643,0-4.741-2.135-4.741-4.776V33.653h-1.267c-0.904,0-1.375-0.688-1.375-1.376
		c0-0.687,0.471-1.375,1.375-1.375h1.267v-6.297c0-0.905,0.688-1.375,1.376-1.375c0.687,0,1.374,0.47,1.374,1.375v6.297h1.955
		c0.904,0,1.375,0.688,1.375,1.375c0,0.688-0.471,1.376-1.375,1.376H107v10.205c0,1.267,0.977,1.99,2.1,2.062
		c0.868,0.037,1.267,0.725,1.267,1.376C110.366,47.983,109.933,48.671,108.991,48.671"/>
	<path fill="#433B46" d="M134.187,48.667h-9.879c-0.724,0-1.375-0.651-1.375-1.375V24.819c0-0.904,0.687-1.375,1.375-1.375
		c0.688,0,1.375,0.471,1.375,1.375v21.098h8.504c0.905,0,1.376,0.688,1.376,1.375C135.562,47.98,135.092,48.667,134.187,48.667"/>
	<path fill="#433B46" d="M147.794,41.213h-7.891v1.846c0,1.701,1.376,3.076,3.077,3.076h0.361c1.411,0,2.352-0.833,2.823-1.846
		c0.254-0.615,0.723-0.868,1.193-0.868c0.725,0,1.412,0.615,1.412,1.41c0,0.182-0.037,0.399-0.145,0.615
		c-0.869,2.027-2.859,3.438-5.284,3.438h-0.361c-3.222,0-5.827-2.605-5.827-5.826v-6.225c0-3.221,2.605-5.826,5.827-5.826h0.361
		c3.222,0,5.827,2.497,5.827,5.863v2.967C149.169,40.561,148.554,41.213,147.794,41.213 M146.419,36.871
		c0-1.774-1.448-3.113-3.04-3.113h-0.362c-1.701,0-3.113,1.375-3.113,3.076v1.81h6.516V36.871z"/>
	<path fill="#433B46" d="M163.932,48.885c-0.071,0-0.18,0-0.252-0.036c-1.231-0.182-1.991-0.724-2.462-1.412
		c-1.049,0.905-2.424,1.448-3.908,1.448h-0.325c-2.932,0-5.827-1.846-5.827-5.211v-0.435c0.254-5.718,8.288-4.704,9.156-5.935
		c0.109-0.145,0.109-0.435,0.109-0.615c0-2.135-1.34-2.932-2.932-2.932h-0.254c-1.483,0-2.243,0.615-2.931,1.81
		c-0.289,0.507-0.76,0.723-1.23,0.723c-0.688,0-1.375-0.506-1.375-1.266c0-0.218,0.036-0.434,0.145-0.651
		c1.158-2.605,3.474-3.365,5.392-3.365h0.254c3.221,0,5.681,2.461,5.681,5.572v8.396c0,0.652,0.291,1.086,0.941,1.194
		c0.797,0.145,1.159,0.725,1.159,1.304C165.272,48.197,164.801,48.885,163.932,48.885 M160.423,40.2
		c-2.679,0.723-6.405,0.579-6.516,3.111v0.289c0,1.557,1.231,2.534,3.077,2.534h0.325c1.702,0,3.113-1.375,3.113-3.076V40.2z"/>
	<path fill="#433B46" d="M174.137,48.885h-0.253c-1.268,0-2.533-0.434-3.148-1.086v7.311c0,0.904-0.688,1.376-1.375,1.376
		c-0.688,0-1.375-0.472-1.375-1.376V32.346c0-0.904,0.687-1.339,1.375-1.339c0.615,0,1.23,0.362,1.339,1.086
		c0.507-0.507,1.737-1.086,3.113-1.086h0.324c3.221,0,5.863,2.606,5.863,5.827v6.225C180,46.279,177.395,48.885,174.137,48.885
		 M177.249,36.834c0-1.701-1.375-3.076-3.112-3.076h-0.324c-1.63,0-3.077,1.086-3.077,2.858v6.731c0,1.665,1.447,2.787,3.077,2.787
		h0.324c1.737,0,3.112-1.375,3.112-3.076V36.834z"/>
</g>
</svg>
