<?xml version="1.0" encoding="utf-8"?>
<!-- Generator: Adobe Illustrator 15.0.0, SVG Export Plug-In . SVG Version: 6.00 Build 0)  -->
<!DOCTYPE svg PUBLIC "-//W3C//DTD SVG 1.1//EN" "http://www.w3.org/Graphics/SVG/1.1/DTD/svg11.dtd">
<svg version="1.1" id="Layer_1" xmlns="http://www.w3.org/2000/svg" xmlns:xlink="http://www.w3.org/1999/xlink" x="0px" y="0px"
	 width="128px" height="128px" viewBox="0 0 128 128" enable-background="new 0 0 128 128" xml:space="preserve">
<g>
	<path fill="#FFFFFF" d="M81.021,37.385H66.219l3.279-2.782c1.37-1.16,1.541-3.212,0.38-4.582c-1.16-1.371-3.212-1.542-4.582-0.38
		l-9.869,8.379c-0.732,0.623-1.15,1.537-1.145,2.498c0.007,0.96,0.437,1.869,1.176,2.482l10.04,8.297
		c0.605,0.5,1.338,0.743,2.066,0.743c0.938,0,1.868-0.404,2.511-1.184c1.142-1.386,0.945-3.436-0.44-4.577l-2.897-2.392h14.283
		c1.427,0,2.587,1.159,2.587,2.585v34.289c0,1.426-1.16,2.586-2.587,2.586H46.733c-1.426,0-2.587-1.16-2.587-2.586V46.473
		c0-1.796-1.456-3.251-3.251-3.251c-1.796,0-3.252,1.455-3.252,3.251v34.289c0,5.012,4.078,9.09,9.09,9.09h34.287
		c5.012,0,9.091-4.078,9.091-9.09V46.473C90.111,41.461,86.032,37.385,81.021,37.385"/>
	<path fill="#FFFFFF" d="M124.748,52.433c1.796,0,3.252-1.455,3.252-3.251c0-1.795-1.456-3.251-3.252-3.251h-12.119v-7.954h12.119
		c1.796,0,3.252-1.457,3.252-3.251c0-1.795-1.456-3.251-3.252-3.251h-12.119v-1.675c0-8.145-6.627-14.771-14.771-14.771h-1.674
		V3.252C96.184,1.456,94.728,0,92.932,0c-1.795,0-3.251,1.456-3.251,3.251v11.775h-7.953V3.252C81.728,1.456,80.271,0,78.476,0
		s-3.251,1.456-3.251,3.251v11.775h-7.954V3.252C67.271,1.456,65.814,0,64.019,0c-1.795,0-3.251,1.456-3.251,3.251v11.775h-7.954
		V3.252C52.813,1.456,51.358,0,49.562,0s-3.251,1.456-3.251,3.251v11.775h-7.955V3.252C38.356,1.456,36.9,0,35.104,0
		c-1.795,0-3.251,1.456-3.251,3.251v11.775h-1.671c-8.146,0-14.772,6.626-14.772,14.771v1.675H3.252C1.456,31.473,0,32.929,0,34.724
		c0,1.795,1.456,3.251,3.252,3.251H15.41v7.954H3.252C1.456,45.93,0,47.386,0,49.181c0,1.796,1.456,3.251,3.252,3.251H15.41v7.953
		H3.252C1.456,60.386,0,61.841,0,63.638c0,1.796,1.456,3.251,3.252,3.251H15.41v7.955H3.252C1.456,74.844,0,76.299,0,78.094
		c0,1.797,1.456,3.254,3.252,3.254H15.41v7.951H3.252C1.456,89.299,0,90.756,0,92.551s1.456,3.25,3.252,3.25H15.41v1.674
		c0,8.145,6.627,14.771,14.772,14.771h1.671v12.502c0,1.797,1.456,3.252,3.251,3.252c1.796,0,3.252-1.455,3.252-3.252v-12.502h7.955
		v12.502c0,1.797,1.455,3.252,3.251,3.252s3.251-1.455,3.251-3.252v-12.502h7.954v12.502c0,1.797,1.456,3.252,3.251,3.252
		c1.796,0,3.252-1.455,3.252-3.252v-12.502h7.954v12.502c0,1.797,1.455,3.252,3.251,3.252s3.252-1.455,3.252-3.252v-12.502h7.953
		v12.502c0,1.797,1.456,3.252,3.251,3.252c1.796,0,3.252-1.455,3.252-3.252v-12.502h1.674c8.145,0,14.771-6.627,14.771-14.771
		v-1.674h12.119c1.796,0,3.252-1.455,3.252-3.25s-1.456-3.252-3.252-3.252h-12.119v-7.951h12.119c1.796,0,3.252-1.457,3.252-3.254
		c0-1.795-1.456-3.25-3.252-3.25h-12.119v-7.955h12.119c1.796,0,3.252-1.455,3.252-3.251c0-1.796-1.456-3.252-3.252-3.252h-12.119
		v-7.953H124.748z M106.126,97.475c0,4.561-3.71,8.27-8.269,8.27H30.183c-4.561,0-8.27-3.709-8.27-8.27V29.798
		c0-4.56,3.709-8.268,8.27-8.268h67.675c4.559,0,8.269,3.708,8.269,8.268V97.475z"/>
</g>
</svg>
