<?xml version="1.0" standalone="no"?>
<!DOCTYPE svg PUBLIC "-//W3C//DTD SVG 1.1//EN" "http://www.w3.org/Graphics/SVG/1.1/DTD/svg11.dtd" >
<svg xmlns="http://www.w3.org/2000/svg">
<metadata></metadata>
<defs>
<font id="sailregular" horiz-adv-x="903" >
<font-face units-per-em="2048" ascent="1638" descent="-410" />
<missing-glyph horiz-adv-x="436" />
<glyph horiz-adv-x="2048" />
<glyph horiz-adv-x="2048" />
<glyph unicode="&#xd;" horiz-adv-x="681" />
<glyph unicode=" "  horiz-adv-x="436" />
<glyph unicode="&#x09;" horiz-adv-x="436" />
<glyph unicode="&#xa0;" horiz-adv-x="436" />
<glyph unicode="!" horiz-adv-x="417" d="M113 86q0 43 29.5 73.5t72.5 30.5t73.5 -30.5t30.5 -73.5t-30.5 -72.5t-73.5 -29.5t-72.5 29.5t-29.5 72.5zM227 256l179 1001l59 -8l-182 -999z" />
<glyph unicode="&#x22;" horiz-adv-x="591" d="M225 729q4 113 88 310.5t84 322.5h88q0 -111 -87 -325t-87 -308h-86zM492 729q4 113 88 310.5t84 322.5h88q0 -111 -87 -325t-87 -308h-86z" />
<glyph unicode="#" horiz-adv-x="1198" d="M82 125l8 51h336l68 383h-334l8 51h334l86 461h61l-86 -461h293l86 461h62l-86 -461h327l-8 -51h-328l-67 -383h325l-8 -51h-328l-75 -418h-62l76 418h-293l-76 -418h-61l76 418h-334zM487 176h291l68 383h-291z" />
<glyph unicode="$" horiz-adv-x="1447" d="M172 -64.5q0 150.5 97.5 258t242.5 107.5t215 -64.5t70 -156.5t-56.5 -164t-146.5 -72t-143 58q-49 49 -56 123q-2 20 0 24l39 -2q-2 -72 42 -117t118 -45t119 58.5t45 135.5t-53 124q-59 59 -190.5 59t-217.5 -95t-86 -229.5t111 -228.5q66 -57 134 -81.5t183 -24.5 q215 0 335 88t120 233q0 104 -52.5 184t-130 132.5t-158.5 103.5t-151 129t-92 176q-186 55 -246 232q-23 68 -22.5 141.5t24.5 153.5q45 158 152 237l22 -33q-96 -70 -137 -217q-23 -74 -22.5 -141.5t20.5 -128.5q49 -150 203 -201q-4 23 -4 70q0 227 142 382.5t368 201.5 l39 219h61l-35 -209q92 6 94 6q184 0 295 -100q94 -88 94.5 -216t-86 -221.5t-231.5 -93.5q-78 0 -131 31q-106 -80 -248 -115q41 -39 191.5 -143.5t225.5 -199.5t75 -222q0 -227 -175 -372.5t-468 -151.5l-29 -158h-61l28 160q-227 10 -352 117.5t-125 258zM717 915 q0 -166 110 -241q137 31 254 110q-94 85 -94 228q0 90 46 149.5t126 59.5q137 0 137 -150.5t-149 -284.5q45 -20 94 -20q127 0 203 83t76 194.5t-82 189.5q-100 90 -264 90t-277 -80q-180 -127 -180 -328zM1028 1012q0 -133 84 -203q61 43 102 116.5t41 145.5q0 113 -98 113 q-61 0 -95 -47t-34 -125z" />
<glyph unicode="%" horiz-adv-x="1171" d="M143 485q0 135 101.5 224.5t191.5 89.5v-37q-57 0 -103 -88t-46 -200t90 -112q61 0 125.5 72t64.5 156q0 45 -19.5 71.5t-51.5 26.5q-95 0 -95 -119h-34q0 76 36 119q39 35 90.5 35t80 -36t28.5 -97q0 -96 -83 -189.5t-208 -93.5q-72 0 -120 51.5t-48 126.5zM397 -66 l477 955l54 -21l-477 -954zM709 162q0 135 101 224t191 89v-37q-57 0 -103 -88t-46 -199.5t90 -111.5q61 0 126 71.5t65 155.5q0 45 -19.5 72t-52.5 27q-94 0 -94 -119h-35q0 76 37 119q39 35 90 34.5t79.5 -36t28.5 -97.5q0 -96 -83 -189t-207 -93q-72 0 -120 51t-48 127z " />
<glyph unicode="&#x26;" horiz-adv-x="1456" d="M113 223.5q0 149.5 93 237.5t220 123q-92 113 -92 267.5t124 275t357 120.5q178 0 273.5 -62.5t95.5 -155.5t-48.5 -190.5t-54.5 -154.5h-43q6 61 54.5 157.5t48.5 179.5t-87 136t-221.5 53t-228.5 -103t-94 -316q0 -115 29 -164q106 35 247.5 35t141.5 -82 q0 -49 -53.5 -81t-153.5 -32q-158 0 -254 76q-37 -39 -57.5 -65.5t-46 -102.5t-25.5 -182.5t90 -185.5t181 -79t164 28t121 65.5t89 89.5q51 63 90 153q-160 2 -336 64h-2l17 34q166 -61 347 -61t302 124t121 316h37q0 -205 -122 -336t-319 -141q-106 -258 -344 -344 q-92 -33 -196 -33q-219 0 -342 93.5t-123 243zM555 592q4 -10 14.5 -24.5t52.5 -39t111.5 -24.5t111.5 21.5t42 49.5q0 49 -110.5 49.5t-221.5 -32.5z" />
<glyph unicode="'" horiz-adv-x="325" d="M225 729q4 113 88 310.5t84 322.5h88q0 -111 -87 -325t-87 -308h-86z" />
<glyph unicode="(" horiz-adv-x="811" d="M143 295q0 371 240 610.5t629 239.5v-43q-45 0 -123 -8q-72 -23 -136.5 -59t-134 -108.5t-118.5 -168.5t-82 -247t-33 -335q0 -307 199 -405q49 -6 102 -7v-40q-258 0 -400.5 149.5t-142.5 421.5z" />
<glyph unicode=")" horiz-adv-x="800" d="M-57 -233q45 0 123 8q72 23 136 58.5t134 108t119 169t81.5 247t32.5 334.5q0 307 -198 406q-49 6 -103 6v41q258 0 400.5 -149.5t142.5 -422.5q0 -371 -239.5 -610t-628.5 -239v43z" />
<glyph unicode="*" horiz-adv-x="645" d="M244 1008l28 84l168 -72l-30 178l86 19l18 -191l141 127l58 -66l-152 -112l176 -57l-28 -84l-172 71l36 -178l-86 -18l-22 190l-139 -127l-60 66l154 110z" />
<glyph unicode="+" horiz-adv-x="888" d="M121 385l8 51h354l66 361h61l-65 -361h368l-8 -51h-368l-64 -348h-61l63 348h-354z" />
<glyph unicode="," horiz-adv-x="489" d="M61 -195q92 31 157 77t83 77l18 33q-18 -8 -47 -8q-61 0 -104 43t-43 104.5t43 105.5t104.5 44t105.5 -44t44 -106q0 -100 -89 -210.5t-253 -158.5z" />
<glyph unicode="-" horiz-adv-x="1017" d="M184 377l4 37h785l-4 -37h-785z" />
<glyph unicode="." horiz-adv-x="485" d="M125 131.5q0 61.5 43 105.5t104.5 44t105.5 -44t44 -105.5t-44 -104.5t-105.5 -43t-104.5 43t-43 104.5z" />
<glyph unicode="/" horiz-adv-x="638" d="M47 -66l719 1432l53 -20l-719 -1432z" />
<glyph unicode="0" horiz-adv-x="909" d="M135 276.5q0 124.5 53.5 229t131 169t159.5 101.5t146 37v-43q-102 0 -180 -153.5t-78 -344.5q0 -215 163 -215q113 0 227.5 127t114.5 281q0 82 -36.5 130t-108.5 48t-109 -47q-25 -25 -38 -64.5t-15 -68.5v-27h-41q0 119 59.5 182.5t146.5 63.5t134 -58.5t47 -158.5 q0 -164 -141 -323.5t-350 -159.5q-123 0 -204 85t-81 209.5z" />
<glyph unicode="1" horiz-adv-x="593" d="M111 0l241 694l-145 -30l-10 41l456 92l-301 -797h-241z" />
<glyph unicode="2" horiz-adv-x="819" d="M59 -8v41q78 53 318 196q147 94 188 158t41 151t-42 135t-103.5 48t-118.5 -45t-85 -83t-32 -48l-32 20q27 49 86 109q119 123 309 123q221 0 221 -191q0 -109 -94 -194.5t-328 -227.5h395l-69 -192h-654z" />
<glyph unicode="3" horiz-adv-x="761" d="M-6 -150l43 -2q0 -78 54 -112.5t132 -34.5q133 0 206 93t73 245q0 94 -30 148.5t-79 54.5l-57 -4l-12 41q78 27 117.5 44t82.5 50q76 63 76 205q0 74 -43 110.5t-92 36.5h-6q-47 0 -97.5 -36t-74 -64.5t-27.5 -38.5l-35 18q14 29 50 66t75 63q98 63 215 64 q221 0 221 -170q0 -113 -99 -200t-234 -142q233 -18 233 -234q0 -168 -142.5 -279.5t-320.5 -111.5q-229 0 -229 190z" />
<glyph unicode="4" horiz-adv-x="886" d="M12 49v41l924 768l-219 -616h166l-70 -193h-164l-133 -375l-45 4l129 371h-588zM262 242h408l174 485z" />
<glyph unicode="5" horiz-adv-x="743" d="M-8 -301q229 0 347 90t118 303q0 283 -248 283h-68l181 422h528l-70 -193h-495l-84 -196h47q197 0 293 -80t96 -209t-57.5 -219t-153.5 -142q-190 -98 -434 -98v39z" />
<glyph unicode="6" horiz-adv-x="942" d="M145 281q0 172 88.5 330.5t225.5 267t301 175t317 74.5v-41q-311 -25 -520 -202q-109 -92 -171 -250t-62 -371t176 -213q139 0 250.5 119t111.5 279q0 94 -49 145t-140 51t-155 -63l-29 28q76 76 184.5 76t168 -62.5t59.5 -154.5t-30.5 -169t-88 -147.5t-154.5 -115.5 t-216 -45q-266 0 -267 289z" />
<glyph unicode="7" horiz-adv-x="757" d="M98 457l166 340h654l-723 -1133l-37 21l579 911h-526l-76 -154z" />
<glyph unicode="8" horiz-adv-x="897" d="M115 203q0 76 34.5 140.5t82 104t96.5 68.5q94 53 118 53l11 -37q-86 -20 -133.5 -95t-47.5 -176t59.5 -152.5t127.5 -51.5h16q117 0 178.5 75t61.5 173q0 45 -28.5 90t-55.5 69.5t-88.5 71t-97 79t-68.5 89t-33 117.5q0 119 103.5 213t265.5 94q266 0 266 -202 q0 -135 -110.5 -221.5t-251.5 -118.5l-9 35q139 37 233.5 115.5t94.5 171.5t-54.5 136t-181 43t-220 -81.5t-93.5 -184.5q0 -55 30 -104t61.5 -78t92 -74t92 -73.5t62.5 -80t31 -106.5q0 -139 -101.5 -226t-253 -87t-221 67.5t-69.5 143.5z" />
<glyph unicode="9" horiz-adv-x="899" d="M-23 -287q365 94 482 181q141 104 192 229q70 170 70 397q0 125 -57.5 171t-137.5 46h-6q-145 -41 -227 -159.5t-82 -235.5q0 -141 102 -184q43 -18 82 -18.5t76 15t55.5 30t18.5 16.5l26 -31q-70 -70 -170 -70t-166.5 59.5t-66.5 182.5q0 176 134 315.5t347 139.5 q125 0 195.5 -80t70.5 -219q0 -131 -79 -289q-35 -66 -106 -146.5t-164 -149.5t-243.5 -133.5t-334.5 -105.5z" />
<glyph unicode=":" horiz-adv-x="552" d="M156 131.5q0 61.5 43 105.5t104.5 44t105.5 -44t44 -105.5t-44 -104.5t-105.5 -43t-104.5 43t-43 104.5zM238 647.5q0 61.5 43 105.5t104 44t105.5 -44t44.5 -105.5t-44.5 -104.5t-105.5 -43t-104 43t-43 104.5z" />
<glyph unicode=";" horiz-adv-x="555" d="M92 -195q92 31 156.5 77t83.5 77l18 33q-18 -8 -47 -8q-61 0 -104 43t-43 104.5t43 105.5t104.5 44t105.5 -44t44 -106q0 -100 -89.5 -210.5t-252.5 -158.5zM238 647.5q0 61.5 43 105.5t104 44t105.5 -44t44.5 -105.5t-44.5 -104.5t-105.5 -43t-104 43t-43 104.5z" />
<glyph unicode="&#x3c;" horiz-adv-x="577" d="M137 395l10 54q53 16 170 67q225 98 246 201h43q-12 -68 -92 -131q-127 -102 -330 -166q225 -88 283 -197q18 -33 18 -56.5t-4 -39.5h-43q2 10 2 20q0 127 -303 248z" />
<glyph unicode="=" horiz-adv-x="1019" d="M168 281l4 36h784l-4 -36h-784zM209 504l4 37h784l-4 -37h-784z" />
<glyph unicode="&#x3e;" horiz-adv-x="577" d="M121 127q12 68 92 131q127 102 330 166q-225 88 -285 197q-16 33 -16 56t4 40h43q-2 -11 -2 -21q0 -127 303 -247l-10 -54q-53 -16 -170 -67q-225 -98 -246 -201h-43z" />
<glyph unicode="?" horiz-adv-x="948" d="M197 817q35 180 168 302t306 122t260 -83t87 -216q0 -49 -12 -98q-27 -106 -89.5 -185t-187.5 -188t-190 -235l-50 24q63 135 235.5 275.5t225.5 312.5q8 35 8 78q0 119 -70.5 188.5t-224 69.5t-265 -106.5t-142.5 -260.5h-59zM369 86q0 43 29.5 73.5t72.5 30.5 t73.5 -30.5t30.5 -73.5t-30.5 -72.5t-73.5 -29.5t-72.5 29.5t-29.5 72.5z" />
<glyph unicode="@" horiz-adv-x="1312" d="M170 397q0 371 239.5 610.5t628.5 239.5q340 0 340 -266q0 -104 -109.5 -315t-109.5 -322q0 -80 58 -80q43 2 71 39l21 -16q-41 -51 -107 -51q-154 0 -164 149q-31 -78 -78 -113.5t-132 -35.5t-141 56t-56 161q0 160 77.5 251t204.5 91q164 0 205 -86q25 -55 25 -131 t-10 -148q16 109 67 206t91 177t40 166q0 225 -293 225q-170 0 -298 -82t-195 -217q-133 -258 -133 -577q0 -221 96 -341t239.5 -120t270.5 84l18 -43q-130 -82 -323 -82q-258 0 -400.5 149.5t-142.5 421.5zM790.5 430q-0.5 -145 81.5 -145q47 0 82 51q68 92 68 274 q0 137 -80 138q-74 0 -112.5 -86.5t-39 -231.5z" />
<glyph unicode="A" horiz-adv-x="2353" d="M109 255q0 226 145 402.5t376.5 176.5t352.5 -138q29 -37 41 -55q111 -47 252 -156q106 -86 158 -118q29 53 79 143t76.5 137t79.5 133t87 130t90.5 110.5t103.5 99.5q141 100 237 117q53 8 90 8t82 -1t127 -23l-10 -39q-49 14 -104 20q-205 -805 -236 -1286q53 0 102 57 l31 -24q-6 -8 -16 -20.5t-50 -33t-87 -20.5q-229 0 -230 199q0 61 15 182q-98 -31 -177 -31q-137 0 -274 84q-80 -137 -149.5 -234.5t-161.5 -189.5q-190 -186 -459.5 -186t-429.5 172q-141 158 -141 384zM150 253q0 -212 131 -353q147 -160 411 -160q242 0 422 182 q90 88 156.5 182.5t144.5 227.5q-70 45 -169 124t-191 126q35 -87 35 -179q0 -152 -87.5 -268.5t-234.5 -116.5q-96 0 -156.5 57.5t-60.5 119t18.5 101.5t42 60.5t52.5 32.5q39 20 61 21l4 -41q-51 0 -94 -49.5t-43 -111t48 -105.5t128 -44q131 0 207 102.5t76 227.5 t-52 217q-113 43 -223 43q-213 0 -301 -198l-39 12q23 51 72 110q96 117 268 117q92 0 182 -26l-4 6q-113 123 -324.5 123t-345.5 -164t-134 -376zM1470 344q131 -78 241 -78t196 35q49 346 184 860q-164 -78 -301 -276q-100 -143 -242 -400z" />
<glyph unicode="B" horiz-adv-x="2007" d="M168 635q0 293 306 452.5t865 159.5q317 0 465 -96t148 -262q0 -139 -95.5 -250t-267.5 -164q377 -43 377 -264q0 -115 -81 -191.5t-214 -109.5q-225 -55 -463 -55v41q47 -4 90 -5q205 0 310 72q127 88 127 232q0 82 -50.5 146.5t-99.5 88.5l-51 25q-66 -14 -148 -15v41 q197 0 359 113t162 295q0 152 -142.5 234.5t-406.5 84.5q-113 -762 -172 -1048q-41 -221 -205 -347t-350 -126v39q80 6 117.5 17t64.5 47t39 85q23 100 35 191l196 1132q-420 -35 -648 -181.5t-228 -381.5q0 -106 74 -180q51 -49 135 -75t138 -29t58 1v-43q-242 0 -358 115 q-86 80 -86 211z" />
<glyph unicode="C" horiz-adv-x="1318" d="M188 397q0 371 240 610.5t629 239.5q180 0 260 -64.5t80 -201.5q0 -92 -90 -227q-82 -131 -82 -205h-45q0 41 16 88t28.5 67.5t45.5 73.5q80 121 80 199q0 164 -136 207q-63 20 -132.5 20t-147.5 -8q-72 -23 -136.5 -58.5t-134 -108.5t-118.5 -169t-82 -246.5t-33 -334.5 q0 -307 199 -406q49 -6 130 -6t171 30.5t139 75.5q104 96 131 166l10 31l41 -16q-14 -47 -55 -108.5t-93 -104.5t-151.5 -79t-220.5 -36q-258 0 -400.5 149.5t-142.5 421.5z" />
<glyph unicode="D" horiz-adv-x="1986" d="M215 600q0 160 90 300t279 230q-135 115 -357 152l9 39q248 -45 387 -174q248 100 605 100t562 -162.5t205 -453.5q0 -297 -201 -525q-96 -112 -259 -179.5t-334 -67.5t-290 32q-141 -100 -301 -100v39q80 2 116 21.5t62 82.5q-106 47 -186 120t-107.5 118t-27.5 53 l37 15q0 -8 25.5 -49t100.5 -110t173 -112q29 72 47 178l182 1053q-213 -16 -377 -84q139 -147 140 -352q0 -188 -101.5 -302t-224.5 -114t-188.5 75t-65.5 177zM254 600q0 -84 54 -148.5t162 -64.5t189.5 94t94.5 240q2 27 2 53q0 184 -142 326q-184 -84 -272 -216 t-88 -284zM950 -80q108 -24 217 -24q195 0 350.5 64.5t247.5 170.5q190 217 191 488q0 267 -176 419t-492 168q-100 -678 -158 -975q-37 -188 -180 -311z" />
<glyph unicode="E" horiz-adv-x="1153" d="M133 223.5q0 149.5 93 237.5t220 123q-92 113 -92 267.5t124 275t358 120.5q178 0 273 -62.5t95 -155.5t-48 -190.5t-54 -154.5h-43q6 61 54 157.5t48 179.5t-87 136t-221 53t-228.5 -103t-94.5 -316q0 -115 29 -164q106 35 247.5 35t141.5 -82q0 -49 -53 -81t-154 -32 q-158 0 -254 76q-37 -39 -57 -65.5t-46 -102.5t-26 -182.5t90.5 -185.5t187.5 -79t181 37t133 86t86 109q51 76 68 133l41 -10q0 -6 -15.5 -43t-56.5 -97.5t-98 -117t-157.5 -97.5t-219.5 -41q-219 0 -342 93.5t-123 243zM575 592q4 -10 14.5 -24.5t52.5 -39t111.5 -24.5 t111.5 21.5t42 49.5q-1 49 -111 49q-2 0 -3 1q-109 0 -218 -33z" />
<glyph unicode="F" horiz-adv-x="1781" d="M168 637q0 291 308 450.5t867 159.5q293 0 412 -63.5t119 -182.5q0 -94 -59.5 -191t-143.5 -201.5t-115 -176.5h109l-4 -37h-119q-16 -53 -16 -96h-43q0 49 12 96h-260l-43 -239q-43 -221 -207 -347t-352 -126v41q139 2 179 59t79 280l55 332h-104l4 37h106l133 764 q-420 -35 -647 -179t-227 -380q0 -195 207 -260q82 -25 136 -28t58 1l2 -43h-12q-229 0 -348 115q-86 80 -86 215zM1241 432h268q31 78 113 183.5t142.5 201.5t60.5 184q0 205 -465 205q-84 -580 -119 -774z" />
<glyph unicode="G" horiz-adv-x="1339" d="M188 397q0 371 240 610.5t629 239.5q180 0 260 -64.5t80 -201.5q0 -92 -90 -227q-82 -131 -82 -205h-45q0 41 16 88t28.5 67.5t45.5 73.5q80 121 80 199q0 164 -136 207q-63 20 -132.5 20t-147.5 -8q-72 -23 -136.5 -58.5t-134 -108.5t-118.5 -169t-82 -246.5t-33 -334.5 q0 -307 199 -406q49 -6 129 -6t169 23.5t144 60.5q78 49 117 94q12 45 33.5 144.5t33.5 150.5l43 -10q-16 -63 -39.5 -170t-35 -153t-33 -118.5t-42 -106.5t-54.5 -75q-55 -68 -176 -102l-9 43q104 23 161.5 101.5t98.5 221.5q-165 -150 -429 -150q-1 0 -2 1 q-265 0 -407.5 150.5t-142.5 424.5z" />
<glyph unicode="H" horiz-adv-x="2033" d="M39 51q0 33 2 66l45 -6q-2 -29 -2 -58q0 -190 115.5 -318t312.5 -128t276.5 104.5t152.5 401.5t249 1020q-161 70 -349 70q-1 -1 -3 -1q-190 0 -307 -120.5t-117 -315.5h-45q0 213 131 347t336 134q164 0 354 -63q219 -80 475 -80v-43q-154 0 -246 14q-2 -8 -14 -67 q-76 -336 -123 -535h549l209 889h43l-287 -1231q-18 -76 -18 -102q0 -86 80 -86q57 0 100 59l29 -25q-14 -27 -51.5 -50t-89.5 -23t-81.5 34.5t-29.5 84.5l24 135l64 278h-551q-23 -86 -45.5 -186t-54 -196.5t-87 -199t-124 -167t-172 -106.5t-223.5 -42t-226.5 45 t-177.5 125q-123 141 -123 342z" />
<glyph unicode="I" horiz-adv-x="1251" d="M184 756q0 491 422 491h2q137 0 387 -104.5t381 -104.5v-47q-53 0 -121 15q-14 -4 -50 -46t-66 -96q-86 -156 -152 -397h221l-4 -37h-227q-14 -47 -33 -129q-84 -367 -177 -523.5t-273 -156.5q-109 0 -150 25l21 43q29 -29 141 -29q14 0 47 4l145 631q6 27 18.5 76 t14.5 59h-223l4 37h227q80 301 159 439t185 153q-25 10 -109.5 47t-121.5 51q-125 47 -231 47q-195 0 -292.5 -106.5t-97.5 -341.5h-47z" />
<glyph unicode="J" horiz-adv-x="1484" d="M29 31q0 25 2 51h47q-2 -25 -2 -47q0 -186 121.5 -323.5t332.5 -137.5q193 0 297 283q61 168 101.5 346t54.5 227h-225l4 37h229q72 272 141.5 402t161.5 157q-72 25 -152.5 72t-111.5 61q-96 45 -217 45q-178 0 -290.5 -116.5t-112.5 -301.5h-43q0 203 124.5 332 t321.5 129q72 0 137.5 -16.5t97 -32.5t100.5 -54t112 -57.5t136 -41t206 -21.5v-43q-66 0 -121 6q-16 -16 -41 -50t-84.5 -164t-114.5 -306h217l-4 -37h-223q-35 -113 -62.5 -230.5t-70.5 -229t-115 -220.5q-150 -219 -453 -219q-240 0 -370.5 154.5t-130.5 345.5z" />
<glyph unicode="K" horiz-adv-x="2207" d="M39 51q0 33 2 66l45 -6q-2 -29 -2 -58q0 -190 115.5 -318t312.5 -128t276.5 104.5t152.5 401.5t249 1020q-161 70 -349 70q-1 -1 -3 -1q-190 0 -307 -120.5t-117 -315.5h-45q0 213 131 347t336 134q164 0 354 -63q219 -80 475 -80v-43q-154 0 -246 14q-47 -229 -131 -577 t-115.5 -444.5t-87 -199t-124 -167t-172 -106.5t-223.5 -42t-226.5 45t-177.5 125q-123 141 -123 342zM1339 362l293 381q150 195 317 315t375 126q31 92 31 178h47q0 -117 -87 -329t-87 -304h-45q0 92 29 167t56.5 139.5t39.5 99.5q-324 -18 -653 -449q-74 -90 -135 -176 q195 -406 285.5 -572.5t152 -230t131.5 -63.5t120 40t70 107h52q-66 -213 -322 -213q-162 0 -266.5 77t-177.5 232z" />
<glyph unicode="L" horiz-adv-x="1331" d="M-158 -144.5q0 72.5 58.5 116.5t175.5 44q160 0 286 -118q25 76 41 168l138 792q49 307 213 414q143 92 325.5 92t298 -104.5t115.5 -329.5h-49q0 182 -87 277.5t-220 95.5q-244 0 -289 -304q0 -33 -52.5 -337t-93.5 -502q-43 -240 -229 -371q111 -111 164 -127 q20 -6 55 -17.5t74 -15.5t103.5 -4t132 35t107.5 81t71 103q39 68 57 136l49 -17q-53 -174 -169 -276.5t-269 -102.5q-121 0 -167 17.5t-66.5 22.5t-54.5 31t-40 30q-16 12 -84 79q-130 -78 -281 -78h-1q-152 0 -232 48.5t-80 121zM-109 -144.5q0 -58.5 67 -94t157 -35.5 t159 16q41 37 72 111q-65 61 -124.5 92.5t-144.5 31.5t-135.5 -31.5t-50.5 -90z" />
<glyph unicode="M" horiz-adv-x="2736" d="M43 129q0 33 4 68l41 -4q-4 -33 -4 -64q0 -166 104 -281q133 -145 336 -145q244 0 393.5 136t376.5 562l369 670q-217 4 -421 68.5t-364.5 64.5t-269 -112.5t-108.5 -290.5h-41q0 197 119.5 320.5t310.5 123.5q154 0 365.5 -66.5t457.5 -66.5l86 -1106l41 57 q432 594 667.5 849t381.5 255v-41q-63 0 -162 -69q-14 -45 -96 -312.5t-146.5 -467t-64.5 -326.5t45 -189q43 0 81 17.5t56 36.5l16 16l27 -35q-78 -78 -202 -78t-197.5 81t-73.5 213t47 304l92 304q-172 -217 -315 -416q-283 -391 -383 -524l-37 10l-80 991l-164 -299 q-233 -440 -390 -580.5t-417 -140.5q-221 0 -366 158q-115 129 -115 309z" />
<glyph unicode="N" horiz-adv-x="2635" d="M43 184l39 -6q-2 -27 -2 -53q0 -162 96 -272q121 -137 322 -138q250 0 438 164t405 570l349 634q-211 4 -399.5 64.5t-344 60.5t-259 -106.5t-103.5 -276.5h-39q0 186 114.5 305t294.5 119q143 0 349 -62.5t442 -62.5l328 -891q164 260 267 444.5t165.5 281t111.5 147.5 q113 115 256 115v-41q-80 0 -146.5 -42t-139 -141.5t-132 -200t-166 -283.5t-198.5 -327q59 -145 103 -231t92 -135t124 -49q135 0 185 149h45q-2 -8 -5 -22.5t-23.5 -51t-51.5 -65.5t-93.5 -51.5t-142.5 -22.5q-172 0 -278.5 85t-179.5 257l-285 756l-207 -377 q-223 -418 -417.5 -586t-458.5 -168q-211 0 -351 150q-108 120 -108 294q0 34 4 66z" />
<glyph unicode="O" horiz-adv-x="1531" d="M182 356q0 367 233.5 623t581.5 270l2 -41q-133 -4 -238.5 -66.5t-170 -157.5t-107.5 -222q-74 -222 -74 -463q1 -247 109 -353t244 -106q186 0 355 124t265.5 311.5t96.5 384t-88 308t-250 111.5q-195 0 -305.5 -135t-110.5 -317q0 -80 24.5 -139.5t55.5 -88t69 -47.5 q49 -24 86 -24h3l-2 -41q-35 0 -89.5 24.5t-91.5 57t-66.5 100.5t-29.5 158q0 199 122 345t335 146q178 0 278.5 -123t100.5 -342q0 -154 -60.5 -308.5t-164 -277t-258 -200.5t-328.5 -78q-248 0 -387.5 150.5t-139.5 416.5z" />
<glyph unicode="P" horiz-adv-x="1966" d="M215 635q0 260 243.5 416.5t696.5 187.5q96 215 358 215v-53q-51 -6 -70.5 -41t-33.5 -113q170 -2 292 -42t185 -105q121 -125 121 -293q0 -129 -48 -234.5t-122 -173t-180 -116.5q-176 -84 -424 -119v-4q-43 -240 -229 -371q84 -76 184 -119t258 -43v-45 q-170 0 -279.5 48t-199.5 134q-130 -78 -281 -78h-2q-152 0 -231.5 48.5t-79.5 121t58 116.5t175 44q160 0 287 -118q25 76 41 168l12 75h-86v45h94l156 889q10 76 29 123q-424 -33 -654.5 -179.5t-230.5 -383.5q0 -106 74 -180q51 -49 135 -75t138 -29t58 1v-43 q-242 0 -358 115q-86 80 -86 211zM422 -142.5q0 -56.5 65.5 -94t157.5 -37.5t146.5 26.5t85.5 100.5q-66 61 -125.5 92.5t-144.5 31.5t-135 -31.5t-50 -88zM1243 211q711 102 711 596q0 180 -136.5 288.5t-412.5 112.5q-76 -557 -162 -997z" />
<glyph unicode="Q" horiz-adv-x="1595" d="M20 -457q0 107 132.5 184.5t324 77.5t418.5 -90q268 199 445.5 468.5t177.5 517t-129 377.5t-371 130q-207 0 -387 -209q-90 -104 -145.5 -291.5t-55.5 -428.5q0 -86 17.5 -148.5t39 -91.5t58.5 -45q43 -20 102 -21q123 0 228.5 135.5t105.5 319.5q0 174 -117 246 q-45 27 -121 35v41q111 0 195 -83t84 -239q0 -201 -123 -356.5t-322.5 -155.5t-302 112.5t-102.5 317.5q0 254 131 481q68 119 164 212.5t239.5 151.5t311.5 58q256 0 397 -142t141 -400t-175 -529.5t-445 -478.5q74 -31 203 -98.5t216 -100t156.5 -32.5t122 18t83 43 t52.5 53q33 43 41 66l39 -10q-88 -240 -514 -240q-123 0 -241.5 27.5t-183 55t-173.5 81.5q-283 -164 -526 -164q-96 0 -143.5 42t-47.5 103zM68 -457q0 -47 41 -75.5t112 -28.5q217 0 473 145q-238 115 -413 115q-82 0 -147.5 -41t-65.5 -115z" />
<glyph unicode="R" horiz-adv-x="1957" d="M168 635q0 293 306 452.5t865 159.5q348 0 494.5 -94t146.5 -257t-111.5 -279.5t-293.5 -180.5q266 -553 342 -664.5t182 -111.5q63 0 113.5 40t71.5 107h51q-66 -213 -322 -213q-162 0 -267.5 77t-176.5 233l-221 479q-82 -8 -121 -8q-6 -31 -18.5 -104.5t-20.5 -110.5 q-41 -221 -206 -347t-351 -126v39q127 6 172 65t84 275l196 1132q-420 -35 -648 -181.5t-228 -381.5q0 -106 74 -180q51 -49 135 -75t138 -29t58 1v-43q-242 0 -358 115q-86 80 -86 211zM1235 420q291 8 491.5 146.5t200.5 322.5q0 313 -569 319z" />
<glyph unicode="S" horiz-adv-x="1454" d="M166 -64.5q0 150.5 97 258t242.5 107.5t215.5 -64.5t70 -156.5t-56.5 -164t-146.5 -72t-144 58q-49 49 -55 123q-2 20 0 24l39 -2v-6q0 -68 45 -113q39 -43 114 -43t120 58.5t45 135.5t-54 124q-59 59 -190 59t-217 -95t-86 -229.5t110 -228.5q66 -57 134.5 -81.5 t183.5 -24.5q215 0 334.5 88t119.5 233q0 104 -52 184t-130 132.5t-158.5 103.5t-150.5 129t-92 176q-186 55 -246 232q-23 67 -23 138q0 75 23 157q47 158 154 237l22 -33q-96 -70 -139 -217q-21 -76 -21 -145q0 -66 21 -125q49 -150 203 -201q-4 23 -4 70q0 268 194.5 434 t474.5 166q184 0 295 -100q94 -88 94 -216t-86 -221.5t-231 -93.5q-80 0 -131 31q-104 -80 -248 -115q41 -39 191.5 -143.5t225.5 -199.5t75 -222q0 -233 -181.5 -378.5t-459 -145.5t-418.5 123q-123 104 -123 254.5zM711 915q0 -166 110 -241q137 31 254 110 q-94 85 -94 228q0 90 46 149.5t126 59.5q137 0 137 -150.5t-149 -284.5q45 -20 94 -20q127 0 202.5 83t75.5 194.5t-81 189.5q-100 90 -264 90t-279 -80q-178 -127 -178 -328zM1022 1012q0 -133 84 -203q61 43 102 116.5t41 145.5q0 113 -98 113q-61 0 -95 -47t-34 -125z " />
<glyph unicode="T" horiz-adv-x="1925" d="M92 170q0 25 2 49h47v-29q0 -141 76 -276q33 -57 79 -99t124 -71t174 -29q160 0 253 129t180 499t178 528.5t265 183.5q-53 20 -112.5 45.5t-113.5 45t-155.5 39t-226.5 19.5t-232.5 -45t-166.5 -119q-119 -143 -119 -331q0 -106 39 -187.5t94 -120.5q113 -76 205 -86 l39 -4l-12 -45q-51 0 -132 32t-137.5 75t-99.5 131t-43 198.5t35 204.5t103.5 171t183 123t243.5 46t233.5 -19.5t164 -41t105.5 -41t74.5 -30.5t35 -13t33 -12.5t35.5 -12.5t32.5 -10t37 -10t36 -7.5t39 -6.5t39 -3t42.5 -2q100 0 175 34t109 75t54 94q25 66 25 119h45 q0 -49 -25.5 -120t-63.5 -119t-122 -87t-199.5 -39t-232.5 37q-139 -197 -293 -792q-76 -299 -218 -435.5t-411.5 -136.5t-402.5 164q-117 145 -117 338z" />
<glyph unicode="U" horiz-adv-x="1839" d="M174 766q0 213 131 347t336 134q164 0 354 -63q219 -80 475 -80v-43q-154 0 -245 14q-25 -102 -72 -283.5t-65.5 -276.5t-18.5 -195.5t68.5 -165t177 -64.5t181.5 73t108 159l241 1040h43l-286 -1231q-18 -76 -19 -102q0 -86 80 -86q57 0 100 59l29 -25q-14 -27 -51 -50 t-89.5 -23t-82 34.5t-29.5 84.5l25 135l10 47q-55 -86 -148.5 -154.5t-205.5 -68.5q-188 0 -289 99t-101 269q0 135 29 252t69.5 274t65.5 257q-161 70 -348 70q-1 -1 -3 -1q-189 0 -307 -120.5t-118 -315.5h-45z" />
<glyph unicode="V" horiz-adv-x="2054" d="M219 664q0 268 176 425.5t477 157.5q70 0 246 -14q84 -14 168 -14q190 0 330 77l24 -39q-129 -70 -276 -79q-113 -135 -192.5 -358.5t-79.5 -442.5t79.5 -307t214.5 -88q193 0 357 200q121 156 195.5 352.5t93 359.5t18.5 319.5t-33 289.5l43 10q35 -133 35 -294.5 t-19.5 -329.5t-96 -371t-201.5 -362q-254 -328 -561 -328q-176 0 -260.5 115.5t-84.5 277.5t48.5 328t123.5 291q129 217 248 336q-57 0 -180 12l-240 14q-287 0 -448.5 -142t-161.5 -396q0 -96 33 -173t75 -118t95 -70q66 -37 127 -51l-10 -43q-41 0 -114 41t-123 87 t-88 132t-38 195z" />
<glyph unicode="W" horiz-adv-x="2727" d="M217 659q0 270 178 429t482 159q123 0 225 -14t184 -14q199 0 340 77l23 -36q-133 -78 -293 -84q-129 -123 -218 -410t-89 -610q0 -199 72.5 -281t170.5 -82q66 0 127.5 30t95 58.5t89.5 83.5q-33 98 -33 306t71.5 449t190.5 394.5t246 153.5q61 0 93 -33t32 -119 q0 -174 -112 -462.5t-288 -526.5q18 -158 100.5 -233.5t209.5 -75.5q233 0 419 446q143 345 144 707q0 358 -140 497l31 31q154 -154 154 -536q0 -356 -146 -717q-229 -553 -624 -553q-203 0 -297 162q-25 41 -35 61q-217 -223 -479 -223q-170 0 -253 113.5t-83 275.5 t42 322.5t97 275.5t133 225q106 158 219 271q-68 0 -176 14q-227 12 -243 12q-287 0 -451 -144.5t-164 -398.5q0 -119 55 -223q29 -55 125 -127q20 -16 65.5 -34.5t47.5 -18.5l35 -10l-6 -43q-39 0 -113 41t-126 87t-90 133t-38 195zM1798 199q20 29 53 82 q133 207 219.5 444.5t86.5 390.5q0 106 -78 107q-31 0 -68 -17q-68 -63 -131 -252q-82 -242 -82 -725v-30z" />
<glyph unicode="X" horiz-adv-x="1613" d="M-92 -360h47q10 -90 48 -120t114 -30q172 0 388 239.5t361.5 546.5t145.5 504q0 244 -66.5 334t-197.5 90q-174 0 -322 -131q-74 -66 -118 -175.5t-44 -228t34 -198.5t81 -121q100 -88 174 -104l35 -6l-15 -39q-35 10 -58 17t-82.5 42t-101.5 79t-76 127t-34 185 q0 264 152.5 430t396.5 166q451 0 451 -428q0 -145 -16.5 -248.5t-20.5 -113.5q94 272 244.5 530t333 433t333.5 175q115 0 162 -50t47 -148h-47q-10 90 -48 119.5t-114 29.5q-125 0 -287.5 -155.5t-296 -368.5t-226.5 -441.5t-93 -369.5q0 -211 70.5 -295t190.5 -84t224 55 v-47q-109 -51 -235 -51q-469 0 -469 467q0 98 16 197q-190 -455 -425.5 -733.5t-446.5 -278.5q-115 0 -162 50t-47 149z" />
<glyph unicode="Y" horiz-adv-x="1460" d="M217 651q0 264 152.5 430t396.5 166q451 0 451 -428q0 -217 -37 -327q510 1103 910 1103h1q115 0 162 -50t47 -148h-47q-10 90 -48 119.5t-114 29.5q-127 0 -275.5 -134t-279.5 -343q-274 -432 -432 -893q-127 -367 -178 -520h-275q41 90 110.5 272.5t116 325.5t84 317 t37.5 319.5t-67.5 229.5t-188.5 84q-174 0 -321 -131q-74 -66 -118 -175.5t-44 -228t34 -198.5t81 -121q100 -88 174 -104l35 -6l-15 -39q-35 10 -58.5 17t-82.5 42t-101 79t-76 127t-34 185z" />
<glyph unicode="Z" horiz-adv-x="1490" d="M43 -86q8 113 71.5 174.5t170.5 61.5q86 0 153 -21l21 -6l682 690q-104 29 -343 161t-336 132t-147 -45v-29q0 -111 72 -168q63 -51 111 -61l20 -6l-10 -35q-16 4 -29.5 9t-32 11t-37 18.5t-38 27t-37 35t-31.5 42.5q-29 53 -29 127q0 135 81 210t229 75 q80 0 158.5 -27.5t120.5 -53.5t115 -76t107.5 -71.5t97 -45t137.5 -23.5t130 24.5t66 49.5l10 22l49 2q0 -78 -21.5 -144.5t-95.5 -121.5t-194 -55q-39 0 -76 6l-684 -694q92 -35 230 -125t264 -149.5t250 -59.5t171 47q11 45 11 86h43q0 -324 -338 -324q-106 4 -235.5 64.5 t-230 130t-229.5 128t-235 58.5q-43 0 -72 -13t-35 -26l-8 -12h-47z" />
<glyph unicode="[" horiz-adv-x="581" d="M98 -293l287 1596h375l-4 -37h-129l-277 -1522h125l-4 -37h-373z" />
<glyph unicode="\" horiz-adv-x="1077" d="M266 1346l53 20l719 -1432l-53 -20z" />
<glyph unicode="]" horiz-adv-x="581" d="M0 -293l4 37h129l275 1522h-127l4 37h379l-291 -1596h-373z" />
<glyph unicode="^" horiz-adv-x="675" d="M45 545l334 368h55l197 -381l-51 -24l-181 348l-309 -346z" />
<glyph unicode="_" horiz-adv-x="1236" d="M211 -80l4 37h784l-4 -37h-784z" />
<glyph unicode="`" horiz-adv-x="296" d="M68 1155l53 21l108 -218l-53 -20z" />
<glyph unicode="a" horiz-adv-x="991" d="M121 297q0 233 114.5 366.5t296.5 133.5q150 0 199 -142q10 61 23 123q152 0 225 13l27 6l-142 -774q61 6 103 57l30 -25q-61 -73 -153 -73q-180 0 -197 157q-90 -158 -226 -158l-1 1q-137 0 -218 82.5t-81 232.5zM352 193q0 -93 23.5 -128.5t73 -35.5t100.5 53 q68 70 108 176q6 27 23.5 128t30.5 167q-6 78 -43 135t-93 57q-100 0 -161.5 -179t-61.5 -373z" />
<glyph unicode="b" horiz-adv-x="944" d="M94 -55l230 1341q-61 -6 -103 -57l-31 24q61 74 154.5 74t145 -47t51.5 -133q0 -16 -4 -53q-33 -182 -80 -439q86 139 223 139q1 0 2 1q136 0 209 -79q74 -79 74 -216q0 -242 -131 -380t-340 -138q-129 0 -189 86l-172 -123h-39zM354 102q35 -65 125 -65 q113 0 183.5 156.5t70.5 390.5q0 94 -19.5 129t-70.5 35t-105.5 -61.5t-79 -116t-24.5 -62.5h-4q-51 -268 -76 -406z" />
<glyph unicode="c" horiz-adv-x="829" d="M119 276q0 244 121.5 382.5t330.5 138.5q141 0 217 -72t76 -188q0 -74 -44 -113t-103.5 -39t-102.5 43t-43 104.5t43 105.5t105 44q18 0 47 -8q-39 72 -144 72h-2q-106 0 -188 -135.5t-82 -401.5q0 -92 42 -136t105.5 -44t116 24.5t83 58t53.5 70.5q41 68 41 86l36 -16 q-6 -33 -36.5 -87t-67.5 -89t-108.5 -64.5t-159.5 -29.5q-166 0 -251 78.5t-85 215.5z" />
<glyph unicode="d" horiz-adv-x="985" d="M119 276q0 242 114.5 381.5t296.5 139.5q104 0 162 -64q25 -33 31 -49l111 602q-61 -6 -103 -57l-31 24q61 74 154.5 74t145 -47t51.5 -133q0 -16 -4 -53q-100 -563 -195 -1071q61 6 102 57l31 -25q-62 -73 -154 -73q-180 0 -196 153q-90 -154 -229 -154v1 q-140 0 -213.5 78.5t-73.5 215.5zM350 193q0 -95 19.5 -129.5t61.5 -34.5t81 28.5t66 73.5q49 76 69 129l60 324q-4 66 -43 120t-134 54q-66 0 -123 -192.5t-57 -372.5z" />
<glyph unicode="e" horiz-adv-x="813" d="M119 276q0 244 120.5 382.5t323.5 138.5q260 0 260 -207q0 -129 -121.5 -195.5t-347.5 -68.5q-4 -74 -4 -117q0 -92 42 -136t105.5 -44t116 24.5t83 58t53.5 70.5q41 68 41 86l36 -16q-6 -33 -36.5 -87t-67.5 -89t-108.5 -64.5t-159.5 -29.5q-166 0 -251 78.5t-85 215.5z M360 373q412 2 412 217q0 67 -40 111t-118.5 44t-153.5 -94t-100 -278z" />
<glyph unicode="f" horiz-adv-x="622" d="M104 -143l158 884h-125l4 37h127l33 176q33 203 101.5 288t199.5 85q74 0 122 -55t48 -166t-88 -328h78l-4 -37h-90q-70 -174 -70 -264h-37q0 106 68 264h-119q-61 -322 -158 -884h-248zM516 778h127q90 205 90 332q0 74 -33.5 127t-83.5 53q-20 -80 -100 -512z" />
<glyph unicode="g" horiz-adv-x="952" d="M76 -218q0 71 44 113t156.5 42t296.5 -93l64 340q-92 -170 -238 -170q-278 0 -278 273q0 231 115.5 370.5t295.5 139.5q104 0 162 -64q16 -18 33 -55l18 100q152 0 222 13l26 6l-135 -756q-31 -160 -123 -258q27 -6 60 -6q74 0 127 57l28 -24q-49 -70 -155 -70 q-45 0 -93 10q-139 -127 -356 -127q-129 0 -199.5 44t-70.5 115zM119 -215q0 -55 59.5 -88t159.5 -33q164 0 221 141l-29 15q-25 12 -29.5 15t-27 13.5t-33 13.5t-32 11t-36 11t-32.5 7q-31 6 -90 7h-3q-58 0 -93 -29t-35 -84zM352 225q0 -94 18.5 -125.5t70 -31.5t104.5 55 t76.5 103t40.5 93l43 236v14q0 188 -173 189q-66 0 -123 -178.5t-57 -354.5z" />
<glyph unicode="h" horiz-adv-x="997" d="M100 0l228 1286q-61 -6 -103 -57l-30 24q61 74 154 74t144.5 -47t51.5 -133q0 -16 -4 -53l-86 -486q84 188 260 189q121 0 188.5 -69t67.5 -189q0 -63 -39 -244.5t-43 -271.5q49 0 102 57l31 -25q-14 -29 -63.5 -51t-108.5 -22q-186 0 -186 168q0 72 36.5 256t36.5 241 q0 88 -84 88q-70 0 -134 -94t-105 -256l-68 -385h-246z" />
<glyph unicode="i" horiz-adv-x="495" d="M150 152q0 27 32 223l68 366h-86l4 37h88q152 0 223 13l29 6l-141 -774q61 6 102 57l31 -25q-62 -73 -154 -73t-144 47t-52 123zM276 1097.5q0 61.5 43 105.5t104.5 44t105.5 -44t44 -105.5t-44 -104.5t-105.5 -43t-104.5 43t-43 104.5z" />
<glyph unicode="j" horiz-adv-x="468" d="M-143 -358l14 39q35 -18 87 -19h1q51 0 80 38t49 146q72 387 166 895h-88l4 37h88q152 0 225 13l27 6q-20 -111 -66.5 -368t-66.5 -368q-39 -219 -140.5 -328.5t-285.5 -109.5q-61 0 -94 19zM281 1097.5q0 61.5 43 105.5t104 44t105.5 -44t44.5 -105.5t-44.5 -104.5 t-105.5 -43t-104 43t-43 104.5z" />
<glyph unicode="k" horiz-adv-x="962" d="M98 0l232 1286q-61 -6 -103 -57l-30 24q61 74 154 74t144.5 -47t51.5 -133q0 -16 -4 -53q-47 -260 -103 -562q51 125 147.5 195t205 70t152.5 -43t44 -107.5t-39 -105.5t-101.5 -41t-96 35.5t-33.5 106.5t49 108q-197 -23 -313 -291q29 4 49 4q109 0 171 -43t80.5 -105.5 t27 -125t26.5 -105.5t65.5 -43t73.5 39l31 -25q-14 -29 -63.5 -51t-126 -22t-135 38.5t-81 97t-36.5 115.5q-39 148 -121 162l-74 -395h-244z" />
<glyph unicode="l" horiz-adv-x="569" d="M127 162q0 16 4 53l133 737q37 203 101.5 289t171.5 86q74 0 122 -55t48 -168t-87.5 -322t-87.5 -305h-36q0 109 86 310.5t86 322.5q0 74 -34 127t-83 53q-2 -53 -70.5 -478t-136.5 -789q57 0 106.5 59t69.5 119l23 61l37 -16q-6 -29 -32 -83t-52.5 -89t-72.5 -63.5 t-120 -28.5t-125 47t-51 133z" />
<glyph unicode="m" horiz-adv-x="1525" d="M133 0l135 756q-61 -6 -102 -58l-31 25q61 74 154.5 74t144.5 -47.5t51 -133.5v-6q80 186 242 187q115 0 181.5 -62.5t72.5 -175.5q39 113 98.5 175.5t172 62.5t180 -69t67.5 -189q0 -63 -39 -244.5t-43 -271.5q49 0 103 57l30 -25q-14 -29 -63 -51t-109 -22 q-186 0 -186 168q0 72 37 256t37 241q0 88 -84 88q-147 0 -238 -438q-39 -186 -43 -274q49 0 103 57l30 -25q-14 -29 -63 -51t-109 -22q-186 0 -186 168q0 72 37 256t37 241q0 88 -84 88q-127 0 -213 -325l-74 -410h-246z" />
<glyph unicode="n" horiz-adv-x="1021" d="M127 723q61 74 154.5 74t144.5 -47.5t51 -133.5v-12q84 193 262 193q121 0 188.5 -69t67.5 -189q0 -63 -39 -244.5t-43 -271.5q49 0 103 57l31 -25q-14 -29 -63.5 -51t-109.5 -22q-186 0 -186 168q0 72 37 256t37 241q0 88 -84 88q-68 0 -130.5 -88t-103.5 -241l-69 -383 q63 6 104 57l31 -25q-61 -74 -152 -74l-2 1q-92 0 -144 47t-52 123q0 29 33 225l67 379q-61 -6 -102 -58z" />
<glyph unicode="o" d="M121 259q0 120 21.5 205t70.5 164t148.5 124t248 45t231.5 -79t83 -216q0 -233 -124 -376.5t-358 -143.5q-157 0 -239 78.5t-82 198.5zM352 193q0 -164 95.5 -164t170 164.5t74.5 392.5q0 172 -93 172t-170 -156.5t-77 -408.5z" />
<glyph unicode="p" horiz-adv-x="980" d="M76 -303l192 1073q-61 -6 -102 -57l-31 24q61 74 152.5 74t142.5 -44t55 -124q90 154 229.5 154t213 -79t73.5 -216q0 -242 -131 -380t-340 -138q-94 0 -149 43l-62 -330h-243zM395 109q35 -78 132.5 -78t170 163.5t72.5 391.5q0 94 -19.5 129t-70.5 35t-105.5 -61.5 t-79 -116t-24.5 -62.5h-2z" />
<glyph unicode="q" horiz-adv-x="952" d="M119 276q0 242 114.5 381.5t296.5 139.5q146 0 193 -123q0 6 20 104q152 0 224 13l28 6l-207 -1131q61 6 103 58l31 -25q-61 -74 -154.5 -74t-145 47t-51.5 133q0 37 50 308q-84 -131 -219.5 -131t-209 78.5t-73.5 215.5zM350 193q0 -95 19.5 -129.5t71 -34.5t105.5 61.5 t78.5 115.5t24.5 62l53 289v8q0 127 -79 172q-37 20 -93 21q-66 0 -123 -192.5t-57 -372.5z" />
<glyph unicode="r" horiz-adv-x="802" d="M131 0l135 756q-61 -6 -102 -58l-31 25q61 74 154.5 74t144.5 -47.5t51 -133.5v-12q92 193 240 193q158 0 158 -164q0 -68 -45 -143.5t-90.5 -144.5t-45.5 -122h-49q0 76 88 205t88 199.5t-27.5 96.5t-81.5 26t-106.5 -47.5t-87.5 -118.5q-55 -106 -73 -174v-2l-74 -408 h-246z" />
<glyph unicode="s" horiz-adv-x="753" d="M72 212q0 91 45 131t106.5 40t101.5 -40t40 -102.5t-39 -105.5t-101 -43q-27 0 -55 8q45 -65 143 -65q203 0 203 299q0 74 -21.5 174t-25.5 125q-125 -129 -281 -156v49q147 33 277 168v8q0 49 14.5 96.5t28.5 69.5l14 23h49q0 -90 29 -165t63.5 -121t63.5 -120.5 t29 -165.5q0 -145 -109.5 -241t-263.5 -96t-232.5 69.5t-78.5 160.5z" />
<glyph unicode="t" horiz-adv-x="659" d="M139 741l4 37h105l55 303q152 0 225 13l27 6q-29 -143 -63 -322h253l-4 -37h-256q-102 -528 -102 -637q0 -66 68 -66h1q70 0 127.5 88.5t82.5 190.5l36 -12q-76 -323 -312 -323h-1q-98 0 -163.5 54t-65.5 151.5t84 553.5h-101z" />
<glyph unicode="u" horiz-adv-x="1021" d="M115 723q14 29 63 51.5t109 22.5q186 0 186 -168q0 -72 -37 -256.5t-37 -241.5q0 -88 84 -88q59 0 115.5 69.5t97.5 192.5l86 473q152 0 222 13l26 6l-137 -774q61 6 102 57l31 -25q-61 -74 -152 -74l-2 1q-92 0 -143 45t-53 127q-86 -172 -254 -172q-121 0 -188.5 68.5 t-67.5 189.5q0 63 39 244.5t43 271.5q-49 0 -103 -58z" />
<glyph unicode="v" d="M111 694q6 12 18 28.5t62.5 45.5t126 29t121.5 -49.5t46 -125t-41 -234.5t-41 -223.5t30 -101t85 -36.5q137 0 250 149.5t113 333.5q0 14 -4 43q-43 -53 -110 -53t-110 43t-43 104.5t43 105.5t97.5 44t92.5 -28t54 -71q2 -2 2 -4v-2q25 -53 25 -154.5t-23.5 -185.5 t-72 -171t-140.5 -143t-217 -56t-208 81.5t-83 188t38 263.5t42 241q-33 -2 -63.5 -23.5t-44.5 -42.5l-15 -20z" />
<glyph unicode="w" horiz-adv-x="1411" d="M111 694q6 12 18 28.5t62.5 45.5t126 29t121.5 -49.5t46 -125t-41 -234.5t-41 -223.5t30 -101t85 -36.5q119 0 203 123q-23 57 -23 132.5t38 232.5t42 241q-33 -2 -63.5 -23.5t-44.5 -42.5l-15 -20l-30 24q6 12 18 28.5t62.5 45.5t126 29t121.5 -49.5t46 -125 t-40.5 -234.5t-40.5 -223.5t29.5 -101t84.5 -36.5q137 0 245.5 148.5t108.5 334.5q0 14 -4 43q-43 -53 -109.5 -53t-109.5 43t-43 104.5t43 105.5t97.5 44t92.5 -28t54 -71q2 -2 2 -4v-2q25 -53 25 -146t-12.5 -158.5t-45.5 -139.5t-80 -132.5t-125.5 -96t-175.5 -37.5 q-164 0 -245 118q-97 -118 -266 -118h-3q-131 0 -214 81.5t-83 188t38 263.5t42 241q-33 -2 -63.5 -23.5t-44.5 -42.5l-15 -20z" />
<glyph unicode="x" horiz-adv-x="970" d="M115 131q0 100 93 171t230 85l-112 281q-25 63 -77 63t-93 -69l-31 18q20 35 35.5 54.5t59.5 41t108 21.5q178 0 239 -152l84 -209q127 12 199 64h-2q-61 0 -104.5 43t-43.5 104.5t43 105.5t104.5 44t105.5 -44t44 -106q0 -104 -96 -175t-231 -83l106 -260q25 -63 79 -63 t91 69l33 -18q-20 -35 -35.5 -54.5t-59.5 -41t-108 -21.5q-180 0 -241 152l-78 188q-121 -12 -195 -61h2q61 0 104.5 -43t43.5 -104.5t-43 -105.5t-104.5 -44t-105.5 44t-44 105z" />
<glyph unicode="y" horiz-adv-x="989" d="M113 -218q0 71 43 113t121.5 42t146.5 -26t98 -30l-4 -37q-35 4 -100.5 29t-130 25t-98 -29t-33.5 -83t59 -88t147 -34q213 0 263 256l51 283q-86 -188 -260 -189q-119 0 -183.5 68t-64.5 190q0 63 38 228.5t42 255.5q-49 0 -103 -58l-30 25q14 29 63 51.5t109 22.5 q186 0 186 -168q0 -72 -39 -235t-39 -220q0 -98 82 -98q68 0 132.5 92t105.5 248l67 362q152 0 222 13l26 6l-129 -725q-37 -211 -171 -330t-347 -119q-129 0 -199.5 44t-70.5 115z" />
<glyph unicode="z" horiz-adv-x="858" d="M84 0l537 725q-106 4 -190.5 18.5t-135.5 14.5t-86 -35t-35 -82t27 -96l-37 -15q-33 41 -33 109t46 113t111 45q66 1 176 -19q104 -19 232 -19h14q136 1 201 17l-542 -723q109 -33 237 -35q82 0 142.5 46.5t78.5 91.5l19 45l35 -13q-18 -74 -84 -140t-196 -66 t-236.5 28.5t-155.5 28.5t-88 -39h-37z" />
<glyph unicode="{" horiz-adv-x="595" d="M127 526q55 68 141 74l88 479q18 111 88 167.5t166.5 56.5t157.5 -74l-31 -25q-41 51 -102 58l-98 -572q-6 -47 -29 -81t-41 -44l-21 -8q37 -37 37 -108q0 -20 -4 -43l-112 -658q61 6 102 57l31 -24q-61 -74 -154.5 -74t-144.5 47t-51 128t110 677q-61 -6 -102 -57z" />
<glyph unicode="|" horiz-adv-x="368" d="M109 -252l268 1514h61l-268 -1514h-61z" />
<glyph unicode="}" horiz-adv-x="598" d="M6 -219l31 24q41 -51 102 -57l99 571q6 47 28.5 81t40.5 42l21 11q-37 37 -37 108q0 20 4 43l113 658q-61 -6 -103 -58l-31 25q61 74 154.5 74t145 -47.5t51.5 -128t-111 -676.5q61 6 102 57l31 -25q-55 -68 -141 -73l-88 -480q-18 -111 -88 -167t-166 -56t-158 74z" />
<glyph unicode="~" horiz-adv-x="1015" d="M190 530q68 168 201 238q55 29 116.5 29t97.5 -22.5t49.5 -55.5t25.5 -66q27 -78 100.5 -78t137 55.5t90.5 110.5l24 56h53q-4 -10 -11 -28.5t-33.5 -66t-58.5 -83t-88 -65.5t-124 -30t-104.5 35t-45 77t-37 77t-89 35t-121 -54.5t-92 -109t-27.5 -54.5h-64z" />
<glyph unicode="&#xa1;" horiz-adv-x="413" d="M113 -332l182 1000l55 -6l-178 -1002zM258 831q0 43 30.5 73t74 30t73 -30t29.5 -73t-29.5 -73.5t-73 -30.5t-74 30.5t-30.5 73.5z" />
<glyph unicode="&#xa2;" horiz-adv-x="841" d="M121 276q0 244 122 382.5t330 138.5h11l67 385h62l-70 -391q109 -18 166 -86t57 -155t-44 -126t-103.5 -39t-102.5 43t-43 104.5t43 105.5t105 44q18 0 47 -8q-39 72 -145.5 71.5t-188.5 -135.5t-82 -401q0 -92 42 -136t105.5 -44t116 24.5t83 58t53.5 70.5q41 68 41 86 l36 -16q-6 -33 -32.5 -82t-59 -83t-96 -65.5t-141.5 -37.5l-56 -316h-61l55 314q-156 4 -236.5 82.5t-80.5 211.5z" />
<glyph unicode="&#xa3;" horiz-adv-x="1583" d="M18 -144.5q0 72.5 58.5 116.5t175.5 44q160 0 287 -118q25 76 41 168l63 366h-285l4 37h287l68 389q49 307 213 414q143 92 325.5 92t298 -104.5t115.5 -329.5h-49q0 182 -87 277.5t-220 95.5q-244 0 -289 -304q0 -51 -88 -530h559l-4 -37h-561q-12 -72 -51 -272 q-43 -240 -230 -371q111 -111 164 -127q20 -6 55 -18q59 -18 150.5 -18.5t159 34.5t107.5 81t71 103q39 68 57 136l49 -17q-53 -174 -168.5 -276.5t-269.5 -102.5q-121 0 -167 17.5t-66.5 22.5t-54.5 31t-40 30q-16 12 -84 79q-131 -78 -282.5 -77.5t-231.5 48.5t-80 120.5z M68 -144.5q0 -58.5 66.5 -94t156.5 -35.5t160 16q41 37 71 111q-65 61 -124.5 92.5t-144.5 31.5t-135 -31.5t-50 -90z" />
<glyph unicode="&#xa4;" horiz-adv-x="1445" d="M117 362l4 37h201q0 96 14 176h-178l4 37h182q66 287 292 461t554 174q180 0 260 -64.5t80 -201.5q0 -92 -90 -227q-82 -131 -82 -205h-45q0 41 16.5 88t28.5 67.5t45 73.5q80 121 80 199q0 164 -135 207q-63 20 -133 20t-148 -8q-377 -115 -473 -584h496l-5 -37h-497 q-14 -76 -21 -176h482l-5 -37h-479q-2 -29 -2 -83q0 -307 199 -406q49 -6 130 -6t171 30.5t139 75.5q104 96 129 166l12 31l41 -16q-14 -47 -55 -108.5t-93 -104.5t-151.5 -79t-220.5 -36q-250 0 -392 139t-150 397h-205z" />
<glyph unicode="&#xa5;" horiz-adv-x="2072" d="M199 651q0 264 152.5 430t396.5 166q451 0 450 -428q0 -217 -37 -327q510 1104 912 1103q109 0 157.5 -48t55.5 -150h-52q-10 88 -49 117.5t-114 29.5q-111 0 -235 -102.5t-243 -278.5q-221 -334 -413 -766h372l-4 -37h-385q-55 -125 -78 -184l-2 -2h428l-4 -37h-438 q-84 -209 -120 -336t-42 -145h-274q96 215 188 481q-238 8 -420 121q-94 57 -148 158.5t-54 234.5zM242 655q0 -133 55 -229t145 -147q178 -104 392 -105q20 59 57 186h-332l4 37h338q80 281 80 460t-67.5 263t-188.5 84q-174 0 -324 -131q-72 -66 -115.5 -175.5 t-43.5 -242.5z" />
<glyph unicode="&#xa6;" horiz-adv-x="387" d="M119 -252l114 651h62l-115 -651h-61zM281 659l106 603h62l-107 -603h-61z" />
<glyph unicode="&#xa7;" horiz-adv-x="946" d="M141 455q0 49 17.5 89t34.5 56l16 16l31 -22q-53 -59 -53.5 -139t56 -132.5t140.5 -52.5q203 0 203 299q0 80 -31 182.5t-31 184.5t52.5 136t144.5 54l61 -6v-57q-6 -4 -23.5 -1t-33.5 3t-50 -23.5t-34 -77t28.5 -104.5t63.5 -87t63.5 -94t28.5 -124t-24 -121 q31 -51 47 -82q47 -84 47 -217t-113.5 -229t-269.5 -96t-228.5 68.5t-72.5 168.5q0 49 17.5 89t33.5 57l17 16l30 -23q-53 -59 -53 -139t56.5 -132t140.5 -52q203 0 202 299q0 45 -8 106q-96 -51 -228 -51t-205 68.5t-73 169.5z" />
<glyph unicode="&#xa8;" horiz-adv-x="972" d="M203 1205q0 50 34.5 86t84 36t85 -36t35.5 -85t-35.5 -84t-86 -35t-84 34t-33.5 84zM530 1205q0 50 35 86t84 36t85 -36t36 -85t-36 -84t-86 -35t-84 34t-34 84z" />
<glyph unicode="&#xa9;" horiz-adv-x="1396" d="M174 455q0 82 19 153q57 274 264 443.5t481 169.5q231 0 365.5 -124t134.5 -333q0 -80 -17 -152q-57 -276 -264 -445t-483 -169q-233 0 -366.5 123t-133.5 334zM238 471q0 -197 120.5 -310.5t345 -113.5t412 159t248.5 402q14 63 14 142q0 192 -119.5 305.5t-350 113.5 t-416 -153.5t-240.5 -403.5q-14 -72 -14 -141zM432 502q0 53 14 108q37 176 159 299t307.5 123t256.5 -147l-53 -31q-68 131 -218 131t-255 -111q-147 -160 -147 -364q0 -121 61 -197.5t174 -76.5q178 0 291 131l33 -33q-131 -150 -334 -150q-139 0 -214 90.5t-75 227.5z " />
<glyph unicode="&#xaa;" horiz-adv-x="772" d="M252 987q0 160 78 251t193.5 91t146.5 -98l16 86q96 0 174 12l-98 -530q43 2 72 39l20 -17q-40 -51 -106 -51q-125 0 -136 107q-61 -106 -154 -106.5t-149.5 56t-56.5 160.5zM412 926q0 -123 63 -123q53 0 93 60.5t53 101.5l36 194q-4 55 -29.5 95t-64.5 40 q-68 0 -109.5 -122.5t-41.5 -245.5z" />
<glyph unicode="&#xab;" horiz-adv-x="880" d="M137 395l10 54q53 16 170 67q225 98 246 201h43q-12 -68 -92 -131q-127 -102 -330 -166q225 -88 283 -197q18 -33 18 -56.5t-4 -39.5h-43q2 10 2 20q0 127 -303 248zM440 395l11 54q53 16 170 67q225 98 245 201h43q-12 -68 -92 -131q-127 -102 -330 -166 q225 -88 283 -197q18 -33 18 -56.5t-4 -39.5h-43q2 10 2 20q0 127 -303 248z" />
<glyph unicode="&#xac;" horiz-adv-x="1323" d="M190 377l9 55h1081l-96 -577h-56l91 522h-1029z" />
<glyph unicode="&#xad;" horiz-adv-x="649" d="M184 377l4 37h416l-4 -37h-416z" />
<glyph unicode="&#xae;" horiz-adv-x="1396" d="M174 455q0 82 19 153q57 274 264 443.5t481 169.5q231 0 365.5 -124t134.5 -333q0 -80 -17 -152q-57 -276 -264 -445t-483 -169q-233 0 -366.5 123t-133.5 334zM238 471q0 -197 120.5 -310.5t345 -113.5t412 159t248.5 402q14 63 14 142q0 192 -119.5 305.5t-350 113.5 t-416 -153.5t-240.5 -403.5q-14 -72 -14 -141zM455 215q29 137 86 405.5t86 405.5h327q123 0 181 -70q39 -48 39 -114q0 -25 -7 -54q-16 -82 -83.5 -150.5t-170.5 -86.5q16 -55 48 -170t49 -166h-64l-96 332h-270l-68 -332h-57zM592 592h274q96 0 160 55q88 76 88 199 q0 37 -31 76q-43 55 -139 55h-270z" />
<glyph unicode="&#xb0;" horiz-adv-x="694" d="M250 975q0 147 76.5 246.5t253.5 99.5q111 0 168 -55.5t57 -151.5q0 -160 -86 -258t-246 -98q-223 0 -223 217zM299 979q0 -180 176 -180q135 0 210 79.5t75 231.5q0 82 -48 127t-132 45q-129 0 -205 -74.5t-76 -228.5z" />
<glyph unicode="&#xb1;" horiz-adv-x="995" d="M119 41l8 51h784l-8 -51h-784zM184 467l9 51h354l49 279h61l-49 -279h369l-8 -51h-369l-51 -272h-62l52 272h-355z" />
<glyph unicode="&#xb2;" horiz-adv-x="641" d="M219 803q43 27 225 139q101 64 129.5 108t28.5 103t-28.5 93t-70.5 34t-81 -29.5t-59.5 -58.5t-20.5 -35l-23 14q92 160 271 160q152 0 151 -131q0 -78 -68.5 -137t-252.5 -172l-135 -84h348l69 162l23 -8l-74 -183h-424z" />
<glyph unicode="&#xb3;" horiz-adv-x="598" d="M176 682l29 -2q0 -100 129 -100q109 0 195.5 69.5t86.5 167.5q0 68 -39.5 101.5t-107.5 33.5l-59 -6l-9 29q96 33 131 61q59 45 60 144q0 51 -28.5 76.5t-61.5 25.5h-21.5t-52.5 -25q-51 -37 -70 -71l-24 12q88 133 250 133q63 0 99 -30.5t36 -97t-67.5 -126 t-159.5 -98.5q68 -4 106 -37q53 -41 53 -123q0 -117 -98 -192.5t-219 -75.5q-158 0 -158 131z" />
<glyph unicode="&#xb4;" horiz-adv-x="296" d="M68 958l108 218l53 -21l-108 -217z" />
<glyph unicode="&#xb5;" horiz-adv-x="1128" d="M147 -184q33 176 65 343t47 248.5t30 157.5q22 117 26 191q-49 0 -102 -58l-31 25q14 29 63.5 51.5t108.5 22.5q186 0 187 -168q0 -70 -38 -248t-38 -246q0 -92 86 -92q59 0 115.5 69.5t97.5 192.5l86 473q152 0 221 13l27 6l-137 -774q61 6 102 57l31 -25 q-61 -74 -153.5 -73.5t-144 45.5t-53.5 127q-86 -172 -254 -172q-39 0 -63 14l-31 -180h-248z" />
<glyph unicode="&#xb6;" horiz-adv-x="1157" d="M178 697q0 239 225.5 394.5t612.5 155.5q4 37 22 142l6 32l41 -8l-6 -33q-18 -100 -22 -133h16q111 0 230 -14v-41l-109 12q-12 -102 -65.5 -444t-100.5 -587t-211 -371t-350 -126v39q252 12 403 195q84 100 113 244q107 563 170 1052l-80 2h-20q-86 -596 -160 -985 q-43 -221 -184.5 -322.5t-370.5 -121.5v43q184 0 330.5 102.5t185.5 331.5l4 25q-63 -6 -123 -7q-213 0 -362 82q-195 102 -195 341z" />
<glyph unicode="&#xb7;" horiz-adv-x="497" d="M184 487.5q0 61.5 43 105.5t104.5 44t105.5 -44t44 -105.5t-44 -104.5t-105.5 -43t-104.5 43t-43 104.5z" />
<glyph unicode="&#xb8;" horiz-adv-x="561" d="M90 -238q0 68 50 108t151 40l18 94h37l-22 -133h-33q-72 0 -114 -29.5t-42 -81.5q0 -98 148 -98q47 0 89 13.5t60 25.5l19 14l20 -34q-59 -58 -190 -58q-190 0 -191 139z" />
<glyph unicode="&#xb9;" horiz-adv-x="417" d="M233 778l158 482l-100 -21l-8 27l313 63l-197 -551h-166z" />
<glyph unicode="&#xba;" horiz-adv-x="690" d="M252 973q0 356 330 356q109 0 165 -54t56 -149q0 -160 -85 -258t-245 -98q-109 0 -165 54.5t-56 148.5zM412 915q0 -112 63 -112q68 0 119 113.5t51 269.5q0 117 -64.5 117t-116.5 -108t-52 -280z" />
<glyph unicode="&#xbb;" horiz-adv-x="880" d="M121 127q12 68 92 131q127 102 330 166q-225 88 -285 197q-16 33 -16 56t4 40h43q-2 -11 -2 -21q0 -127 303 -247l-10 -54q-53 -16 -170 -67q-225 -98 -246 -201h-43zM424 127q12 68 92 131q127 102 330 166q-225 88 -285 197q-16 33 -16 56t4 40h43q-2 -11 -2 -21 q0 -127 303 -247l-10 -54q-53 -16 -170 -67q-225 -98 -246 -201h-43z" />
<glyph unicode="&#xbc;" horiz-adv-x="1189" d="M223 778l158 488l-96 -21l-13 39l338 70l-207 -576h-180zM242 -70l727 1444l39 -16l-725 -1444zM512 -12v35l666 555l-158 -445h113v-145h-164l-95 -262l-45 2l91 260h-408zM709 133h264l112 318z" />
<glyph unicode="&#xbd;" horiz-adv-x="1153" d="M225 778l158 488l-96 -21l-13 39l338 70l-206 -576h-181zM244 -70l723 1444q33 -8 45 -14l-727 -1446zM602 23l232 143q96 63 127.5 109.5t31.5 101.5t-28.5 88t-68.5 33t-78 -32t-57.5 -61.5t-19.5 -35.5l-39 22q96 170 285 170q160 0 160 -139q0 -82 -70.5 -144.5 t-259.5 -175.5l-115 -73h324l72 168l35 -15l-80 -194h-441z" />
<glyph unicode="&#xbe;" horiz-adv-x="1382" d="M166 692l43 -2q0 -100 115.5 -100t202.5 68.5t87 164.5q0 66 -39.5 98.5t-87 32.5t-81.5 -8l-13 43q106 35 150.5 73t44.5 109.5t-26.5 95t-44 23.5h-19.5q-33 0 -77 -32.5t-61 -67.5l-36 18q96 145 262 146q145 0 145 -133q0 -68 -62.5 -128.5t-150.5 -99.5 q45 -8 88 -39q55 -45 56 -129q0 -121 -102.5 -199.5t-227.5 -78.5q-166 0 -166 145zM434 -70l725 1444l43 -14l-725 -1446zM705 -12v35l667 555l-160 -445h113v-145h-164l-94 -262l-43 2l90 260h-409zM903 133h262q27 78 115 318z" />
<glyph unicode="&#xbf;" horiz-adv-x="944" d="M92 -25q0 49 12 99q27 106 89.5 185t187.5 187.5t190 235.5l50 -25q-63 -135 -235.5 -275t-225.5 -312q-8 -35 -8 -78q0 -119 70.5 -188.5t224 -69.5t265 106.5t142.5 259.5h59q-35 -180 -168 -302t-306 -122t-260 83t-87 216zM535 831q0 43 30.5 73t73.5 30t72.5 -30 t29.5 -73t-29.5 -73.5t-72.5 -30.5t-73.5 30.5t-30.5 73.5z" />
<glyph unicode="&#xc0;" horiz-adv-x="2353" d="M109 255q0 226 145 402.5t376.5 176.5t352.5 -138q29 -37 41 -55q111 -47 252 -156q106 -86 158 -118q29 53 79 143t76.5 137t79.5 133t87 130t90.5 110.5t103.5 99.5q141 100 237 117q53 8 90 8t82 -1t127 -23l-10 -39q-49 14 -104 20q-205 -805 -236 -1286q53 0 102 57 l31 -24q-6 -8 -16 -20.5t-50 -33t-87 -20.5q-229 0 -230 199q0 61 15 182q-98 -31 -177 -31q-137 0 -274 84q-80 -137 -149.5 -234.5t-161.5 -189.5q-190 -186 -459.5 -186t-429.5 172q-141 158 -141 384zM150 253q0 -212 131 -353q147 -160 411 -160q242 0 422 182 q90 88 156.5 182.5t144.5 227.5q-70 45 -169 124t-191 126q35 -87 35 -179q0 -152 -87.5 -268.5t-234.5 -116.5q-96 0 -156.5 57.5t-60.5 119t18.5 101.5t42 60.5t52.5 32.5q39 20 61 21l4 -41q-51 0 -94 -49.5t-43 -111t48 -105.5t128 -44q131 0 207 102.5t76 227.5 t-52 217q-113 43 -223 43q-213 0 -301 -198l-39 12q23 51 72 110q96 117 268 117q92 0 182 -26l-4 6q-113 123 -324.5 123t-345.5 -164t-134 -376zM1470 344q131 -78 241 -78t196 35q49 346 184 860q-164 -78 -301 -276q-100 -143 -242 -400zM2098 1544l53 21l108 -218 l-53 -20z" />
<glyph unicode="&#xc1;" horiz-adv-x="2353" d="M109 255q0 226 145 402.5t376.5 176.5t352.5 -138q29 -37 41 -55q111 -47 252 -156q106 -86 158 -118q14 27 41.5 76t75.5 137t118 200q53 86 87 130t90.5 110.5t102.5 99.5t111.5 70t123 46t135 9.5t167.5 -24.5l-10 -39q-49 14 -104 20q-205 -805 -236 -1286 q59 0 102 57l31 -24l-16 -19q-14 -18 -52 -36.5t-85 -18.5q-229 0 -230 199q0 61 15 182q-98 -31 -177 -31q-137 0 -274 84q-80 -137 -149.5 -234.5t-161.5 -189.5q-190 -186 -447 -186q-283 0 -442 172q-141 158 -141 384zM150 253q0 -212 131 -353q147 -160 400 -160 t433 182q90 88 156.5 182.5t144.5 227.5q-70 45 -169 124t-191 126q35 -87 35 -179q0 -152 -87.5 -268.5t-234.5 -116.5q-96 0 -156.5 57.5t-60.5 142.5t59 138q25 20 58.5 37t56.5 17l4 -41q-51 0 -102 -58q-35 -41 -35 -102.5t48 -105.5t128 -44q131 0 207 102.5t76 227.5 t-52 217q-113 43 -223 43q-147 0 -237 -98q-29 -31 -64 -100l-39 12l19 37q4 10 35.5 54t64.5 67.5t93.5 46t140 22.5t169.5 -26l-4 6q-113 123 -324.5 123t-345.5 -164t-134 -376zM1470 344q131 -78 241 -78t196 35q49 346 184 860q-82 -39 -155.5 -105.5t-159.5 -190.5 t-228 -380zM2222 1348l109 217l53 -21l-109 -217z" />
<glyph unicode="&#xc2;" horiz-adv-x="2353" d="M109 255q0 226 145 402.5t376.5 176.5t352.5 -138q29 -37 41 -55q111 -47 252 -156q106 -86 158 -118q29 53 79 143t76.5 137t79.5 133t87 130t90.5 110.5t103.5 99.5q141 100 237 117q53 8 90 8t82 -1t127 -23l-10 -39q-49 14 -104 20q-205 -805 -236 -1286q53 0 102 57 l31 -24q-6 -8 -16 -20.5t-50 -33t-87 -20.5q-229 0 -230 199q0 61 15 182q-98 -31 -177 -31q-137 0 -274 84q-80 -137 -149.5 -234.5t-161.5 -189.5q-190 -186 -459.5 -186t-429.5 172q-141 158 -141 384zM150 253q0 -212 131 -353q147 -160 411 -160q242 0 422 182 q90 88 156.5 182.5t144.5 227.5q-70 45 -169 124t-191 126q35 -87 35 -179q0 -152 -87.5 -268.5t-234.5 -116.5q-96 0 -156.5 57.5t-60.5 119t18.5 101.5t42 60.5t52.5 32.5q39 20 61 21l4 -41q-51 0 -94 -49.5t-43 -111t48 -105.5t128 -44q131 0 207 102.5t76 227.5 t-52 217q-113 43 -223 43q-213 0 -301 -198l-39 12q23 51 72 110q96 117 268 117q92 0 182 -26l-4 6q-113 123 -324.5 123t-345.5 -164t-134 -376zM1470 344q131 -78 241 -78t196 35q49 346 184 860q-164 -78 -301 -276q-100 -143 -242 -400zM1939 1364l334 368h55l197 -381 l-51 -24l-181 348l-309 -346z" />
<glyph unicode="&#xc3;" horiz-adv-x="2353" d="M109 255q0 226 145 402.5t376.5 176.5t352.5 -138q29 -37 41 -55q111 -47 252 -156q106 -86 158 -118q14 27 41.5 76t75.5 137t118 200q53 86 87 130t90.5 110.5t102.5 99.5t111.5 70t123 46t135 9.5t167.5 -24.5l-10 -39q-49 14 -104 20q-205 -805 -236 -1286 q59 0 102 57l31 -24l-16 -19q-14 -18 -52 -36.5t-85 -18.5q-229 0 -230 199q0 61 15 182q-98 -31 -177 -31q-137 0 -274 84q-80 -137 -149.5 -234.5t-161.5 -189.5q-190 -186 -447 -186q-283 0 -442 172q-141 158 -141 384zM150 253q0 -212 131 -353q147 -160 400 -160 t433 182q90 88 156.5 182.5t144.5 227.5q-70 45 -169 124t-191 126q35 -87 35 -179q0 -152 -87.5 -268.5t-234.5 -116.5q-96 0 -156.5 57.5t-60.5 142.5t59 138q25 20 58.5 37t56.5 17l4 -41q-51 0 -102 -58q-35 -41 -35 -102.5t48 -105.5t128 -44q131 0 207 102.5t76 227.5 t-52 217q-113 43 -223 43q-147 0 -237 -98q-29 -31 -64 -100l-39 12l19 37q4 10 35.5 54t64.5 67.5t93.5 46t140 22.5t169.5 -26l-4 6q-113 123 -324.5 123t-345.5 -164t-134 -376zM1470 344q131 -78 241 -78t196 35q49 346 184 860q-82 -39 -155.5 -105.5t-159.5 -190.5 t-228 -380zM1726 1333q68 168 201 238q55 28 116.5 28t97.5 -22.5t49.5 -55t25.5 -65.5q27 -78 100.5 -78t137 55.5t90.5 110.5l24 55h53q-4 -10 -11 -28.5t-33.5 -65.5t-58.5 -83t-88 -65.5t-124 -29.5t-104.5 35t-45 77t-37 76.5t-89 34.5t-121 -54t-92 -108.5 t-27.5 -54.5h-64z" />
<glyph unicode="&#xc4;" horiz-adv-x="2353" d="M109 255q0 226 145 402.5t376.5 176.5t352.5 -138q29 -37 41 -55q111 -47 252 -156q106 -86 158 -118q29 53 79 143t76.5 137t79.5 133t87 130t90.5 110.5t103.5 99.5q141 100 237 117q53 8 90 8t82 -1t127 -23l-10 -39q-49 14 -104 20q-205 -805 -236 -1286q53 0 102 57 l31 -24q-6 -8 -16 -20.5t-50 -33t-87 -20.5q-229 0 -230 199q0 61 15 182q-98 -31 -177 -31q-137 0 -274 84q-80 -137 -149.5 -234.5t-161.5 -189.5q-190 -186 -459.5 -186t-429.5 172q-141 158 -141 384zM150 253q0 -212 131 -353q147 -160 411 -160q242 0 422 182 q90 88 156.5 182.5t144.5 227.5q-70 45 -169 124t-191 126q35 -87 35 -179q0 -152 -87.5 -268.5t-234.5 -116.5q-96 0 -156.5 57.5t-60.5 119t18.5 101.5t42 60.5t52.5 32.5q39 20 61 21l4 -41q-51 0 -94 -49.5t-43 -111t48 -105.5t128 -44q131 0 207 102.5t76 227.5 t-52 217q-113 43 -223 43q-213 0 -301 -198l-39 12q23 51 72 110q96 117 268 117q92 0 182 -26l-4 6q-113 123 -324.5 123t-345.5 -164t-134 -376zM1470 344q131 -78 241 -78t196 35q49 346 184 860q-164 -78 -301 -276q-100 -143 -242 -400zM1944 1445q0 50 34.5 86t84 36 t85 -36t35.5 -85t-35.5 -84t-86 -35t-84 34t-33.5 84zM2271 1445q0 50 35 86t84 36t85 -36t36 -85t-36 -84t-86 -35t-84 34t-34 84z" />
<glyph unicode="&#xc5;" horiz-adv-x="2353" d="M109 255q0 226 145 402.5t376.5 176.5t352.5 -138q29 -37 41 -55q111 -47 252 -156q106 -86 158 -118q29 53 79 143t76.5 137t79.5 133t87 130t90.5 110.5t103.5 99.5q141 100 237 117q53 8 90 8t82 -1t127 -23l-10 -39q-49 14 -104 20q-205 -805 -236 -1286q53 0 102 57 l31 -24q-6 -8 -16 -20.5t-50 -33t-87 -20.5q-229 0 -230 199q0 61 15 182q-98 -31 -177 -31q-137 0 -274 84q-80 -137 -149.5 -234.5t-161.5 -189.5q-190 -186 -459.5 -186t-429.5 172q-141 158 -141 384zM150 253q0 -212 131 -353q147 -160 411 -160q242 0 422 182 q90 88 156.5 182.5t144.5 227.5q-70 45 -169 124t-191 126q35 -87 35 -179q0 -152 -87.5 -268.5t-234.5 -116.5q-96 0 -156.5 57.5t-60.5 119t18.5 101.5t42 60.5t52.5 32.5q39 20 61 21l4 -41q-51 0 -94 -49.5t-43 -111t48 -105.5t128 -44q131 0 207 102.5t76 227.5 t-52 217q-113 43 -223 43q-213 0 -301 -198l-39 12q23 51 72 110q96 117 268 117q92 0 182 -26l-4 6q-113 123 -324.5 123t-345.5 -164t-134 -376zM1470 344q131 -78 241 -78t196 35q49 346 184 860q-164 -78 -301 -276q-100 -143 -242 -400zM2148 1427q0 41 31 71t72 30 t70.5 -30t29.5 -71t-29.5 -70.5t-70.5 -29.5t-72 29.5t-31 70.5zM2189 1428.5q0 -25.5 18.5 -44t44 -18.5t44 18.5t18.5 44t-18.5 44t-44 18.5t-44 -18.5t-18.5 -44z" />
<glyph unicode="&#xc6;" horiz-adv-x="2902" d="M109 255q0 226 145 402.5t376.5 176.5t352.5 -138q29 -37 41 -55q111 -47 252 -156q106 -86 158 -118q29 53 81 147t84.5 150.5t89 146.5t99.5 142.5t105.5 116t121.5 97.5q141 80 289 80q55 0 168 -19.5t197 -19.5q215 0 307 41q12 74 12 113h47q0 -117 -87 -329 t-87 -304h-45q0 96 69.5 268t80.5 209q-90 -35 -297 -35q-133 0 -205 15.5t-90 17.5q-80 -291 -152 -680h655l-4 -37h-657q-53 -291 -80 -571h16q121 0 305.5 58.5t338.5 66.5l-7 -41q-131 -6 -325.5 -65.5t-347.5 -59.5q-229 0 -230 199q0 61 15 182q-84 -31 -177 -31 q-137 0 -274 84q-80 -137 -149.5 -234.5t-161.5 -189.5q-190 -186 -459.5 -186t-429.5 172q-141 158 -141 384zM150 253q0 -212 131 -353q147 -160 411 -160q242 0 422 182q90 88 156.5 182.5t144.5 227.5q-70 45 -169 124t-191 126q35 -87 35 -179q0 -152 -87.5 -268.5 t-234.5 -116.5q-96 0 -156.5 57.5t-60.5 119t18.5 101.5t42 60.5t52.5 32.5q39 20 61 21l4 -41q-51 0 -94 -49.5t-43 -111t48 -105.5t128 -44q131 0 207 102.5t76 227.5t-52 217q-113 43 -223 43q-213 0 -301 -198l-39 12q23 51 72 110q96 117 268 117q92 0 182 -26l-4 6 q-113 123 -324.5 123t-345.5 -164t-134 -376zM1470 344q138 -82 259 -82q74 0 176 37q43 311 186 862q-72 -35 -143.5 -100.5t-116.5 -118.5t-111 -160q-84 -133 -172 -297z" />
<glyph unicode="&#xc7;" horiz-adv-x="1318" d="M188 397q0 371 240 610.5t629 239.5q180 0 260 -64.5t80 -201.5q0 -92 -90 -227q-82 -131 -82 -205h-45q0 41 16 88t28.5 67.5t45.5 73.5q80 121 80 199q0 164 -136 207q-63 20 -131.5 20t-150.5 -8q-92 -29 -171 -84t-159 -156.5t-126 -275.5t-46 -401q0 -307 199 -406 q49 -6 130 -6t171 30.5t139 75.5q104 96 131 166l10 31l41 -16q-39 -119 -139 -203q-49 -43 -140 -80t-204 -43l-8 -90h-29q-133 0 -133 -92q0 -45 29.5 -63.5t85.5 -18.5q96 0 143 35l16 12l19 -37q-53 -51 -170 -51q-170 0 -170 123q0 59 45 96t129 37l4 47 q-258 2 -399.5 150.5t-141.5 420.5z" />
<glyph unicode="&#xc8;" horiz-adv-x="1153" d="M133 223.5q0 149.5 93 237.5t220 123q-92 113 -92 267.5t124 275t358 120.5q178 0 273 -62.5t95 -155.5t-48 -190.5t-54 -154.5h-43q6 61 54 157.5t48 179.5t-87 136t-221 53t-228.5 -103t-94.5 -316q0 -115 29 -164q106 35 247.5 35t141.5 -82q0 -49 -53 -81t-154 -32 q-158 0 -254 76q-37 -39 -57 -65.5t-46 -102.5t-26 -182.5t90.5 -185.5t187.5 -79t181 37t133 86t86 109q51 76 68 133l41 -10q0 -6 -15.5 -43t-56.5 -97.5t-98 -117t-157.5 -97.5t-219.5 -41q-219 0 -342 93.5t-123 243zM575 592q4 -10 14.5 -24.5t52.5 -39t111.5 -24.5 t111.5 21.5t42 49.5q0 49 -110.5 49.5t-221.5 -32.5zM717 1544l53 21l108 -218l-53 -20z" />
<glyph unicode="&#xc9;" horiz-adv-x="1153" d="M133 223.5q0 149.5 93 237.5t220 123q-92 113 -92 267.5t124 275t358 120.5q178 0 273 -62.5t95 -155.5t-48 -190.5t-54 -154.5h-43q6 61 54 157.5t48 179.5t-87 136t-221 53t-228.5 -103t-94.5 -316q0 -127 29 -164q106 35 247.5 35t141.5 -82q0 -49 -53 -81t-154 -32 q-158 0 -254 76q-37 -39 -57 -65.5t-46 -102.5t-26 -182.5t90.5 -185.5t187.5 -79t181 37t133 86t93 117t61 125l41 -10q0 -6 -15.5 -43t-56.5 -97.5t-98 -117t-157.5 -97.5t-219.5 -41q-219 0 -342 93.5t-123 243zM575 592l15 -23q12 -20 53 -42.5t110.5 -22.5t111.5 21.5 t42 49.5q0 49 -110.5 49.5t-221.5 -32.5zM836 1348l108 217l53 -21l-108 -217z" />
<glyph unicode="&#xca;" horiz-adv-x="1153" d="M133 223.5q0 149.5 93 237.5t220 123q-92 113 -92 267.5t124 275t358 120.5q178 0 273 -62.5t95 -155.5t-48 -190.5t-54 -154.5h-43q6 61 54 157.5t48 179.5t-87 136t-221 53t-228.5 -103t-94.5 -316q0 -115 29 -164q106 35 247.5 35t141.5 -82q0 -49 -53 -81t-154 -32 q-158 0 -254 76q-37 -39 -57 -65.5t-46 -102.5t-26 -182.5t90.5 -185.5t187.5 -79t181 37t133 86t86 109q51 76 68 133l41 -10q0 -6 -15.5 -43t-56.5 -97.5t-98 -117t-157.5 -97.5t-219.5 -41q-219 0 -342 93.5t-123 243zM561 1364l334 368h55l197 -381l-51 -24l-181 348 l-309 -346zM575 592q4 -10 14.5 -24.5t52.5 -39t111.5 -24.5t111.5 21.5t42 49.5q0 49 -110.5 49.5t-221.5 -32.5z" />
<glyph unicode="&#xcb;" horiz-adv-x="1153" d="M133 223.5q0 149.5 93 237.5t220 123q-92 113 -92 267.5t124 275t358 120.5q178 0 273 -62.5t95 -155.5t-48 -190.5t-54 -154.5h-43q6 61 54 157.5t48 179.5t-87 136t-221 53t-228.5 -103t-94.5 -316q0 -127 29 -164q106 35 247.5 35t141.5 -82q0 -49 -53 -81t-154 -32 q-158 0 -254 76q-37 -39 -57 -65.5t-46 -102.5t-26 -182.5t90.5 -185.5t187.5 -79t181 37t133 86t93 117t61 125l41 -10q0 -6 -15.5 -43t-56.5 -97.5t-98 -117t-157.5 -97.5t-219.5 -41q-219 0 -342 93.5t-123 243zM555 1445q0 50 35 86t84 36t85 -36t36 -85t-36 -84 t-86 -35t-84 34t-34 84zM575 592l15 -23q12 -20 53 -42.5t110.5 -22.5t111.5 21.5t42 49.5q0 49 -110.5 49.5t-221.5 -32.5zM883 1445q0 50 34.5 86t84 36t85 -36t35.5 -85t-35.5 -84t-86 -35t-84 34t-33.5 84z" />
<glyph unicode="&#xcc;" horiz-adv-x="1251" d="M184 756q0 492 424 491q137 0 387 -104.5t381 -104.5v-47q-53 0 -121 15q-14 -4 -50 -46t-66 -96q-86 -156 -152 -397h221l-4 -37h-227q-14 -47 -33 -129q-84 -367 -177 -523.5t-273 -156.5q-109 0 -150 25l21 43q29 -29 141 -29q14 0 47 4l145 631q6 27 18.5 76t14.5 59 h-223l4 37h227q80 301 159 439t185 153q-25 10 -109.5 47t-121.5 51q-125 47 -231 47q-195 0 -292.5 -106.5t-97.5 -341.5h-47zM1039 1544l53 21l108 -218l-53 -20z" />
<glyph unicode="&#xcd;" horiz-adv-x="1251" d="M184 756q0 492 424 491q137 0 387 -104.5t381 -104.5v-47q-53 0 -121 15l-14 -11q-31 -18 -100 -131q-82 -131 -154 -397h221l-4 -37h-227q-14 -47 -33 -129q-84 -367 -177 -523.5t-273 -156.5q-121 0 -150 25l21 43q41 -29 141 -29q14 0 47 4l145 631q6 27 18.5 76 t14.5 59h-223l4 37h227q80 301 159 439t185 153q-25 10 -109.5 47t-121.5 51q-125 47 -231 47q-195 0 -292.5 -106.5t-97.5 -341.5h-47zM1186 1348l108 217l54 -21l-109 -217z" />
<glyph unicode="&#xce;" horiz-adv-x="1251" d="M184 756q0 492 424 491q137 0 387 -104.5t381 -104.5v-47q-53 0 -121 15q-14 -4 -50 -46t-66 -96q-86 -156 -152 -397h221l-4 -37h-227q-14 -47 -33 -129q-84 -367 -177 -523.5t-273 -156.5q-109 0 -150 25l21 43q29 -29 141 -29q14 0 47 4l145 631q6 27 18.5 76t14.5 59 h-223l4 37h227q80 301 159 439t185 153q-25 10 -109.5 47t-121.5 51q-125 47 -231 47q-195 0 -292.5 -106.5t-97.5 -341.5h-47zM866 1364l334 368h55l197 -381l-51 -24l-181 348l-309 -346z" />
<glyph unicode="&#xcf;" horiz-adv-x="1251" d="M184 756q0 492 424 491q137 0 387 -104.5t381 -104.5v-47q-53 0 -121 15l-14 -11q-31 -18 -100 -131q-82 -131 -154 -397h221l-4 -37h-227q-14 -47 -33 -129q-84 -367 -177 -523.5t-273 -156.5q-121 0 -150 25l21 43q41 -29 141 -29q14 0 47 4l145 631q6 27 18.5 76 t14.5 59h-223l4 37h227q80 301 159 439t185 153q-25 10 -109.5 47t-121.5 51q-125 47 -231 47q-195 0 -292.5 -106.5t-97.5 -341.5h-47zM868 1445q0 50 35 86t84 36t85 -36t36 -85t-36 -84t-86 -35t-84 34t-34 84zM1196 1445q0 50 35 86t84 36t85 -36t36 -85t-36 -84 t-86 -35t-84 34t-34 84z" />
<glyph unicode="&#xd0;" horiz-adv-x="1986" d="M215 600q0 160 90 300t279 230q-135 115 -357 152l9 39q248 -45 387 -174q248 100 605 100t562 -162.5t205 -453.5q0 -297 -201 -525q-96 -113 -259 -180t-334 -67t-290 32q-141 -100 -301 -100v39q80 2 116 21.5t62 82.5q-106 47 -186 120t-107.5 118t-27.5 53l37 15 q0 -8 25.5 -49t100.5 -110t173 -112q29 72 47 178l39 230h-168l4 37h170l137 786q-213 -16 -377 -84q139 -147 139.5 -344t-101 -310.5t-224.5 -113.5t-188.5 75t-65.5 177zM254 600q0 -84 54 -148.5t162 -64.5t189.5 94t94.5 240q2 27 2 53q0 184 -142 326 q-184 -84 -272 -216t-88 -284zM950 -80q108 -24 217 -24q195 0 350.5 64.5t247.5 170.5q190 217 190.5 486.5t-175.5 421t-492 167.5q-92 -608 -125 -792h346l-4 -37h-348q-8 -39 -27 -146q-37 -188 -180 -311z" />
<glyph unicode="&#xd1;" horiz-adv-x="2635" d="M39 121q0 31 4 63l39 -6q-2 -27 -2 -53q0 -162 96 -272q121 -137 322 -138q250 0 438 164t405 570l349 634q-211 4 -399.5 64.5t-344 60.5t-259 -106.5t-103.5 -276.5h-39q0 186 114.5 305t294.5 119q143 0 349 -62.5t442 -62.5l328 -891q164 260 267 444.5t165.5 281 t111.5 147.5q113 115 256 115v-41q-80 0 -146.5 -42t-139 -141.5t-132 -200t-166 -283.5t-198.5 -327q59 -145 103 -231t92 -135t124 -49q135 0 185 149h45q-2 -8 -5 -22.5t-23.5 -51t-51.5 -65.5t-93.5 -51.5t-142.5 -22.5q-172 0 -278.5 85t-179.5 257l-285 756l-207 -377 q-223 -418 -417.5 -586t-458.5 -168q-211 0 -351 150q-109 121 -108 297zM1850 1251q68 168 200 238q56 29 117 29t97 -23t49.5 -55.5t25.5 -65.5q27 -78 100.5 -78t137 55.5t90.5 110.5l24 56h54q-4 -10 -11.5 -29t-34 -66t-58.5 -82.5t-88 -65.5t-123.5 -30t-104.5 35 t-45.5 77t-37 76.5t-89 34.5t-121 -54t-92 -108.5t-27.5 -54.5h-63z" />
<glyph unicode="&#xd2;" horiz-adv-x="1531" d="M182 356q0 367 233.5 623t581.5 270l2 -41q-133 -4 -238.5 -66.5t-170 -157.5t-107.5 -222q-74 -223 -73.5 -466t108 -349.5t244.5 -106.5q186 0 355 124t265.5 311.5t96.5 384t-88 308t-250 111.5q-195 0 -305.5 -135t-110.5 -317q0 -80 24.5 -139.5t55.5 -88t69 -47.5 q51 -25 89 -24l-2 -41q-35 0 -89.5 24.5t-91.5 57t-66.5 100.5t-29.5 158q0 199 122 345t335 146q178 0 278.5 -123t100.5 -342q0 -154 -60.5 -308.5t-164 -277t-258 -200.5t-328.5 -78q-248 0 -387.5 150.5t-139.5 416.5zM1014 1544l53 21l108 -218l-53 -20z" />
<glyph unicode="&#xd3;" horiz-adv-x="1531" d="M182 356q0 367 233.5 623t581.5 270l2 -41q-133 -4 -238.5 -66.5t-170 -157.5t-107.5 -222q-74 -223 -73.5 -466t108 -349.5t244.5 -106.5q186 0 355 124t265.5 311.5t96.5 384t-88 308t-250 111.5q-195 0 -305.5 -135t-110.5 -317q0 -80 24.5 -139.5t55.5 -88t69 -47.5 q51 -25 89 -24l-2 -41q-35 0 -89.5 24.5t-91.5 57t-66.5 100.5t-29.5 158q0 199 122 345t335 146q178 0 278.5 -123t100.5 -342q0 -154 -60.5 -308.5t-164 -277t-258 -200.5t-328.5 -78q-248 0 -387.5 150.5t-139.5 416.5zM1194 1347l108 218l53 -21l-108 -217z" />
<glyph unicode="&#xd4;" horiz-adv-x="1531" d="M182 356q0 367 233.5 623t581.5 270l2 -41q-133 -4 -238.5 -66.5t-170 -157.5t-107.5 -222q-74 -223 -73.5 -466t108 -349.5t244.5 -106.5q186 0 355 124t265.5 311.5t96.5 384t-88 308t-250 111.5q-195 0 -305.5 -135t-110.5 -317q0 -80 24.5 -139.5t55.5 -88t76 -50 t82 -21.5l-2 -41q-35 0 -99 28q-45 20 -82 53t-66.5 101t-29.5 158q0 199 122 345t335 146q178 0 278.5 -123t100.5 -342q0 -154 -60.5 -308.5t-164 -277t-258 -200.5t-328.5 -78q-248 0 -387.5 150.5t-139.5 416.5zM803 1364l334 369h55l197 -381l-52 -25l-180 348 l-309 -346z" />
<glyph unicode="&#xd5;" horiz-adv-x="1531" d="M182 356q0 367 233.5 623t581.5 270l2 -41q-133 -4 -238.5 -66.5t-170 -157.5t-107.5 -222q-74 -223 -73.5 -466t108 -349.5t244.5 -106.5q186 0 355 124t265.5 311.5t96.5 384t-88 308t-250 111.5q-195 0 -305.5 -135t-110.5 -317q0 -80 24.5 -139.5t55.5 -88t69 -47.5 q51 -25 89 -24l-2 -41q-35 0 -89.5 24.5t-91.5 57t-66.5 100.5t-29.5 158q0 199 122 345t335 146q178 0 278.5 -123t100.5 -342q0 -154 -60.5 -308.5t-164 -277t-258 -200.5t-328.5 -78q-248 0 -387.5 150.5t-139.5 416.5zM615 1333q68 168 200 238q56 29 117 29t97 -23 t49.5 -55.5t25.5 -65.5q27 -78 100.5 -78t137 55.5t90.5 110.5l24 56h54q-4 -10 -11.5 -29t-34 -66t-58.5 -82.5t-88 -65.5t-123.5 -30t-104.5 35t-45.5 77t-37 76.5t-89 34.5t-121 -54t-92 -108.5t-27.5 -54.5h-63z" />
<glyph unicode="&#xd6;" horiz-adv-x="1531" d="M182 356q0 367 233.5 623t581.5 270l2 -41q-133 -4 -238.5 -66.5t-170 -157.5t-107.5 -222q-74 -223 -73.5 -466t108 -349.5t244.5 -106.5q186 0 355 124t265.5 311.5t96.5 384t-88 308t-250 111.5q-195 0 -305.5 -135t-110.5 -317q0 -80 24.5 -139.5t55.5 -88t76 -50 t82 -21.5l-2 -41q-35 0 -99 28q-45 20 -82 53t-66.5 101t-29.5 158q0 199 122 345t335 146q178 0 278.5 -123t100.5 -342q0 -154 -60.5 -308.5t-164 -277t-258 -200.5t-328.5 -78q-248 0 -387.5 150.5t-139.5 416.5zM760 1451q0 50 34.5 86t84 36t85 -36t35.5 -85t-35.5 -84 t-86 -35t-84 34t-33.5 84zM1087 1451q0 50 35 86t84 36t85 -36t36 -85t-36 -84t-86 -35t-84 34t-34 84z" />
<glyph unicode="&#xd7;" horiz-adv-x="718" d="M70 39l315 348l-184 356l51 25l180 -348l309 346l45 -35l-315 -348l184 -356l-51 -25l-180 348l-309 -346z" />
<glyph unicode="&#xd8;" horiz-adv-x="1531" d="M182 356q0 367 233.5 623t581.5 270l2 -41q-133 -4 -238.5 -66.5t-170 -157.5t-107.5 -222q-74 -223 -74 -484t158 -376l226 456q-109 90 -109 278.5t122 335t335 146.5q18 0 26 -2l115 232l41 -21l-106 -215q143 -27 223 -145.5t80 -292.5t-60.5 -329t-164 -277.5 t-258 -200.5t-328.5 -78q-61 0 -138 14l-116 -237l-43 18l112 232q-164 49 -253 188t-89 352zM608 -123q74 -37 154 -37q186 0 355 124t265.5 311.5t96.5 375t-73 296t-208 128.5l-348 -706q53 -31 117 -39l-6 -39q-59 0 -130 41zM725 642q0 -167 88 -245l336 682h-8 q-195 0 -305.5 -135t-110.5 -302z" />
<glyph unicode="&#xd9;" horiz-adv-x="1839" d="M174 766q0 213 131 347t336 134q164 0 354 -63q219 -80 475 -80v-43q-154 0 -245 14q-25 -102 -72 -283.5t-65.5 -276.5t-18.5 -195.5t68.5 -165t177 -64.5t181.5 73t108 159l241 1040h43l-286 -1231q-18 -76 -19 -102q0 -86 80 -86q57 0 100 59l29 -25q-14 -27 -51 -50 t-89.5 -23t-82 34.5t-29.5 84.5l25 135l10 47q-55 -86 -148.5 -154.5t-205.5 -68.5q-188 0 -289 99t-101 269q0 135 29 252t69.5 274t65.5 257q-162 70 -351 69.5t-307 -121t-118 -315.5h-45zM1432 1544l53 21l108 -218l-53 -20z" />
<glyph unicode="&#xda;" horiz-adv-x="1839" d="M174 766q0 213 131 347t336 134q164 0 354 -63q219 -80 475 -80v-43q-154 0 -245 14q-25 -102 -72 -283.5t-65.5 -276.5t-18.5 -195.5t68.5 -165t177 -64.5t181.5 73t108 159l241 1040h43l-286 -1231l-19 -102q0 -86 80 -86q63 0 100 59l29 -25l-12 -18 q-12 -18 -44 -36.5t-84.5 -18.5t-82 34.5t-29.5 77.5t25 142l10 47q-55 -86 -148.5 -154.5t-205.5 -68.5q-188 0 -289 99t-101 251.5t41 322.5q16 63 57.5 220t65.5 258q-162 70 -364 69q-176 0 -294 -120.5t-118 -315.5h-45zM1425 1348l109 217l53 -21l-108 -217z" />
<glyph unicode="&#xdb;" horiz-adv-x="1839" d="M174 766q0 213 131 347t336 134q164 0 354 -63q219 -80 475 -80v-43q-154 0 -245 14q-25 -102 -72 -283.5t-65.5 -276.5t-18.5 -195.5t68.5 -165t177 -64.5t181.5 73t108 159l241 1040h43l-286 -1231q-18 -76 -19 -102q0 -86 80 -86q57 0 100 59l29 -25q-14 -27 -51 -50 t-89.5 -23t-82 34.5t-29.5 84.5l25 135l10 47q-55 -86 -148.5 -154.5t-205.5 -68.5q-188 0 -289 99t-101 269q0 135 29 252t69.5 274t65.5 257q-162 70 -351 69.5t-307 -121t-118 -315.5h-45zM1059 1360l334 368h55l197 -381l-51 -24l-181 348l-309 -346z" />
<glyph unicode="&#xdc;" horiz-adv-x="1839" d="M174 766q0 213 131 347t336 134q164 0 354 -63q219 -80 475 -80v-43q-154 0 -245 14q-25 -102 -72 -283.5t-65.5 -276.5t-18.5 -195.5t68.5 -165t177 -64.5t181.5 73t108 159l241 1040h43l-286 -1231l-19 -102q0 -86 80 -86q63 0 100 59l29 -25l-12 -18 q-12 -18 -44 -36.5t-84.5 -18.5t-82 34.5t-29.5 77.5t25 142l10 47q-55 -86 -148.5 -154.5t-205.5 -68.5q-188 0 -289 99t-101 251.5t41 322.5q16 63 57.5 220t65.5 258q-162 70 -364 69q-176 0 -294 -120.5t-118 -315.5h-45zM1077 1445q0 50 35 86t84 36t85 -36t36 -85 t-36 -84t-86 -35t-84 34t-34 84zM1405 1445q0 50 35 86t84 36t85 -36t36 -85t-36 -84t-86 -35t-84 34t-34 84z" />
<glyph unicode="&#xdd;" horiz-adv-x="1460" d="M217 651q0 264 152.5 430t396.5 166q451 0 451 -428q0 -217 -37 -327q510 1104 911 1103q115 0 162 -50t47 -148h-47q-10 90 -48 119.5t-114 29.5q-127 0 -275.5 -134t-280.5 -343t-243.5 -440.5t-213 -525t-152.5 -447.5h-275l86 205q88 207 175 510t87 484t-67.5 265 t-188.5 84q-174 0 -321 -131q-74 -66 -118 -175.5t-44 -228t35 -198.5t78 -121t102.5 -71.5t108.5 -38.5l-15 -39q-45 12 -78.5 27.5t-109.5 63.5t-120 141t-44 218zM1294 1382l109 217l53 -20l-108 -217z" />
<glyph unicode="&#xde;" horiz-adv-x="1230" d="M-57 -262q72 0 117.5 22.5t73.5 78t37 90t17.5 82.5t10.5 55l176 1009q66 373 403 379v-53q-51 -6 -70.5 -41t-33.5 -113q170 -2 291.5 -42t185.5 -105q121 -125 121 -293q0 -129 -48 -234.5t-122 -173t-180 -116.5q-176 -84 -424 -119q-39 -207 -196.5 -342t-358.5 -135 v51zM508 211q711 102 711 596q0 180 -136.5 288.5t-412.5 112.5q-76 -557 -162 -997z" />
<glyph unicode="&#xdf;" horiz-adv-x="968" d="M90 -55q106 610 139 792.5t123 273.5t275.5 91t278.5 -76t93 -210t-79.5 -206.5t-194.5 -97.5q238 -41 238 -225q0 -133 -97.5 -219t-283 -86t-273.5 92l-180 -129h-39zM352 117q53 -68 149.5 -68t155 81t58.5 194q0 137 -133 172l-41 2l8 45q115 0 174 70.5t59 269.5 q0 170 -120 170q-141 0 -187 -262z" />
<glyph unicode="&#xe0;" horiz-adv-x="991" d="M121 297q0 233 114.5 366.5t296.5 133.5q150 0 199 -142q10 61 23 123q152 0 225 13l27 6l-142 -774q61 6 103 57l30 -25q-61 -73 -153 -73q-180 0 -197 157q-90 -158 -227 -157.5t-218 83t-81 232.5zM352 193q0 -93 23.5 -128.5t73 -35.5t100.5 53q68 70 108 176 q6 27 23.5 128t30.5 167q-6 78 -43 135t-93 57q-100 0 -161.5 -179t-61.5 -373zM475 1155l53 21l109 -218l-53 -20z" />
<glyph unicode="&#xe1;" horiz-adv-x="991" d="M121 297q0 233 114.5 366.5t296.5 133.5q150 0 199 -142q10 61 23 123q152 0 225 13l27 6l-142 -774q61 6 103 57l30 -25q-61 -73 -153 -73q-180 0 -197 157q-90 -158 -227 -157.5t-218 83t-81 232.5zM352 193q0 -93 23.5 -128.5t73 -35.5t100.5 53q68 70 108 176 q6 27 23.5 128t30.5 167q-6 78 -43 135t-93 57q-100 0 -161.5 -179t-61.5 -373zM562 958l108 218l53 -21l-108 -217z" />
<glyph unicode="&#xe2;" horiz-adv-x="991" d="M121 297q0 233 114.5 366.5t296.5 133.5q150 0 199 -142q10 61 23 123q152 0 225 13l27 6l-142 -774q61 6 103 57l30 -25q-61 -73 -153 -73q-180 0 -197 157q-90 -158 -227 -157.5t-218 83t-81 232.5zM352 193q0 -93 23.5 -128.5t73 -35.5t100.5 53q68 70 108 176 q6 27 23.5 128t30.5 167q-6 78 -43 135t-93 57q-100 0 -161.5 -179t-61.5 -373zM375 928l334 368h55l197 -381l-51 -24l-181 348l-309 -346z" />
<glyph unicode="&#xe3;" horiz-adv-x="991" d="M121 297q0 233 114.5 366.5t296.5 133.5q150 0 199 -142q10 61 23 123q152 0 225 13l27 6l-142 -774q61 6 103 57l30 -25q-61 -73 -153 -73q-180 0 -197 157q-90 -158 -227 -157.5t-218 83t-81 232.5zM187 899q68 168 200 238q56 29 117 29t97 -23t49.5 -55.5t25.5 -65.5 q27 -78 100.5 -78t137 55.5t90.5 110.5l24 56h54q-4 -10 -11.5 -29t-34 -66t-58.5 -82.5t-88 -65.5t-123.5 -30t-104.5 35t-45.5 77t-37 76.5t-89 34.5t-121 -54t-92 -108.5t-27.5 -54.5h-63zM352 193q0 -93 23.5 -128.5t73 -35.5t100.5 53q68 70 108 176q6 27 23.5 128 t30.5 167q-6 78 -43 135t-93 57q-100 0 -161.5 -179t-61.5 -373z" />
<glyph unicode="&#xe4;" horiz-adv-x="991" d="M121 297q0 233 114.5 366.5t296.5 133.5q150 0 199 -142q10 61 23 123q152 0 225 13l27 6l-142 -774q61 6 103 57l30 -25q-61 -73 -153 -73q-180 0 -197 157q-90 -158 -227 -157.5t-218 83t-81 232.5zM352 193q0 -93 23.5 -128.5t73 -35.5t100.5 53q68 70 108 176 q6 27 23.5 128t30.5 167q-6 78 -43 135t-93 57q-100 0 -161.5 -179t-61.5 -373zM355 1008q0 50 34.5 86t84 36t85 -36t35.5 -85t-35.5 -84t-86 -35t-84 34t-33.5 84zM682 1008q0 50 35 86t84 36t85 -36t36 -85t-36 -84t-86 -35t-84 34t-34 84z" />
<glyph unicode="&#xe5;" horiz-adv-x="991" d="M121 297q0 233 114.5 366.5t296.5 133.5q150 0 199 -142q10 61 23 123q152 0 225 13l27 6l-142 -774q61 6 103 57l30 -25q-61 -73 -153 -73q-180 0 -197 157q-90 -158 -227 -157.5t-218 83t-81 232.5zM352 193q0 -93 23.5 -128.5t73 -35.5t100.5 53q68 70 108 176 q6 27 23.5 128t30.5 167q-6 78 -43 135t-93 57q-100 0 -161.5 -179t-61.5 -373zM549 991q0 41 31 71t72 30t70.5 -30t29.5 -71t-29.5 -70.5t-70.5 -29.5t-72 29.5t-31 70.5zM590 992.5q0 -25.5 18.5 -44t44 -18.5t44 18.5t18.5 44t-18.5 44t-44 18.5t-44 -18.5t-18.5 -44z " />
<glyph unicode="&#xe6;" horiz-adv-x="1351" d="M121 297q0 233 114.5 366.5t291.5 133t214 -188.5q117 188 369 188.5t252 -206.5q0 -129 -122 -195.5t-347 -68.5q-4 -74 -4 -117q0 -92 42 -136t105.5 -44t115.5 24.5t83 58t53 70.5q41 68 41 86l37 -16q-6 -33 -37 -87t-67.5 -89t-108.5 -64.5t-160 -29.5 q-270 0 -323 198q-94 -199 -252 -198q-135 0 -216 82.5t-81 232.5zM352 193q0 -93 23.5 -128.5t73 -35.5t99.5 51t71.5 93t37.5 83v20q0 160 54 277q-6 80 -43 136t-93 56q-100 0 -161.5 -179t-61.5 -373zM899 373q412 2 412 217q0 67 -40 111t-119 44t-153.5 -94 t-99.5 -278z" />
<glyph unicode="&#xe7;" horiz-adv-x="831" d="M119 276q0 244 121.5 382.5t330.5 138.5q141 0 217 -72t76 -188q0 -74 -44 -113t-103.5 -39t-102.5 43t-43 104.5t43 105.5t105 44q18 0 47 -8q-39 72 -145.5 71.5t-188.5 -135.5t-82 -401q0 -92 42 -136t105.5 -44t116 24.5t83 58t53.5 70.5q41 68 41 86l36 -16 q-6 -33 -36.5 -87t-67.5 -89t-108.5 -64.5t-159.5 -29.5q-166 0 -251 78.5t-85 215.5zM260 -238q0 68 50 108t151 40l18 94h37l-22 -133h-33q-72 0 -114 -29.5t-42 -81.5q0 -98 148 -98q47 0 89 13.5t60 25.5l19 14l20 -34q-59 -58 -190 -58q-190 0 -191 139z" />
<glyph unicode="&#xe8;" horiz-adv-x="813" d="M119 276q0 244 120.5 382.5t323.5 138.5q260 0 260 -207q0 -129 -121.5 -195.5t-347.5 -68.5q-4 -74 -4 -117q0 -92 42 -136t105.5 -44t116 24.5t83 58t53.5 70.5q41 68 41 86l36 -16q-6 -33 -36.5 -87t-67.5 -89t-108.5 -64.5t-159.5 -29.5q-166 0 -251 78.5t-85 215.5z M360 373q412 2 412 217q0 67 -40 111t-118.5 44t-153.5 -94t-100 -278zM453 1155l53 21l108 -218l-53 -20z" />
<glyph unicode="&#xe9;" horiz-adv-x="813" d="M119 276q0 244 120.5 382.5t323.5 138.5q260 0 260 -207q0 -129 -121.5 -195.5t-347.5 -68.5q-4 -74 -4 -117q0 -92 42 -136t105.5 -44t116 24.5t83 58t53.5 70.5q41 68 41 86l36 -16q-6 -33 -36.5 -87t-67.5 -89t-108.5 -64.5t-159.5 -29.5q-166 0 -251 78.5t-85 215.5z M360 373q412 2 412 217q0 67 -40 111t-118.5 44t-153.5 -94t-100 -278zM535 958l108 218l53 -21l-108 -217z" />
<glyph unicode="&#xea;" horiz-adv-x="813" d="M119 276q0 244 120.5 382.5t323.5 138.5q260 0 260 -207q0 -129 -121.5 -195.5t-347.5 -68.5q-4 -74 -4 -117q0 -92 42 -136t105.5 -44t116 24.5t83 58t53.5 70.5q41 68 41 86l36 -16q-6 -33 -36.5 -87t-67.5 -89t-108.5 -64.5t-159.5 -29.5q-166 0 -251 78.5t-85 215.5z M289 928l334 368h55l196 -381l-51 -24l-180 348l-309 -346zM360 373q412 2 412 217q0 67 -40 111t-118.5 44t-153.5 -94t-100 -278z" />
<glyph unicode="&#xeb;" horiz-adv-x="813" d="M119 276q0 244 120.5 382.5t323.5 138.5q260 0 260 -207q0 -129 -121.5 -195.5t-347.5 -68.5q-4 -74 -4 -117q0 -92 42 -136t105.5 -44t116 24.5t83 58t53.5 70.5q41 68 41 86l36 -16q-6 -33 -36.5 -87t-67.5 -89t-108.5 -64.5t-159.5 -29.5q-166 0 -251 78.5t-85 215.5z M264 1008q0 50 34.5 86t84 36t85 -36t35.5 -85t-35.5 -84t-86 -35t-84 34t-33.5 84zM360 373q412 2 412 217q0 67 -40 111t-118.5 44t-153.5 -94t-100 -278zM591 1008q0 50 35 86t84 36t85 -36t36 -85t-36 -84t-86 -35t-84 34t-34 84z" />
<glyph unicode="&#xec;" horiz-adv-x="495" d="M150 162q0 16 7 61t93 518h-86l4 37h88q152 0 223 13l29 6l-141 -774q61 6 102 57l31 -25q-61 -74 -154.5 -73.5t-144.5 47.5t-51 133zM258 1155l53 21l108 -218l-53 -20z" />
<glyph unicode="&#xed;" horiz-adv-x="495" d="M150 162q0 16 7 61t93 518h-86l4 37h88q152 0 223 13l29 6l-141 -774q61 6 102 57l31 -25q-61 -74 -154.5 -73.5t-144.5 47.5t-51 133zM352 911l109 217l53 -20l-108 -217z" />
<glyph unicode="&#xee;" horiz-adv-x="495" d="M90 928l334 368h55l197 -381l-51 -24l-181 348l-309 -346zM150 162q0 16 7 61t93 518h-86l4 37h88q152 0 223 13l29 6l-141 -774q61 6 102 57l31 -25q-61 -74 -154.5 -73.5t-144.5 47.5t-51 133z" />
<glyph unicode="&#xef;" horiz-adv-x="495" d="M104 1008.5q0 50.5 35 86t84 35.5t85 -35.5t36 -84.5t-36 -84t-86 -35t-84 33.5t-34 84zM150 162q0 16 7 61t93 518h-86l4 37h88q152 0 223 13l29 6l-141 -774q61 6 102 57l31 -25q-61 -74 -154.5 -73.5t-144.5 47.5t-51 133zM432 1008.5q0 50.5 35 86t84 35.5t85 -35.5 t36 -84.5t-36 -84t-86 -35t-84 33.5t-34 84z" />
<glyph unicode="&#xf0;" horiz-adv-x="880" d="M111 274q0 127 53 231.5t131 169t160 101.5t145 37v-43q-102 0 -180 -153.5t-78 -344.5q0 -215 164 -215q117 0 237 144q57 70 95.5 182.5t38.5 264t-68 263.5h-219l6 37h186q-87 105 -243 105v39q190 0 292 -144h181l-6 -37h-152q63 -117 64 -284q0 -274 -148.5 -458.5 t-374.5 -184.5q-133 0 -208.5 81.5t-75.5 208.5z" />
<glyph unicode="&#xf1;" horiz-adv-x="1021" d="M127 723q61 74 154.5 74t144.5 -47.5t51 -133.5v-12q84 193 262 193q121 0 188.5 -69t67.5 -189q0 -63 -39 -244.5t-43 -271.5q49 0 103 57l31 -25q-14 -29 -63.5 -51t-109.5 -22q-186 0 -186 168q0 72 37 256t37 241q0 88 -84 88q-68 0 -130.5 -88t-103.5 -241l-69 -383 q63 6 104 57l31 -25q-61 -74 -153.5 -73.5t-144.5 47.5t-52 123q0 29 33 225l67 379q-61 -6 -102 -58zM197 899q68 168 200 238q56 28 117 28t97 -22.5t49.5 -55t23.5 -65.5q29 -78 102.5 -78t137 55.5t88.5 110.5l26 55h54q-4 -10 -11.5 -28.5t-34 -65.5t-58.5 -83 t-88 -65.5t-123.5 -29.5t-104.5 35t-45.5 77t-37 76.5t-89 34.5t-121 -54t-92 -108.5t-27.5 -54.5h-63z" />
<glyph unicode="&#xf2;" d="M121 259q0 120 21.5 205t70.5 164t148.5 124t248 45t231.5 -79t83 -216q0 -233 -124 -376.5t-358 -143.5q-157 0 -239 78.5t-82 198.5zM352 193q0 -164 95.5 -164t170 164.5t74.5 392.5q0 172 -93 172t-170 -156.5t-77 -408.5zM440 1155l54 21l108 -218l-53 -20z" />
<glyph unicode="&#xf3;" d="M121 259q0 120 21.5 205t70.5 164t148.5 124t248 45t231.5 -79t83 -216q0 -233 -124 -376.5t-358 -143.5q-157 0 -239 78.5t-82 198.5zM352 193q0 -164 95.5 -164t170 164.5t74.5 392.5q0 172 -93 172t-170 -156.5t-77 -408.5zM543 958l108 218l54 -21l-109 -217z" />
<glyph unicode="&#xf4;" d="M121 259q0 120 21.5 205t70.5 164t148.5 124t248 45t231.5 -79t83 -216q0 -233 -124 -376.5t-358 -143.5q-157 0 -239 78.5t-82 198.5zM313 928l334 368h55l197 -381l-51 -24l-180 348l-310 -346zM352 193q0 -164 95.5 -164t170 164.5t74.5 392.5q0 172 -93 172 t-170 -156.5t-77 -408.5z" />
<glyph unicode="&#xf5;" d="M121 259q0 120 21.5 205t70.5 164t148.5 124t248 45t231.5 -79t83 -216q0 -233 -124 -376.5t-358 -143.5q-157 0 -239 78.5t-82 198.5zM199 899q68 168 200 238q56 28 117.5 28t97 -22.5t49 -55t25.5 -65.5q27 -78 100.5 -78t137 55.5t90.5 110.5l24 55h54 q-4 -10 -11.5 -28.5t-34 -65.5t-58.5 -83t-88 -65.5t-123.5 -29.5t-104.5 35t-45 77t-37 76.5t-89.5 34.5t-120.5 -54t-92 -108.5t-28 -54.5h-63zM352 193q0 -164 95.5 -164t170 164.5t74.5 392.5q0 172 -93 172t-170 -156.5t-77 -408.5z" />
<glyph unicode="&#xf6;" d="M121 259q0 120 21.5 205t70.5 164t148.5 124t248 45t231.5 -79t83 -216q0 -233 -124 -376.5t-358 -143.5q-157 0 -239 78.5t-82 198.5zM322 1008.5q0 50.5 34.5 86t83.5 35.5t85 -35.5t36 -84.5t-36 -84t-86 -35t-83.5 33.5t-33.5 84zM352 193q0 -164 95.5 -164 t170 164.5t74.5 392.5q0 172 -93 172t-170 -156.5t-77 -408.5zM649 1008.5q0 50.5 35 86t84 35.5t85 -35.5t36 -84.5t-36 -84t-86 -35t-84 33.5t-34 84z" />
<glyph unicode="&#xf7;" d="M127 377l4 37h784l-4 -37h-784zM328 131.5q0 61.5 43 105.5t104.5 44t105.5 -44t44 -105.5t-44 -104.5t-105.5 -43t-104.5 43t-43 104.5zM410 647.5q0 61.5 43 105.5t104 44t105.5 -44t44.5 -105.5t-44.5 -104.5t-105.5 -43t-104 43t-43 104.5z" />
<glyph unicode="&#xf8;" d="M121 271.5q0 208.5 92 355.5q49 80 148.5 125t240.5 45q47 0 94 -11l164 328l53 -20l-161 -322q172 -63 172 -270q0 -233 -124 -376.5t-358 -143.5q-47 0 -84 6l-163 -326l-54 21l160 319q-180 61 -180 269.5zM352 193q0 -45 6 -76l308 608q-23 33 -66 33 q-94 0 -171 -156.5t-77 -408.5zM389 51q22 -22 57 -22q96 0 171 164.5t75 392.5q0 25 -4 61z" />
<glyph unicode="&#xf9;" horiz-adv-x="1021" d="M115 723q14 29 63 51.5t109 22.5q186 0 186 -168q0 -72 -37 -256.5t-37 -241.5q0 -88 84 -88q59 0 115.5 69.5t97.5 192.5l86 473q152 0 222 13l26 6l-137 -774q61 6 102 57l31 -25q-61 -74 -153.5 -73.5t-143.5 45.5t-53 127q-86 -172 -254 -172q-121 0 -188.5 68.5 t-67.5 189.5q0 63 39 244.5t43 271.5q-49 0 -103 -58zM484 1155l53 21l108 -218l-53 -20z" />
<glyph unicode="&#xfa;" horiz-adv-x="1021" d="M115 723q14 29 63 51.5t109 22.5q186 0 186 -168q0 -72 -37 -256.5t-37 -241.5q0 -88 84 -88q59 0 115.5 69.5t97.5 192.5l86 473q152 0 222 13l26 6l-137 -774q61 6 102 57l31 -25q-61 -74 -153.5 -73.5t-143.5 45.5t-53 127q-86 -172 -254 -172q-121 0 -188.5 68.5 t-67.5 189.5q0 63 39 244.5t43 271.5q-49 0 -103 -58zM573 958l109 218l53 -21l-108 -217z" />
<glyph unicode="&#xfb;" horiz-adv-x="1021" d="M115 723q14 29 63 51.5t109 22.5q186 0 186 -168q0 -72 -37 -256.5t-37 -241.5q0 -88 84 -88q59 0 115.5 69.5t97.5 192.5l86 473q152 0 222 13l26 6l-137 -774q61 6 102 57l31 -25q-61 -74 -153.5 -73.5t-143.5 45.5t-53 127q-86 -172 -254 -172q-121 0 -188.5 68.5 t-67.5 189.5q0 63 39 244.5t43 271.5q-49 0 -103 -58zM350 928l334 368h55l197 -381l-51 -24l-180 348l-310 -346z" />
<glyph unicode="&#xfc;" horiz-adv-x="1021" d="M115 723q14 29 63 51.5t109 22.5q186 0 186 -168q0 -72 -37 -256.5t-37 -241.5q0 -88 84 -88q59 0 115.5 69.5t97.5 192.5l86 473q152 0 222 13l26 6l-137 -774q61 6 102 57l31 -25q-61 -74 -153.5 -73.5t-143.5 45.5t-53 127q-86 -172 -254 -172q-121 0 -188.5 68.5 t-67.5 189.5q0 63 39 244.5t43 271.5q-49 0 -103 -58zM342 1008q0 50 34.5 86t84 36t85 -36t35.5 -85t-35.5 -84t-86 -35t-84 34t-33.5 84zM669 1008q0 50 35 86t84 36t85 -36t36 -85t-36 -84t-86 -35t-84 34t-34 84z" />
<glyph unicode="&#xfd;" horiz-adv-x="989" d="M113 -218q0 71 43 113t121.5 42t146.5 -26t98 -30l-4 -37q-35 4 -100.5 29t-130 25t-98 -29t-33.5 -83t59 -88t147 -34q213 0 263 256l51 283q-86 -188 -260 -189q-119 0 -183.5 68t-64.5 190q0 63 38 228.5t42 255.5q-49 0 -103 -58l-30 25q14 29 63 51.5t109 22.5 q186 0 186 -168q0 -72 -39 -235t-39 -220q0 -98 82 -98q68 0 132.5 92t105.5 248l67 362q152 0 222 13l26 6l-129 -725q-37 -211 -171 -330t-347 -119q-129 0 -199.5 44t-70.5 115zM584 958l108 218l53 -21l-108 -217z" />
<glyph unicode="&#xfe;" horiz-adv-x="940" d="M55 -281l230 1342q-61 -6 -103 -57l-30 24q61 74 154 74t144.5 -47t51.5 -133q0 -16 -9.5 -73.5t-31.5 -178.5q88 125 220 125t206 -79t74 -216q0 -242 -131.5 -380t-340.5 -138q-92 0 -145 43q-16 -80 -57 -306h-232zM356 94q35 -57 119 -57q113 0 183.5 156.5 t70.5 390.5q0 94 -19.5 129t-62.5 35q-119 0 -213 -224z" />
<glyph unicode="&#xff;" horiz-adv-x="989" d="M113 -218q0 71 43 113t121.5 42t146.5 -26t98 -30l-4 -37q-35 4 -100.5 29t-130 25t-98 -29t-33.5 -83t59 -88t147 -34q213 0 263 256l51 283q-86 -188 -260 -189q-119 0 -183.5 68t-64.5 190q0 63 38 228.5t42 255.5q-49 0 -103 -58l-30 25q14 29 63 51.5t109 22.5 q186 0 186 -168q0 -72 -39 -235t-39 -220q0 -98 82 -98q68 0 132.5 92t105.5 248l67 362q152 0 222 13l26 6l-129 -725q-37 -211 -171 -330t-347 -119q-129 0 -199.5 44t-70.5 115zM332 1008.5q0 50.5 34.5 86t84 35.5t85 -35.5t35.5 -84.5t-35.5 -84t-86 -35t-84 33.5 t-33.5 84zM659 1008.5q0 50.5 35 86t84 35.5t85 -35.5t36 -84.5t-36 -84t-86 -35t-84 33.5t-34 84z" />
<glyph unicode="&#x152;" horiz-adv-x="2232" d="M182 356q0 367 233.5 623t581.5 270l2 -41q-133 -4 -238.5 -66.5t-170 -157.5t-107.5 -222q-74 -223 -73.5 -466t108 -349.5t244.5 -106.5q246 0 455 209v25q0 270 161 907q-88 98 -237 98q-195 0 -305.5 -135t-110.5 -317q0 -80 24.5 -139.5t55.5 -88t69 -47.5 q51 -25 89 -24l-2 -41q-35 0 -89.5 24.5t-91.5 57t-66.5 100.5t-29.5 158q0 199 122 345t335 146q152 0 248 -92l51 191q100 31 276 30q45 0 134 -19.5t175 -19.5q188 0 281 41q12 74 12 113h47q0 -117 -87 -329t-87 -304h-45q0 96 70 268t80 209q-84 -35 -228.5 -35 t-227.5 18.5t-134 20.5q-92 -342 -154 -686h656l-4 -37h-658q-53 -295 -80 -571h17q121 0 305 58.5t338 66.5l-6 -41q-131 -6 -326 -65.5t-360.5 -59.5t-206.5 125q-225 -211 -518 -211q-248 0 -387.5 150.5t-139.5 416.5z" />
<glyph unicode="&#x153;" horiz-adv-x="1366" d="M121 259q0 120 21.5 205t70.5 164t148.5 124t252 45t234.5 -86q108 86 268 86q260 0 260 -207q0 -129 -121.5 -195.5t-347.5 -68.5q-4 -27 -4 -119t40 -135t105.5 -43t118 24.5t83 58t53.5 70.5q41 68 40 86l37 -16q-6 -33 -36.5 -87t-67.5 -89t-108.5 -64.5 t-159.5 -29.5q-178 0 -265 92q-117 -92 -287.5 -92t-252.5 78.5t-82 198.5zM352 193q0 -164 95.5 -164t170 164.5t74.5 392.5q0 172 -93 172t-170 -156.5t-77 -408.5zM913 373q412 2 412 217q0 68 -39.5 111.5t-109.5 43.5q-207 0 -263 -372z" />
<glyph unicode="&#x178;" horiz-adv-x="1460" d="M217 651q0 264 152.5 430t396.5 166q451 0 451 -428q0 -217 -37 -327q510 1104 911 1103q115 0 162 -50t47 -148h-47q-10 90 -48 119.5t-114 29.5q-127 0 -275.5 -134t-279.5 -343q-274 -432 -432 -893q-127 -367 -178 -520h-275q41 90 110.5 272.5t116 325.5t84 317 t37.5 319.5t-67.5 229.5t-188.5 84q-174 0 -321 -131q-74 -66 -118 -175.5t-44 -228t34 -198.5t81 -121q100 -88 174 -104l35 -6l-15 -39q-35 10 -58.5 17t-82.5 42t-101 79t-76 127t-34 185zM955 1416q0 50 34.5 86t84 36t85 -36t35.5 -85t-35.5 -84t-86 -35t-84 34 t-33.5 84zM1282 1416q0 50 35 86t84 36t85 -36t36 -85t-36 -84t-86 -35t-84 34t-34 84z" />
<glyph unicode="&#x2c6;" horiz-adv-x="675" d="M45 969l334 368h55l197 -381l-51 -24l-181 348l-309 -346z" />
<glyph unicode="&#x2dc;" horiz-adv-x="1030" d="M68 1292q68 168 200 238q56 29 117 29t97 -23t49.5 -55.5t25.5 -65.5q27 -78 100.5 -78t137 55.5t90.5 110.5l24 56h54q-4 -10 -11.5 -29t-34 -66t-58.5 -82.5t-88 -65.5t-123.5 -30t-104.5 35t-45.5 77t-37 76.5t-89 34.5t-121 -54t-92 -108.5t-27.5 -54.5h-63z" />
<glyph unicode="&#x2000;" horiz-adv-x="866" />
<glyph unicode="&#x2001;" horiz-adv-x="1733" />
<glyph unicode="&#x2002;" horiz-adv-x="866" />
<glyph unicode="&#x2003;" horiz-adv-x="1733" />
<glyph unicode="&#x2004;" horiz-adv-x="577" />
<glyph unicode="&#x2005;" horiz-adv-x="433" />
<glyph unicode="&#x2006;" horiz-adv-x="288" />
<glyph unicode="&#x2007;" horiz-adv-x="288" />
<glyph unicode="&#x2008;" horiz-adv-x="216" />
<glyph unicode="&#x2009;" horiz-adv-x="346" />
<glyph unicode="&#x200a;" horiz-adv-x="96" />
<glyph unicode="&#x2010;" horiz-adv-x="1017" d="M184 377l4 37h785l-4 -37h-785z" />
<glyph unicode="&#x2011;" horiz-adv-x="1017" d="M184 377l4 37h785l-4 -37h-785z" />
<glyph unicode="&#x2012;" horiz-adv-x="1017" d="M184 377l4 37h785l-4 -37h-785z" />
<glyph unicode="&#x2013;" horiz-adv-x="1120" d="M184 377l4 37h887l-4 -37h-887z" />
<glyph unicode="&#x2014;" horiz-adv-x="1325" d="M184 377l4 37h1092l-4 -37h-1092z" />
<glyph unicode="&#x2018;" horiz-adv-x="421" d="M258 1176q0 100 89 210.5t253 157.5l18 -43q-92 -31 -156.5 -77t-82.5 -76l-19 -33q18 8 48 8q61 0 104 -43t43 -104.5t-43 -105.5t-104.5 -44t-105.5 44t-44 106z" />
<glyph unicode="&#x2019;" horiz-adv-x="380" d="M254 1069q92 31 156.5 77t83.5 79l18 30q-18 -8 -47 -8q-61 0 -104.5 43t-43.5 104.5t43 105.5t104.5 44t105.5 -44t44 -105q0 -100 -89 -211t-253 -158z" />
<glyph unicode="&#x201a;" horiz-adv-x="489" d="M61 -195q92 31 157 77t83 77l18 33q-18 -8 -47 -8q-61 0 -104 43t-43 104.5t43 105.5t104.5 44t105.5 -44t44 -106q0 -100 -89 -210.5t-253 -158.5z" />
<glyph unicode="&#x201c;" horiz-adv-x="804" d="M258 1176q0 100 89 210.5t253 157.5l18 -43q-92 -31 -156.5 -77t-82.5 -76l-19 -33q18 8 48 8q61 0 104 -43t43 -104.5t-43 -105.5t-104.5 -44t-105.5 44t-44 106zM641 1176q0 100 89 210.5t253 157.5l18 -43q-92 -31 -156.5 -77t-82.5 -76l-19 -33q18 8 48 8 q61 0 104 -43t43 -104.5t-43 -105.5t-104.5 -44t-105.5 44t-44 106z" />
<glyph unicode="&#x201d;" horiz-adv-x="763" d="M254 1069q92 31 156.5 77t83.5 79l18 30q-18 -8 -47 -8q-61 0 -104.5 43t-43.5 104.5t43 105.5t104.5 44t105.5 -44t44 -105q0 -100 -89 -211t-253 -158zM637 1069q92 31 156.5 77t83.5 79l18 30q-18 -8 -47 -8q-61 0 -104.5 43t-43.5 104.5t43 105.5t104.5 44t105.5 -44 t44 -105q0 -100 -89 -211t-253 -158z" />
<glyph unicode="&#x201e;" horiz-adv-x="972" d="M61 -195q92 31 157 77t83 77l18 33q-18 -8 -47 -8q-61 0 -104 43t-43 104.5t43 105.5t104.5 44t105.5 -44t44 -106q0 -100 -89 -210.5t-253 -158.5zM547 -195q92 31 156.5 77t82.5 77l19 33q-18 -8 -47 -8q-61 0 -104.5 43t-43.5 104.5t43 105.5t104.5 44t105.5 -44 t44 -106q0 -100 -89 -210.5t-253 -158.5z" />
<glyph unicode="&#x2022;" horiz-adv-x="636" d="M219 487.5q0 75.5 53.5 130t129 54.5t130 -54.5t54.5 -130t-54.5 -129t-130 -53.5t-129 53.5t-53.5 129z" />
<glyph unicode="&#x2026;" horiz-adv-x="1439" d="M125 131.5q0 61.5 43 105.5t104.5 44t105.5 -44t44 -105.5t-44 -104.5t-105.5 -43t-104.5 43t-43 104.5zM602 131.5q0 61.5 43 105.5t104.5 44t105.5 -44t44 -105.5t-44 -104.5t-105.5 -43t-104.5 43t-43 104.5zM1079 131.5q0 61.5 43 105.5t104.5 44t105.5 -44 t44 -105.5t-44 -104.5t-105.5 -43t-104.5 43t-43 104.5z" />
<glyph unicode="&#x202f;" horiz-adv-x="346" />
<glyph unicode="&#x2039;" horiz-adv-x="577" d="M137 395l10 54q53 16 170 67q225 98 246 201h43q-12 -68 -92 -131q-127 -102 -330 -166q225 -88 283 -197q18 -33 18 -56.5t-4 -39.5h-43q2 10 2 20q0 127 -303 248z" />
<glyph unicode="&#x203a;" horiz-adv-x="577" d="M121 127q12 68 92 131q127 102 330 166q-225 88 -285 197q-16 33 -16 56t4 40h43q-2 -11 -2 -21q0 -127 303 -247l-10 -54q-53 -16 -170 -67q-225 -98 -246 -201h-43z" />
<glyph unicode="&#x205f;" horiz-adv-x="433" />
<glyph unicode="&#x20ac;" horiz-adv-x="1445" d="M117 362l4 37h201q0 96 14 176h-178l4 37h182q66 287 292 461t554 174q180 0 260 -64.5t80 -201.5q0 -92 -90 -227q-82 -131 -82 -205h-45q0 41 16.5 88t28.5 67.5t45 73.5q80 121 80 199q0 164 -135 207q-63 20 -133 20t-148 -8q-377 -115 -473 -584h496l-5 -37h-497 q-14 -76 -21 -176h482l-5 -37h-479q-2 -29 -2 -83q0 -307 199 -406q49 -6 130 -6t171 30.5t139 75.5q104 96 129 166l12 31l41 -16q-14 -47 -55 -108.5t-93 -104.5t-151.5 -79t-220.5 -36q-250 0 -392 139t-150 397h-205z" />
<glyph unicode="&#x2122;" horiz-adv-x="1814" d="M236 729v21h51v-29q0 -16 10 -59.5t29.5 -76t65.5 -60t116 -27.5t113 62.5t77 221.5q43 176 89.5 263.5t113.5 115.5q-2 2 -4 2q-137 57 -261 57.5t-186.5 -69.5t-62.5 -158t48 -135t97 -55l48 -6l-11 -47q-27 0 -72.5 17t-76.5 39.5t-55.5 70t-24.5 110.5q0 113 79 197 t215 84t265 -52.5t184.5 -52.5t90 16.5t51 38t24.5 48.5q12 35 13 59h47q0 -72 -47 -137q-20 -27 -65.5 -49.5t-111 -22.5t-110.5 14q-59 -84 -135 -387q-41 -147 -117 -220.5t-216 -73.5t-205.5 84.5t-65.5 195.5zM748 446v43q111 4 189.5 74t184.5 273l195 362h39l41 -532 q201 274 337 417.5t214 143.5v-45q-41 0 -82 -29q-94 -258 -124 -364.5t-30 -176.5t14 -90q37 4 72 39l31 -35q-45 -51 -109 -51q-158 0 -157 174q0 68 51 236q-45 -59 -316 -432l-36 6l-35 469l-62 -111q-115 -215 -200.5 -293t-216.5 -78z" />
<glyph unicode="&#x25fc;" horiz-adv-x="798" d="M0 0v799h799v-799h-799z" />
</font>
</defs>
</svg>
