<?xml version="1.0" encoding="utf-8"?>
<!-- Generator: Adobe Illustrator 17.1.0, SVG Export Plug-In . SVG Version: 6.00 Build 0)  -->
<!DOCTYPE svg PUBLIC "-//W3C//DTD SVG 1.1//EN" "http://www.w3.org/Graphics/SVG/1.1/DTD/svg11.dtd">
<svg version="1.1" id="Layer_1" xmlns="http://www.w3.org/2000/svg" xmlns:xlink="http://www.w3.org/1999/xlink" x="0px" y="0px"
	 viewBox="0 0 208.5 161.9" enable-background="new 0 0 208.5 161.9" xml:space="preserve">
<g>
	<polygon fill-rule="evenodd" clip-rule="evenodd" fill="#00952B" points="123.6,111.7 104.3,100.2 104.3,81.1 123.6,69.6 
		132.3,75.3 132.3,58.9 103.1,75.9 84.7,65.2 78.8,69.2 99.2,80.6 99.2,101.9 67.5,120.4 67.5,132.9 117.1,161.9 166.7,132.9 
		166.7,111.7 141,97.3 141,102.1 	"/>
	<g>
		<polygon fill-rule="evenodd" clip-rule="evenodd" fill="#00952B" points="78.8,69.2 64.9,61.4 64.9,26.6 47.7,13.1 0,45.9 
			0,101.9 49.6,130.8 67.5,120.4 67.5,77 		"/>
	</g>
	<g>
		<polygon fill-rule="evenodd" clip-rule="evenodd" fill="#00952B" points="132.3,57.7 132.3,58.9 135.8,56.9 135.8,20.9 103.1,0 
			70.5,20.9 70.5,56.9 84.7,65.2 115.2,44.2 		"/>
	</g>
	<g>
		<polygon fill-rule="evenodd" clip-rule="evenodd" fill="#00952B" points="138,88 138,79.1 132.3,75.3 132.3,92.4 141,97.3 
			141,89.7 		"/>
	</g>
	<g>
		<polygon fill-rule="evenodd" clip-rule="evenodd" fill="#00A424" points="99.2,80.6 78.8,69.2 67.5,77 67.5,120.4 99.2,101.9 		
			"/>
	</g>
	<g>
		<polygon fill-rule="evenodd" clip-rule="evenodd" fill="#00A424" points="132.3,58.9 132.3,57.7 115.2,44.2 84.7,65.2 103.1,75.9 
					"/>
	</g>
	<g>
		<polygon fill-rule="evenodd" clip-rule="evenodd" fill="#00A424" points="132.3,75.3 123.6,69.6 104.3,81.1 104.3,100.2 
			123.6,111.7 141,102.1 141,97.3 132.3,92.4 		"/>
	</g>
	<g>
		<polygon fill-rule="evenodd" clip-rule="evenodd" fill="#00952B" points="141,89.7 170.6,107 203.2,88 203.2,51.9 170.6,31.1 
			138,51.9 138,79.1 141,81.1 		"/>
	</g>
	<g>
		<polygon fill-rule="evenodd" clip-rule="evenodd" fill="#00A424" points="141,89.7 141,81.1 138,79.1 138,88 		"/>
	</g>
	<g>
		<polygon fill-rule="evenodd" clip-rule="evenodd" fill="#00952B" points="191.1,100.7 171.8,112.1 171.8,131.3 191.1,142.8 
			208.5,133.2 208.5,112.1 		"/>
	</g>
</g>
</svg>
